<svg xmlns="http://www.w3.org/2000/svg" viewBox="0 0 366.85 74.3"><defs><style>.cls-1{fill:#231f20;}.cls-2{fill:#95d2bb;}</style></defs><title>Recurso 11</title><g id="Capa_2" data-name="Capa 2"><g id="älmera"><path class="cls-1" d="M102.13,36.89a74,74,0,0,1,6-7.88c1.81-2.24,3.42-3.44,4.82-3.62a11.64,11.64,0,0,1,4.26.28q2.16.54,1.08,3.5l-5.56,27.56c-.38,3.5-1,5.2-2,5.12q-4,.21-3.84-2t4.52-30.92a17.91,17.91,0,0,0-5,4.72q-1.67,2.49-3.42,5.16a36.34,36.34,0,0,0-1.6,3.56q-2.2,11.21-2.78,12.78A2.61,2.61,0,0,1,96.41,57c-2.16-.37-3.12-1.4-2.86-3.08s1.3-9.25,3.14-22.72a21,21,0,0,0-5.4,5.14q-2.08,2.91-3,4.54A48.49,48.49,0,0,0,86,45.57l-2.24,10.6c-.38,2-1.23,3-2.56,2.94a11.87,11.87,0,0,1-2.74-.34q-.75-.24.14-4.44,3.27-20.07,3.7-23.28c.28-2.13,1.56-3.09,3.86-2.88Q90,27.33,88,33c-.48,2.72-1,5.46-1.52,8.2a57.81,57.81,0,0,1,7-9.92c1.81-2.24,3.42-3.44,4.82-3.62a11.64,11.64,0,0,1,4.26.28q2.16.54,1.08,3.5Q102.81,34.17,102.13,36.89Z"/><path class="cls-1" d="M142.49,48.93l-4.32,5.44q-4.32,4-7.12,5a8.18,8.18,0,0,1-5.84-.12q-3-1.14-4-5a18,18,0,0,1-.32-7.66,32.08,32.08,0,0,1,2.1-7.18,24.33,24.33,0,0,1,3.62-6,25.32,25.32,0,0,1,5-4.64,13.59,13.59,0,0,1,14-1,5.59,5.59,0,0,1,4.5-.88c1.5.38,1.9,1.58,1.18,3.6q-2.73,13.2-3.66,20.3c-.63,4.74-1,7.86-1.08,9.38S146,62.45,145,62.37q-4-.19-3.64-3.1c.24-1.93.45-3.59.64-5S142.35,51.12,142.49,48.93Zm-.86-20q-3.7.06-7.48,3.8a33.94,33.94,0,0,0-5.84,7.44,28.52,28.52,0,0,0-3,8.2,13.87,13.87,0,0,0,.2,7.62q1.14,3.12,4.14,1.34a24.64,24.64,0,0,0,5.18-4,50.45,50.45,0,0,0,4.66-5.7q2.47-3.45,4.32-11.1Q145.32,28.9,141.63,29Z"/><path class="cls-1" d="M177.47,41.57q1.89-15,3.58-15.24a10.81,10.81,0,0,1,3.84.34q2.16.54,1.08,3.5A125.3,125.3,0,0,0,182.71,45q-1.14,7.32-1.46,10.68c-.38,4.56-1,6.8-2,6.72q-4-.19-3.84-3T177.47,41.57Zm5.86-23.22a10.2,10.2,0,0,1,3.88.34q2,.57,1,3.4c-.67,1.9-1.52,2.78-2.56,2.66l-3.24-.36q-1.68-.18-1.32-3C181.33,19.51,182.07,18.5,183.33,18.35Z"/><path class="cls-1" d="M196,55.23a10.2,10.2,0,0,1,3.88.34q2,.57,1,3.4c-.67,1.9-1.52,2.78-2.56,2.66l-3.24-.36q-1.68-.18-1.32-3C194,56.39,194.75,55.38,196,55.23Z"/><path class="cls-1" d="M213.32,35.85l1.48,1.32a44.43,44.43,0,0,1,5.42,4.1,13.73,13.73,0,0,1,3,3.62,11,11,0,0,1,.68,5.2L223,53.53q-3.24,6.57-7.52,8a8.06,8.06,0,0,1-11.12-7q2.25-1.8,2.8,1.4c1.28,3.36,2.9,4.58,4.84,3.64a11.94,11.94,0,0,0,4.86-4.34A11.63,11.63,0,0,0,218.6,48a6.52,6.52,0,0,0-1.88-3.7,31.72,31.72,0,0,0-4.84-3.66q-4.4-2.55-4.06-6.32a8.48,8.48,0,0,1,3.26-6.08,7.82,7.82,0,0,1,6.1-1.86,10.11,10.11,0,0,1,5.54,2.66q-1.16,2.44-3.32,1.44-4-2.28-6.12,0T213.32,35.85Z"/><path class="cls-1" d="M248.56,48.93l-4.32,5.44q-4.32,4-7.12,5a8.18,8.18,0,0,1-5.84-.12q-3-1.14-4-5a18.2,18.2,0,0,1-.32-7.66,32.08,32.08,0,0,1,2.1-7.18,24.64,24.64,0,0,1,3.62-6,25.89,25.89,0,0,1,5-4.64,13.59,13.59,0,0,1,14-1,5.61,5.61,0,0,1,4.5-.88q2.26.57,1.18,3.6-2.71,13.2-3.66,20.3c-.62,4.74-1,7.86-1.08,9.38s-.62,2.24-1.58,2.16c-2.66-.13-3.88-1.16-3.64-3.1s.46-3.59.64-5S248.43,51.12,248.56,48.93Zm-.86-20c-2.46,0-5,1.31-7.48,3.8a34.24,34.24,0,0,0-5.84,7.44,29.13,29.13,0,0,0-3,8.2,14,14,0,0,0,.2,7.62q1.14,3.12,4.14,1.34a24.38,24.38,0,0,0,5.18-4,48.37,48.37,0,0,0,4.66-5.7q2.49-3.45,4.32-11.1Q251.41,28.9,247.7,29Z"/><path class="cls-1" d="M276.86,42.75c.08.71.17,1.36.27,2l.28-.26c.92-.8,1.87-1.56,2.73-2.44a6.33,6.33,0,0,1,.56-.47q-.48-4.57-.7-7.62-.27-3.91-2.24-4.5t-5.88,5l1.24-4.64q1.08-3-1.08-3.5a10.81,10.81,0,0,0-3.84-.34q-1.68.21-3.58,15.24T262.56,59q-.15,2.81,3.84,3,1.44.12,2-6.72,1.65-12,4.58-16.74T276.86,42.75Z"/><path class="cls-1" d="M291.92,9.53q1.49-7.2,2.36-7.32a10.81,10.81,0,0,1,3.84.34q2.16.54,1.08,3.5l-.64,3.72q12.24-.39,12.74.34a2.36,2.36,0,0,1,.36,1.74c-.09.67-1.18.92-3.26.76q-4.23.17-10.28.16l-7.92,47.4q-.56,2.85-3,2.32-3,.6-2.58-2.64t6.82-47.4l-9.44.16q-3.24-.07-3.36-.72c-.34-1.2,0-1.85,1.06-2s3.08-.2,6.06-.28Z"/><path class="cls-1" d="M315.64,26.37a9.15,9.15,0,0,1,6.58,2.26,16.21,16.21,0,0,1,4,7A20.12,20.12,0,0,1,326.5,46a23.75,23.75,0,0,1-4.38,9.78,15.81,15.81,0,0,1-6.88,5.5,10.86,10.86,0,0,1-1,.4,8.3,8.3,0,0,1-8-.32,12.2,12.2,0,0,1-5.88-7.48,21.56,21.56,0,0,1-.44-10.82,23.22,23.22,0,0,1,4.36-9.76,19.11,19.11,0,0,1,6.8-5.78A16.32,16.32,0,0,1,315.64,26.37Zm1.14,3.26a7.48,7.48,0,0,0-4.08,1.26,13.68,13.68,0,0,0-4.88,5.38,23.62,23.62,0,0,0-2.9,8.18,21.8,21.8,0,0,0,.1,7.76,10.56,10.56,0,0,0,3.08,5.72c1.56,1.47,3.3,1.47,5.2,0s3.23-4.69,4-9.68q4.28-1.8,3.44,2.48l.32-1.48a22.17,22.17,0,0,0,.92-4.58,20,20,0,0,0-.1-7.48,15.06,15.06,0,0,0-2.18-5.32A4.58,4.58,0,0,0,316.78,29.63Z"/><path class="cls-1" d="M355.78,41.57q1.91-15,3.58-15.24a10.81,10.81,0,0,1,3.84.34q2.16.54,1.08,3.5A127.32,127.32,0,0,0,361,45q-1.14,7.32-1.46,10.68-.56,6.84-2,6.72-4-.19-3.84-3T355.78,41.57Zm5.86-23.22a10.18,10.18,0,0,1,3.88.34c1.33.38,1.67,1.51,1,3.4S365,24.87,364,24.75l-3.24-.36q-1.68-.18-1.32-3C359.64,19.51,360.39,18.5,361.64,18.35Z"/><path class="cls-1" d="M346.27,42.75c.07.71.16,1.36.26,2l.28-.26c.92-.8,1.87-1.56,2.73-2.44.18-.17.37-.32.56-.47q-.48-4.57-.69-7.62-.29-3.91-2.25-4.5t-5.88,5l1.25-4.64q1.07-3-1.08-3.5a10.82,10.82,0,0,0-3.84-.34q-1.68.21-3.58,15.24T332,59q-.15,2.81,3.85,3c1,.08,1.62-2.16,2-6.72q1.63-12,4.57-16.74T346.27,42.75Z"/><path class="cls-1" d="M154,9.29s-4.89,0-5.8.68c0,0-1.6,2.62,2.05,2.39s28.11,0,28.11,0,2.51.23,2.62-1.2"/><path class="cls-1" d="M159.92,9.75q1.49-7.2,2.36-7.32a10.58,10.58,0,0,1,3.84.34c1.44.36,1.8,1.52,1.08,3.5L166.56,10q12.24-.4,12.74.34a2.34,2.34,0,0,1,.36,1.74c-.09.66-1.18.92-3.26.76-2.82.1-6.25.16-10.28.16l-7.92,47.4q-.55,2.84-3,2.32-3,.6-2.58-2.64t6.82-47.4l-9.44.16q-3.24-.09-3.36-.72c-.34-1.2,0-1.86,1.06-2s3.08-.2,6.06-.28Z"/><circle class="cls-2" cx="37.15" cy="37.15" r="37.15"/><path class="cls-1" d="M53.48,27a5.85,5.85,0,0,0-2.54-1.33,6.48,6.48,0,0,1,2.4,1l.08-.09-.8-.68L53,26v0l-.71-.43,0,0,.45.16.05-.07c-.52-.29-1-.6-1.54-.87s-.93-.45-.87-1a.48.48,0,0,0-.07-.2l-.36-.67a5.76,5.76,0,0,1,1.06.71c.31.27.57.58.85.87a4.36,4.36,0,0,0-2.13-1.84,6.82,6.82,0,0,1,2.81,1.2l.06-.06L50.8,22.44h.12l0-.06c-.47-.16-.93-.37-1.42-.49-.9-.22-1.82-.4-2.73-.56-.57-.11-1.15-.15-1.72-.22V21l.55,0L45.37,21l0-.06,1.26.2V21l-1.32-.28,0-.07,1.85.31a5.59,5.59,0,0,0-2.35-.34,1.79,1.79,0,0,1,.24-.1,6,6,0,0,1,2.28.17c.26.07.53.09.88.15a2.14,2.14,0,0,0-1.09-.4l-1.26-.06v-.11l1.25.16L47,20.35V20.3l1.68.37,0-.08a6.72,6.72,0,0,0-.88-.35,8.61,8.61,0,0,0-1-.12V20c.34,0,.68,0,1,.06a4.43,4.43,0,0,0,.76.15,2.49,2.49,0,0,1,1,.22h.1l-.13-.13a2,2,0,0,1,.37.08c.26.07.53.12.8.17h0l.22.06a4.8,4.8,0,0,0-2.61-.88,5.73,5.73,0,0,1,3,.75l0-.08-1.33-.62,0-.06,1.57.63-.48-.32,0,0,.92.44,0-.07-.92-.53,0,0,.9.37c-.16-.37-.59-.35-.87-.53l.72.2-.13-.22a6.08,6.08,0,0,1,2.15.63,5,5,0,0,0-2.81-.77v-.09l1.47-.1-4.4-.22v0h.21l-1-.05v0l1-.14-.28,0c-1,.05-2,.09-3,.15a2.58,2.58,0,0,0-.84.2,1.84,1.84,0,0,0-.47.36l-.07-.05.46-.46-.21-.07h0l-.48-.49,1.26-.31L44.29,18l.31-.13v0l-1,.16,0-.08,2.78-.71v0c-.42,0-1.27.06-1.27.05l1.09-.18L46,17l1.21-.21-.17-.09,1-.14-.74,0v-.07l1.21,0v0h-1a5.76,5.76,0,0,1,2.19-.07,5.85,5.85,0,0,0-3.08.13l0-.06,1.9-1.1,0,0L47,16l.74-.71-.06-.05-1.1.65a5.9,5.9,0,0,1,.39-.46c0-.05,0-.12,0-.18a.36.36,0,0,0-.21,0l-1.1.77,0,0,.66-.77-.09-.06-.91.83.31-.58-.07,0-.37.4-.05,0,.19-.27-.07,0-.51.53,0-.25-.5.5.06-.27-.17.1,0-.11a2.5,2.5,0,0,1-.5.29.62.62,0,0,0-.41.39c-.09.2-.19.39-.29.58h0l.18-.65-.1,0-.49.66,0-.53a3.41,3.41,0,0,0-.39.82c-.11.27-.21.55-.31.83l-.07,0,.2-1.29h-.07l-.41.65h-.07l0-.48-.6,1.33-.1,0,0-.61-.53.84-.17-.36c0,.3-.2.45-.55.46a.33.33,0,0,0-.1.06l-.55.3-.06-.05.54-.47,0,0-.51.3,0-.05.65-.48-.06-.05-.29.07.34-.32L39.16,18l-.48.16-.07-.06.79-.5,0-.05L38.7,18l0,0,.75-.68,0-.05-.7.5-.06,0,1-.9,0-.05-.64.56-.11-.07L39.74,16l-.23.08,1.19-2.67-.08,0c-.71.55-1.23,1.25-1.91,1.83l.7-.89-.13,0c.25-.37.49-.73.74-1.08.08-.12.2-.22.29-.33s0-.05,0-.07l-.22.11a1.25,1.25,0,0,1,.15-.28.58.58,0,0,0,0-.14.42.42,0,0,0-.16,0,.5.5,0,0,0-.11.1V12.4l-.09-.05-.66,1c0-.59,0-1.12.08-1.66h-.11L39.08,13l-.27-.9h-.13l0,1.18a3.69,3.69,0,0,0-.2-.43c-.09-.15-.2-.29-.31-.44l-.08,0,.09.74-.12-.16-.16.21-.21-.36-.24.15,0,0,.32-.47-.07,0-1.09,1,0,0,1-1.25-.06,0-.57.59,0,0,.75-1-.06,0-1,1.14-.05,0,.73-1-.06,0-.54.59-.05,0,.62-.92-.06,0-1,1.3-.05,0,.9-2.13-.08,0c-.29.63-.59,1.26-.89,1.89h0L36.32,10h-.11a10.68,10.68,0,0,0-.36,2.72L35.07,11l-.07,0,.8,1.9-.8-.88-.08,0,.43.7-.06,0-.86-1.14,0,0,.73,1.16-.07,0-.43-.44-.07,0,.31.51-.31,0,1.09,2-.07,0-.69-.88c-.16.84.56,1.49.68,2.26l-.61-1.11-.06,0,.42,1.18L35,16.35l.19.46-.29.08.16.21-.1.06-.31-.37c-.18.13-.22,0-.25-.17s-.11-.64-.17-1h-.06v.52h0l-.24-1h-.05v.41l-.13,0a3.43,3.43,0,0,1-.13-.38c-.15-.49-.29-1-.43-1.46h-.08a9.27,9.27,0,0,1,.25,1.65h-.08L33,14.07h-.08l0,.77-.62-1.59-.1,0,.08,1h0L32,13.18l-.06,0,.16.94-.69-1.64-.08,0,.27,1.14h0L31,12.31H30.9l.23.91h0l-.56-.92-.07,0c.26.53.52,1.05.79,1.57a6.17,6.17,0,0,0,.51.85c.3.43.68.83.95,1.27.57.94,1.08,1.89,1.62,2.84.08.15.15.29-.07.41a.78.78,0,0,0-.16-.2A4.2,4.2,0,0,0,33,18.52a1.3,1.3,0,0,1-.56-.35c-.33-.36-.57-.76-.92-1.1A24.37,24.37,0,0,0,29,14.84a6.13,6.13,0,0,0-1.91-1c-.1,0-.21-.14-.28-.13-.23.07-.35-.07-.49-.16l-.08,0v.17l-.44-.22a5,5,0,0,0,.71.53c.24.17.47.33.69.51s.42.36.63.54a6.33,6.33,0,0,0-3.14-.67l2.07.34v.05l-1.1.1v.07a3.17,3.17,0,0,1,2.24.29l-1.06.17v0l1.36,0v.08a2.15,2.15,0,0,0-1.65.38l1.12-.33,0,.06-.49.22,1.31-.17v.05l-1,.31,0,.09L28,16l-.08.11,1.14-.15V16l-1,.19,0,.08a2,2,0,0,1,1.05-.12l-1,.25,0,.08c.59,0,1.18-.29,1.76.05a1.86,1.86,0,0,0-1.58.18l1.47-.14v0l-1,.24,0,.07.74,0-.11.15.82,0-.64.16v.08a1.45,1.45,0,0,1,1.5.23,1.83,1.83,0,0,0-1.29-.1c.14,0,.28,0,.43,0s.25,0,.37,0v0l-.34.09,0,.06,1,.11v.09a5.61,5.61,0,0,1-.83,0,7.37,7.37,0,0,0-2.43-.3,2.44,2.44,0,0,0-.26.06,5.35,5.35,0,0,1-.68.11c-.34,0-.68,0-1,0a2.77,2.77,0,0,0-.48.11l0,.08,1.55.08-1,.3,0,.09A2.3,2.3,0,0,1,28,18.07l-.21.2.46,0c.09,0,.24.07.25.11,0,.22.22.22.41.25l-.13.28a3.47,3.47,0,0,1,.51-.21,1.14,1.14,0,0,1,.37.1c-.13.13,0,.1.1.12l.31.11h-.33l1.2.36,0,.06-.52-.13,0,.07.62.24-.29.09.7.31-.46,0,0,.09h.32c.18.3.59.27.84.46l-.16,0,.73.21,0,.1-1.1-.25,1.66.91c-.34-.11-.77.07-1-.23a.82.82,0,0,0-.22-.19c-.36-.22-.72-.44-1.11-.64-.81-.41-1.6-.85-2.45-1.19a13.29,13.29,0,0,0-3.86-.87c-1.11-.08-2.23-.05-3.35-.06a3.57,3.57,0,0,0-.64.11l0,.06.41,0v0l-.74.25,0,.07.94-.3,0,0-.17.16a6.09,6.09,0,0,0,.64-.11c.2,0,.4,0,.68-.05l-.22.2c.22,0,.4,0,.56,0l.59-.12-.37.25,1.25-.14,0,.07-.32.19,1.29-.32v0l-.42.21c.56.27,1.09-.22,1.71,0-.68.1-.68.1-.63.3q.63-.2.75.06l.48-.11,0,.05-.11.06.23,0-.44.21c1.18-.14,1.37-.14,1.56,0l-.83.15v.09a1.09,1.09,0,0,0,.3.07l1.21,0c-.7.23-.7.23-.73.32l1.35,0a.46.46,0,0,1-.22.16c-.16.07-.32.12-.48.18h0l-1.13.11a1.43,1.43,0,0,1-.28-.07,1.06,1.06,0,0,0-.23-.05c-.36,0-.71,0-1.07,0a8.16,8.16,0,0,0-3.38.56,5.57,5.57,0,0,0-1.95,1.18l2.09-1,.11.1a2.73,2.73,0,0,1-.23.25,2.66,2.66,0,0,0-1.15,1.57A4.6,4.6,0,0,1,23,21.68c0,.16-.09.28-.11.41s0,.25,0,.45c.27-.49.19-1.07.9-1.26a1.14,1.14,0,0,0,.12,1.16,4.25,4.25,0,0,1-.09-.64,3.41,3.41,0,0,1,.1-.54H24l0,.66h0l.23-.86h.08a1.4,1.4,0,0,0,.24,1.18,4.9,4.9,0,0,0,0-.54,1,1,0,0,1,0-.39c0-.1.16-.18.27-.24a.58.58,0,0,1,.23.19c.07.13.1.27.16.41h.06l0-.31.26.31-.06-.46.11,0,.33.45.05,0-.09-.47h0l.21.4h.07l0-.48.32.53.07,0,0-.36c.27-.15.38,0,.46.16l.28-.06-.23-.06c0-.05,0-.15.08-.16a.81.81,0,0,1,.29,0c.17-.16.29-.16.4.05l-.55.15a4,4,0,0,0,.69,0,4.86,4.86,0,0,1,2.33.21l-1.29,0a6.48,6.48,0,0,1,2.5.53,7.4,7.4,0,0,0-2.81-.23l.6,0-.38.13a2.28,2.28,0,0,1-.36.15c-.36.09-.72.16-1.08.24a9.23,9.23,0,0,1,1.82,0l-1.5.15v.08l1.09,0a3,3,0,0,1-.58.12c-.49.05-1,.11-1.45.18a5.69,5.69,0,0,0-1.19.2c-.78.3-1.52.66-2.27,1a4.07,4.07,0,0,0-.49.31l0,0,.4-.22v0l-.59.63c.41-.14.76-.34,1.14-.48s.81-.25,1.21-.36l0,.09-.48.15c-.51.2-1,.39-1.53.61a2.2,2.2,0,0,0-1,1,5.94,5.94,0,0,1-.48.59l.55-.27a6.31,6.31,0,0,0-1.51,2.45,3.73,3.73,0,0,1,1.49-1.5,2.87,2.87,0,0,0-.81,2.46c0-.23,0-.47.06-.7a4,4,0,0,1,.19-.68c.08-.21.21-.41.31-.61l.06,0,0,.11.38-.62a1.79,1.79,0,0,0,.24,1.38c0-.49-.25-.92,0-1.34A1.86,1.86,0,0,0,23,28.48c-.11-.37-.31-.73-.14-1.1l.31.6.06,0c0-.49.05-1,.08-1.51l.12.14s0-.09,0-.13h0c-.08,1.09-.08,1.09.06,1.18l.06-1.19h.06l.23.7a1.38,1.38,0,0,0,0-.5,1.47,1.47,0,0,1,0-.47,2.47,2.47,0,0,1,.11-.43c.2.38.38.72.55,1.06l.1,0-.21-.4,0,0,.24.25-.27-.86.1,0c.1.17.18.33.28.49l.31.42.08,0L25,25.89l.08,0,.19.19.05-.24.29.43V26l.19.1-.11-.37.09,0,.19.2a1.29,1.29,0,0,1,.22-.4.58.58,0,0,0,.22-.34c0-.11.13-.19.29-.09s0,.2.07.33c.52-.66.52-.66.76-.58l-.19.27c1-.76,1.48-1,1.94-1l-.79.35,0,.06.45-.19,0,0-.38.26,0,0,.09,0-.65,1,.08,0,.17-.19c.3-.36.58-.71.88-1.06a2.14,2.14,0,0,1,.37-.23c.06.45.12.84.16,1.23,0,.08,0,.21-.1.23a2.68,2.68,0,0,0-1.14.65l-.32.2a6.34,6.34,0,0,1,3-.71,5.39,5.39,0,0,1-.86.28c-.26.05-.54.06-.81.1a6.87,6.87,0,0,0-1.91.79c-.18.1-.49.15-.44.43,0,0-.05.05-.08.07-.39.23-.8.44-1.16.7a7.87,7.87,0,0,0-1.75,1.65c-.32.41-.58.85-.86,1.28-.15.23-.28.47-.42.71l.06,0,.18-.2-.09.7.08-.09.09.5a2.58,2.58,0,0,1,.29-1.43l0,.23h.06l0-.44h.05L24,32.16h.05L23.81,31h.1l.29.75h0l-.16-1.09h.05l.48,1.16.1,0a2.51,2.51,0,0,1-.39-1.47l.39,1.27c.09-.08.12-.14.12-.2,0-.22-.09-.44-.11-.65s0-.53,0-.8h.08l.39,1.19.09,0c0-.24-.12-.49-.16-.74a2.49,2.49,0,0,1,0-.72,3.26,3.26,0,0,1,.25-.68l.08,0,0,.25.33-.66.08,0-.06.41h.05l.11-.19a4.87,4.87,0,0,0,0,.55.77.77,0,0,1-.28.88s0,0,0,0l.46-.17.05.05-.78,1.14.06.05.64-.58.08.06-.81.8.13.11.35-.43.07.06-.53.78h0l1.42-1.4.09.05a3.3,3.3,0,0,0-.66,2.07,5.33,5.33,0,0,1,.78-2c.06.41.12.84.18,1.27a.57.57,0,0,1-.06.28c-.09.19-.21.37-.3.56a6.49,6.49,0,0,0-.54,1.21,7.28,7.28,0,0,0-.14,1.48,2.71,2.71,0,0,0,.08.55h0L26.21,35h.09a2.65,2.65,0,0,0,.12.37,2.79,2.79,0,0,0,.19.33c.06.11.14.21.21.32-.11-.59-.61-1.1-.39-1.73l.49.94.08,0-.16-.37.23.14c-.07-.49-.47-.9-.36-1.43.17.67.56,1.2.92,1.28l-.28-.59.06,0,.4.38a1.6,1.6,0,0,0-.23-.38c-.19-.34-.4-.67-.56-1a.35.35,0,0,1,.08-.47l.44,1.07.09,0a6.17,6.17,0,0,1-.29-.65,4.67,4.67,0,0,1-.13-.65h.08l.16.74.11,0a1.17,1.17,0,0,1-.18-.78,2.87,2.87,0,0,0,1.18,1.56,2.57,2.57,0,0,1-.74-1.53l.82,1.14.07,0c-.22-.36-.47-.71-.66-1.08a1.66,1.66,0,0,1-.1-1A2.57,2.57,0,0,0,29,33a2.71,2.71,0,0,1-.66-1.84c.35.39.18,1,.72,1.28l-.39-1.3.11,0,.34,1h0l0-.37.49.65,0,0-.24-.73h.06l.2.26a4.73,4.73,0,0,0-.15-1,1.67,1.67,0,0,1,0-1c.07.26.1.51.16.77s.17.49.25.73l.1,0-.23-.93h.06l.26.64h0l0-.78h.07l.25.62a2.79,2.79,0,0,1,.08-1.51l.24,1.09h.05L30.79,29h.15l-.05,1H31l.05-.31.27.71h0l-.13-.84h0l.07.15.1-.33.28.57a3.2,3.2,0,0,1,.18-1.68c0,.22,0,.43,0,.64a4.76,4.76,0,0,0,.13.61H32c0-.28,0-.56,0-.84s0-.72.61-.75l0,.14.17-.28.08,0-.49,1.88.09,0,.53-1.36c.21.7.21.7,0,.82v-.27H33c0,.28,0,.57-.05.86s.11.36,0,.55a1,1,0,0,0,0,.43h0c-.16.26-.42.5-.45.76a1.16,1.16,0,0,1-.21.64,1,1,0,0,1-.1.17l.08.05a4.18,4.18,0,0,1,1.31-1.23,6.19,6.19,0,0,0-1.36,1.72l.3-.3L32,33.69l.65-.64,0,0-.42.62.06,0,.19-.21a2.07,2.07,0,0,1-.16.59c-.19.43-.41.85-.58,1.28s-.45,1.11-.64,1.67c-.14.39-.23.79-.33,1.18l.11,0a1,1,0,0,1,.56-1.05,7,7,0,0,0-.72,2.24c.27-.7.57-1.45.87-2.2l.11,0-.08,1.59h.11l0-1h.08c.17.37.34.75.52,1.13,0-.66-.57-1.22-.42-1.9l.8,1.6.07,0a7.08,7.08,0,0,0-.28-.77c-.13-.29-.3-.56-.43-.84a1.5,1.5,0,0,1-.11-.36h.08L33,38.29l.08,0-.34-.83,0,0,.61.87a.11.11,0,0,0,0-.13c-.37-.63-.75-1.25-1.11-1.88-.06-.1,0-.24,0-.36h.12l1.11,2a2,2,0,0,0-.17-.76c-.26-.52-.57-1-.85-1.53a.71.71,0,0,1,0-.21h0l1.36,2h.05l-.68-1.63.05,0L34,37.11l.07,0-.73-1.47.09,0,.59,1.11,0-.31.27.22,0,0c-.24-.44-.47-.88-.71-1.31l.06,0,.57.91.1,0-.87-1.67c.52.35.57.95,1.06,1.25-.31-.71-.64-1.42-1-2.14a.55.55,0,0,1,0-.22h.06l1,1.63.06,0-.24-.63h0l.43.51.05,0-.21-.49,0,0,.23.17h0l-.59-1a5.31,5.31,0,0,1,.7.63.33.33,0,0,1,0,.2c0,.9,0,1.81-.09,2.71-.2,3.75.5,7.19.28,10.94-.21,3.38,0,8.3-.25,11.68-.11,1.9-.3,3.08-.46,4.44.11.16.22.33.34.49a2.67,2.67,0,0,1,1.07-.76,28.64,28.64,0,0,0,.29-3.44c0-1.89.13-4.07.23-6,.07-1.25.1-3.58.17-4.83C37,46,36.62,41,36.77,37.44c.1-2.18-.28-1.68-.2-3.86,0-1.26.11-2.52.2-3.78a1.26,1.26,0,0,1,.55-.87,2.47,2.47,0,0,0-.5,1.91,3,3,0,0,1,.53-1.66l.1.27h0l0-.42a.61.61,0,0,1-.1.79,1.68,1.68,0,0,0-.49,1.53,2.42,2.42,0,0,1,.77-1.7c.13.28.1.27,0,.47a2.68,2.68,0,0,0-.53.92,11.51,11.51,0,0,0-.2,1.59l.27-.1c0-.05-.11-.12-.1-.16a3.18,3.18,0,0,1,.81-1.64c.27.38,0,.59-.27.85a2.42,2.42,0,0,0-.35.6l.7-.88.12.05c-.37.7-1.09,1.27-1,2.11a2.55,2.55,0,0,1,1.06-1.6c0,.2,0,.45-.11.58a2.53,2.53,0,0,0-.82,2.24,3.16,3.16,0,0,1,1-1.69c.1.57,0,.66-.51,1.12a1,1,0,0,0-.3.88,2.67,2.67,0,0,1,.83-1c.18.23,0,.36-.13.51a3,3,0,0,0-.77,1.36s0,0,0,0l.14-.09-.09.54a5.17,5.17,0,0,1,1.17-1.84c.23.17.27.33,0,.51a2,2,0,0,0-.3.36l.06,0L39,34.9l.33.65a3.26,3.26,0,0,0-.18-.63.55.55,0,0,1,0-.22h.11l.26.49,0,0-.24-.61.05,0,.22.36c.12-.21-.24-.4,0-.64l.16.24c-.15-.47.28-.72.54-1l.07.58.06-.08.1.06-.42.57,0,0,.36-.29c.13.27.14.28,0,.45s-.55.51-.82.77l-.92.94.08,0c.28-.25.55-.51.84-.75s.58-.45.86-.67l.1.08-2,1.94a5.77,5.77,0,0,0,.79-.54c.23-.19.43-.4.67-.58s.44-.28.66-.42a1.21,1.21,0,0,1,.21,0,4.48,4.48,0,0,1-.49,1c-.48.55-1,1.06-1.55,1.59l.11.07,2-1.89c.14.3,0,.5-.28.69-.61.46-1.2.94-1.8,1.42A9,9,0,0,0,41,36.9a.6.6,0,0,1-.13.38c-.29.31-.61.58-.91.88l-.89,1,.06.05L41,37.44c0,.91-1,1.33-1.45,2l.09.06,1.39-1.44a7.13,7.13,0,0,1,.09.77,4.33,4.33,0,0,1,0,.88,7.84,7.84,0,0,1-.18.81,1.75,1.75,0,0,0,.25-.69c0-.42,0-.85.07-1.27a1.22,1.22,0,0,1,.14-.34c.23-.58-.22-1.14-.11-1.74a.64.64,0,0,1,.3-.85,4.74,4.74,0,0,0,.64-.63c0,.5-.45.81-.73,1.17-.08.1-.14.21-.21.31l1.08-1.1L42,38a4.49,4.49,0,0,0,.4-1.6,1.08,1.08,0,0,1,.13-.35l.1,0,.05.65h.08a4.15,4.15,0,0,0,0-.61,8.55,8.55,0,0,0-.13-1c-.09-.5-.19-1-.3-1.48a1.79,1.79,0,0,0-.12-.24l-.28-.9.29.12-.63-.8,0,0L42,32l0-.05-.62-.5,0,0,1.19.56,0,0-1.79-1.14.24-.18,1.44.85,0,0-.74-.6,0,0,.58.24,0-.08c-.49-.24-1-.5-1.47-.72s-.72-.27-.73-.76l1.94.84L42,30l.41.08-.14-.17,1.07-1,.06,0-.85.93.08.05,1.13-1a.32.32,0,0,1,0,.3c-.22.25-.45.49-.69.73l-.69.66.11.07,1.49-1.4c0,.72-.69,1.15-1,1.71A2.82,2.82,0,0,0,44,29.57a4.13,4.13,0,0,1-.73,2.07A2.53,2.53,0,0,0,44.05,30a5.38,5.38,0,0,1,.11,2.64,3.28,3.28,0,0,0,.05-2.62l.12,0c.34.71.68,1.43,1,2.08l0-.49.16.17a.57.57,0,0,0,0-.32c-.17-.39-.36-.78-.53-1.17a.75.75,0,0,1,0-.26h.07l.4.65c.2-.41-.25-.65-.28-1l.62.84-.11-1.77c.31.17.33.2.3.48s-.11.66-.18,1.07L45.9,30,46,30l-.19.63.06,0,.39-.93.1,0L46,31.27l.57-.77.13.05-.51,1.2,0,0,.47-.66.05,0-.49,1.35.92-.69,0,0-.49.71,0,0,.32-.28h0l-.28.56.08,0,.9-1.15h0l-.63,1.49.15.06.9-1.36a2.89,2.89,0,0,1-.94,2.13l.7-.6,0,0-.32.51.1,0,.84-1.13A4.43,4.43,0,0,0,48,30.6l.14-.05,1.09,1.26a1.78,1.78,0,0,0-.09-.23c-.14-.29-.28-.57-.4-.86-.06-.13,0-.28-.1-.39a7,7,0,0,0-.61-.82c-.34-.37-.75-.69-1-1.08a3.93,3.93,0,0,0-1.12-.9,7.08,7.08,0,0,1-1.12-.63,2.68,2.68,0,0,0-1.06-.51c-1-.25-2-.49-3-.75-.3-.08-.57-.21-.87-.32a1.07,1.07,0,0,1,1-.22c.34.06.68.16,1,.25l0-.07-.66-.35a8.53,8.53,0,0,1,2.52.48,2.93,2.93,0,0,0-1.51-.64,8.52,8.52,0,0,1,2.71.76l-.19-.34c.38.26,1,.21,1.14.74l0-.33.08,0,.41.51.11-.39c.39.17.18.48.31.71l.12-.62.37.77,0-.63c.35.19.24.52.3.81l.09-.1.06.16h.05l0-.35.15.2.09-.05-.32-.37,0,0,.4.33a0,0,0,0,1,.06,0,.54.54,0,0,1,.13.07,1.14,1.14,0,0,1,.24,1l-.09.73A1.64,1.64,0,0,0,49,27.21c.28.56-.09,1-.36,1.47a1.46,1.46,0,0,0,.59-1.26c.23.38,0,.75,0,1.11l.1,0,.2-.86c.31.63-.06,1.11-.3,1.62A1.44,1.44,0,0,0,49.68,28a1.68,1.68,0,0,1-.16,1.38l.11,0,.33-1c.87.42,1,1.2,1.4,1.86a1.16,1.16,0,0,0-.09-.41c-.17-.38-.37-.74-.54-1.12A3.87,3.87,0,0,0,49.29,27c-.13-.08-.18-.25-.26-.38h0l.26-.62a1.2,1.2,0,0,0,0,.19c0,.05,0,.1,0,.15a1.83,1.83,0,0,0-.09-1.67l.1,0,.43.67.1-.14a2.08,2.08,0,0,1,0,1.64l.23-.21L50,27a2.7,2.7,0,0,0,.32-1.71c.11.08.23.17.24.27a6.26,6.26,0,0,1,.09,1.14,6.43,6.43,0,0,1-.22,1,2.26,2.26,0,0,0,.25-2.21,2.74,2.74,0,0,1,1.08,2.62,2.34,2.34,0,0,0,0-1.5,5.12,5.12,0,0,1,1,2,3.7,3.7,0,0,0-1.21-2.55,7.23,7.23,0,0,1,2.29,1.48l0-.05-.81-.82ZM49.7,20.07l1.07.5-1.12-.4ZM29.69,18l-.2.14-1.66-.46v-.08l2.06.25v.08h-.4v0Zm.74.39-.68-.09c.16-.27.4-.12.56-.06l.17.09ZM28,21.19c.06-.2.3-.22.71-.06Zm.9-.46a.91.91,0,0,0,0-.16c.22,0,.45-.07.67-.08s.38,0,.63,0ZM24.7,23.94l0-.08,1.11-.26C25.51,24,25,23.74,24.7,23.94Zm2.16-.5c0-.09.16-.15.25-.22l.06.05-.2.43h-.12C26.85,23.62,26.81,23.51,26.86,23.44Zm-.19,1.61c-.07-.34.3-.43.49-.63C27.3,24.59,27,25,26.67,25.05Zm3.25.52-.08-.05.05-1H30a6.76,6.76,0,0,1,.24.85C30.2,25.43,30,25.5,29.92,25.57Zm.49-.18-.05-.7C30.66,25.35,30.66,25.35,30.41,25.39ZM26.14,29,26,29l.2-.74.13,0Zm1.11,3-.05-1.43h.11l0,1.43Zm-.54-1.53-.08-.08L27.3,30l.06.06Zm6.13,5.42-.4-.66.12,0,.35.68Zm.15-.26c-.08-.3-.51-.51-.29-.94l.38.91Zm-.43-2.77-.09-.06.55-.52.08,0Zm2.57-5.4.09.12-1,.45-.08-.1Zm-1-2.68.32.43c-.31.14-.5-.08-.77-.2Zm-.52,1.1-.32-.45c.33-.14.38.15.63.27Zm-.31,3,.13-.93h.12C33.69,28.57,33.69,28.59,33.29,28.85Zm0-4.3.53,0C33.67,24.78,33.5,24.81,33.32,24.55Zm-1.39-5.27,0-.08.94.37,0,.05Zm.59.48,0-.09.91.44,0,.07Zm.22,4.46.3.16s0,0,0,0a.54.54,0,0,1,0-.11l.44.12c-.52.2-.54.19-.81-.07Zm.51.71-.33.12.48,0c-.22.2-.29.21-.8.11l.09-.07-1.08.12.11-.44.14.19A2.73,2.73,0,0,1,33.25,24.93Zm-.86,1.13-.07.06-.48-.47C32.08,25.56,32.22,25.67,32.39,26.06ZM31.1,21.2l0-.07.66.31-.06.09Zm.51,5c-.33.08-.28-.2-.41-.29C31.5,25.81,31.53,26,31.61,26.17Zm-.73-.89,0-.67H31l.2.63ZM27.83,30l.24,1C27.87,30.69,27.63,30.37,27.83,30Zm-.12-2.92a5.16,5.16,0,0,1,2.47-.74Zm1.09,3.15c-.15-.35-.29-.7-.43-1.05l.07,0c.12.36.4.68.5,1Zm.51-.42-.4-1C29.29,29.08,29.47,29.53,29.31,29.79Zm.36-.31-.19-1,.07,0,.42.78ZM30.2,29c-.29-.15-.14-.43-.21-.64l.31.61Zm.29-.18-.37-.69C30.73,28.72,30.73,28.72,30.49,28.85Zm.29-.21-.3-.88C31,28.16,31.07,28.5,30.78,28.64Zm0-2.43.24-.33.19.42Zm.48,2.2-.16-1,.09,0,.41.85Zm.48-.24-.28-.81.71.48Zm.6-.33s-.1,0-.16,0,0-.3.06-.47l.13.19v-.29l.23.11L32.4,27l.06,0,.19.29h0l-.18-.62.06,0,.19.4.09-.54c.08.18.2.32.19.44A1,1,0,0,1,32.33,27.84Zm.65-2a2.61,2.61,0,0,0-.29-.45c.36-.07.45,0,.75.59C33.23,26.09,33.08,26.1,33,25.88Zm2,2.2c0,.06-.09.14-.15.17A3.41,3.41,0,0,0,33,29.7,2.88,2.88,0,0,1,35,28.08Zm-.23.42c0,.33-.41.28-.59.42a6.65,6.65,0,0,1-.63.39A2.46,2.46,0,0,1,34.74,28.5Zm-1.85,2.19a2.07,2.07,0,0,1,.15-.34,3.65,3.65,0,0,1,1.26-1.24.84.84,0,0,1,.14-.06.86.86,0,0,1,.19-.05c-.37.3-.47.68-.9.9A3.5,3.5,0,0,0,32.89,30.69Zm1.93.94c-.34-.2-.55-.51-.46-.7Zm-1.48,2.29c-.26-.27-.24-.35.18-.58Zm.13-3.55,0-.05.72-.44.06.06Zm1,3.52c-.18-.42-.8-.67-.69-1.27l.8,1.23Zm.83.07c-.3-.34-.6-.66-.88-1a5.79,5.79,0,0,1-.5-.72c0-.07,0-.18,0-.27l.09-.06a3.71,3.71,0,0,1,.4.39c.28.35.56.7.81,1.06a2.92,2.92,0,0,1,.21.56Zm.13-3.08L34.69,30,34.8,30l.67.87Zm0-.79c-.09-.24-.48-.35-.35-.68l.46.64Zm1.92-2-.22-.54C37.46,27.82,37.47,27.86,37.33,28.13Zm-.92-13.75-.07,0,1.12-1.21.11.08Zm5.81,20c0,.19,0,.37-.1.47-.29.33-.62.64-.93,1l-.14,0a.66.66,0,0,1,.09-.19ZM42,33.65l-.48.63-.09,0,.48-.64Zm-.45.14c-.19.21-.37.43-.56.66a.66.66,0,0,1,.44-1l.3-.48C42,33.37,41.75,33.57,41.54,33.79Zm-.1-1.34c.4.28.39.35-.06.69C41.13,32.88,41,32.64,41.44,32.45Zm-.67.67.27-.24c.09.14.25.29.21.38a2,2,0,0,1-.41.47.3.3,0,0,1-.19-.09C40.51,33.44,40.61,33.27,40.77,33.12Zm7.31-1.94-.14,0-.28-.76.11,0Zm-.84-1.62.69.39-.07.08-.68-.4Zm-.05,1A1.87,1.87,0,0,1,46.6,32Zm-.86-1.69c.34.14.34.41.38.69C46.41,29.38,46.24,29.18,46.33,28.88ZM45,28.67l-.28-.43C45,28.32,45.1,28.41,45,28.67Zm.54-.46c.33.13.36.17.36.59C45.49,28.68,45.39,28.49,45.49,28.21Zm-1-.66c.43.13.59.33.57.72C44.53,28.07,44.48,28,44.49,27.55ZM44.83,30l-.14.05-.34-.46.13-.06Zm-.56-2.21-.3-.51C44.4,27.4,44.44,27.49,44.27,27.77Zm6.07-3.57L49.66,24a.21.21,0,0,1-.11-.15,1.6,1.6,0,0,0-.34-1.31A2.09,2.09,0,0,1,50.34,24.2Zm-2-2.26.91.13v0l-.72,0a1.52,1.52,0,0,1-.2-.06Zm.49.53a1.85,1.85,0,0,1,.35,1.27c-.23,0-.33-.07-.3-.31A6.11,6.11,0,0,0,48.84,22.47Zm-.56.7-.23,0L47.9,22A2.34,2.34,0,0,1,48.28,23.17Zm.14.07-.14-1.14c.32.07.57.9.43,1.51l-.85-.24v-.1Zm-.74-.31-.16-1.06C47.8,21.91,48,22.62,47.68,22.93Zm-.89-1.26.37.82-.11.06c-.06-.06-.15-.12-.17-.18-.06-.22-.1-.45-.14-.68Zm.39,1.21-.35,0c0-.19,0-.31.33-.25Zm-1-.21.38,0,0,.22h-.45ZM46,22.34l-.25-.59C46,21.76,46.09,21.92,46,22.34Zm-.46-.09c-.22.05-.35,0-.38-.21a1.79,1.79,0,0,0-.12-.42C45.37,21.61,45.52,21.79,45.51,22.25Zm-.44,0-.37,0-.07-.44.07,0Zm2.34-2.88c-.27.13-.27.13-1.53-.07Zm-5.23,0-.5,0,0,0,1-.15-.17-.09.23-.11-.3-.07.81-.17v0l-.62,0a.9.9,0,0,1,1-.08c.15.08.29.17.43.26A.29.29,0,0,1,44,19c-.17.12-.37.22-.53.35s-.36.34-.52.48l.08-.29-.16,0,.13-.18L43,19.38c-.11.09-.22.18-.34.26s-.13,0-.19,0l-.09-.15-.38.35-.48-.14.46-.13v-.06l-.48.06,0,0Zm-2,2.95c-.07.07-.12.17-.21.21s-.35.11-.53.17l0-.07Zm-1.35,5.2.34.08-.15.35-.22-.35Zm-.62,2h.1l.09.35-.08,0-.26-.16Zm-.52,1.26a7.15,7.15,0,0,0-.62.89,2.23,2.23,0,0,1,.71-1.54C38,30.4,37.86,30.57,37.68,30.78Zm.17-1.07-.12-.41C38.1,29.45,38.1,29.45,37.85,29.71Zm.11.76.1-.09.51.33-.08.09ZM38,33c-.26.24-.47.52-.74.82a3.52,3.52,0,0,1,.88-1.39A.49.49,0,0,1,38,33Zm.12-1.79L38,30.8l.32.16-.1.27Zm.12,1.21.55.47-.07.05C38.63,32.79,38.24,32.81,38.28,32.44Zm.62,2.2c0-.14-.41-.19-.11-.4C38.93,34.35,39.13,34.44,38.9,34.64Zm.15-2c-.25-.32-.91-.36-.77-.92a4.35,4.35,0,0,0,.36.38c.12.1.29.14.39.24A.29.29,0,0,1,39.05,32.67Zm.25-4.73c.36.36.38.5.09.68C39,28.19,39,28.19,39.3,27.94Zm.42,1.45-.47.42-.11,0a2.15,2.15,0,0,1,.11-.36,1.6,1.6,0,0,1,.22-.31Zm0-1.11a5.67,5.67,0,0,1,2,.46l-.19.21c-.52-.09-1-.2-1.51-.28C39.67,28.63,39.76,28.44,39.68,28.28Zm-.32,5.91c-.29-.33-.29-.33-.15-.48C39.33,33.85,39.53,34,39.36,34.19Zm.12-3.54c-.09-.29.29-.74.71-.81Zm.17.64.5-.93C40.32,30.7,40.26,30.8,39.65,31.29Zm.49,1-.09,0,.17-.54.25-.08Zm.28-1-.21.46h0l-.32.27C39.73,31.8,39.73,31.8,40.42,31.26Zm-.18-2a.81.81,0,0,1-.33-.25,2.7,2.7,0,0,1,1.36.27,7.51,7.51,0,0,1,.76.36c.06,0,.08.14.11.19Zm2.23.19-.21-.12,1-.92C43.28,28.61,43.28,28.61,42.47,29.42ZM43.08,28c.1.42-.39.5-.51.79l-.26-.15Zm-.59.86-.39.42L41.57,29A.77.77,0,0,1,42.49,28.81Zm-.43-.42c-.07,0-.16.06-.23,0a6.58,6.58,0,0,0-2.12-.34c-.09,0-.19-.09-.28-.14l0-.13,2.58.47Zm-.43-1.9c0,.28-.12.37-.47.31Zm-1.06,1,.79.28s.06,0,.12-.06l.05.05-.2.23.44-.16c0,.27-.06.3-.33.21a6.49,6.49,0,0,0-1.86-.27,1.16,1.16,0,0,1-.41-.16s0-.11,0-.16a1.61,1.61,0,0,1,1.44.28Zm-.47-3.28c-.31,0-.63,0-.94,0v-.08l.33,0L39.34,24a.75.75,0,0,1,.94-.08c0-.18-.06-.39.27-.34l-.37-.07.36-.17a1.76,1.76,0,0,1,.14.23C40.85,24,40.66,24.19,40.1,24.18Zm.09-1.89.22-.18,0-.05-.55.2,0-.07,1.4-.57-.69.06,0-.06,1.45-.53L41.84,21l1-.18-.28-.1.49-.13-.5,0,0-.06,1.22-.19v-.05l-.8,0v-.06l1.68-.18L44,20l.82-.08-.11-.15c.2,0,.55.08.64,0s.47,0,.7-.15l-.82,0v0l1.46-.05v.09l-1.32.33a5.59,5.59,0,0,0-.57.22,1.38,1.38,0,0,1-.2,0,2,2,0,0,1-.3.21c-.47.2-.94.43-1.44.59a5.83,5.83,0,0,0-1.55.86A2,2,0,0,1,40.19,22.29Zm4.29-.1a1.22,1.22,0,0,1-.27,0,.19.19,0,0,1-.13-.1s0-.1.09-.12S44.41,21.92,44.48,22.19ZM42,23.59h-.15V23h.07Zm-.56.2-.11-.61h.09l-.21-.12,0-.07.44,0C41.55,23.24,41.85,23.53,41.45,23.79Zm-.38.06-.1-.56C41.27,23.56,41.29,23.75,41.07,23.85Zm.52.5-.64,0,0-.11.3-.08h0l.36.18Zm.6.09-.55-.18-.41-.13c.26-.17.5,0,.74.06a.87.87,0,0,1,.25.19Zm.28-1,0-.6h.08l.1.6Zm.34-.23a3.68,3.68,0,0,1-.13-.43l.38,0a3.88,3.88,0,0,1,0,.4c0,.05-.07.09-.11.13S42.82,23.3,42.81,23.26Zm.18.6.18.49C42.85,24.34,42.82,24.28,43,23.86Zm-.36-1.78c.43-.2.65-.15.76.12C43.09,22.36,42.93,22.1,42.63,22.08Zm.66.66,1-.22,0,.08-.94.21Zm2,2.15,0-.59h.09l.06.59ZM44.59,23a4,4,0,0,1-.82-.12V22.8l2.33-.22v.22C45.59,22.89,45.09,23,44.59,23Zm1.83,2a3.3,3.3,0,0,0-.25-.89c0-.05,0-.11-.05-.17l.08,0,.65,1.42C46.51,25.38,46.42,25.31,46.42,25.06Zm.55.26c-.07-.29-.18-.58-.28-.88.21.09.21.09.43,1l.06-.38h.06l.13.58C47.12,25.6,47,25.51,47,25.32Zm.16-3.53c.3.09.39.36.3,1.05Zm.32,3.48.1.17.15-.2.1.61C47.34,25.79,47.44,25.54,47.45,25.27Zm.06-1.1c.47.3.34.75.45,1.13Zm.35,1.71c0-.05,0-.18,0-.29l.47.42h.09l-.15-1.5a2.17,2.17,0,0,1,.25,1.83C48.29,26.18,48.06,26,47.86,25.88Zm1.16.77-.41-.22a1.67,1.67,0,0,0-.06-1.9c.22,0,.35.06.39.3.07.44.1.89.13,1.34A2.61,2.61,0,0,1,49,26.65Zm0-2.49c-.3,0-.6,0-.9,0a4,4,0,0,1,1.83.14C49.68,24.23,49.38,24.18,49.07,24.16Zm.36.52v-.07l1.39.16v.08Zm.42.28,0-.11,1,.17,0,.08Zm.41.26,0-.11,1.67.43,0,.05Z"/><path class="cls-1" d="M28.84,42.51s-.74,1.21.95,1.11,13,0,13,0,1.16.11,1.21-.55-1.1-.88-1.1-.88H31.52A9,9,0,0,0,28.84,42.51Z"/></g></g></svg>