<svg xmlns="http://www.w3.org/2000/svg" viewBox="0 0 154.07 154.07"><defs><style>.cls-1{fill:#95d2bb;}.cls-2{fill:#231f20;}.cls-3{fill:#242122;}.cls-4{fill:#252223;}.cls-5{fill:#262324;}.cls-6{fill:#272526;}.cls-7{fill:#282627;}.cls-8{fill:#292728;}.cls-9{fill:#2a292a;}.cls-10{fill:#2b2a2b;}.cls-11{fill:#2c2b2c;}.cls-12{fill:#2e2d2e;}.cls-13{fill:#2f2e2f;}.cls-14{fill:#302f30;}.cls-15{fill:#313131;}.cls-16{fill:#323233;}.cls-17{fill:#333334;}.cls-18{fill:#343435;}.cls-19{fill:#353536;}.cls-20{fill:#363637;}.cls-21{fill:#373838;}.cls-22{fill:#383939;}.cls-23{fill:#383a3b;}.cls-24{fill:#393b3c;}.cls-25{fill:#3a3c3d;}.cls-26{fill:#3b3d3e;}.cls-27{fill:#3c3e3f;}.cls-28{fill:#3d3f40;}.cls-29{fill:#3d4040;}.cls-30{fill:#3e4141;}.cls-31{fill:#3f4242;}.cls-32{fill:#404343;}.cls-33{fill:#414444;}.cls-34{fill:#414545;}.cls-35{fill:#424646;}.cls-36{fill:#434747;}.cls-37{fill:#444748;}.cls-38{fill:#454849;}.cls-39{fill:#454949;}.cls-40{fill:#464a4a;}.cls-41{fill:#474b4b;}.cls-42{fill:#474c4c;}.cls-43{fill:#484d4d;}.cls-44{fill:#494e4e;}.cls-45{fill:#4a4e4e;}.cls-46{fill:#4a4f4f;}.cls-47{fill:#4b5050;}.cls-48{fill:#4c5151;}.cls-49{fill:#4c5252;}.cls-50{fill:#4d5352;}.cls-51{fill:#4e5453;}.cls-52{fill:#4e5454;}.cls-53{fill:#4f5555;}.cls-54{fill:#505656;}.cls-55{fill:#505756;}.cls-56{fill:#515857;}.cls-57{fill:#525858;}.cls-58{fill:#525958;}.cls-59{fill:#535a59;}.cls-60{fill:#545b5a;}.cls-61{fill:#545b5b;}.cls-62{fill:#555c5b;}.cls-63{fill:#555d5c;}.cls-64{fill:#565e5d;}.cls-65{fill:#575f5d;}.cls-66{fill:#575f5e;}.cls-67{fill:#58605f;}.cls-68{fill:#586160;}.cls-69{fill:#596160;}.cls-70{fill:#5a6261;}.cls-71{fill:#5a6362;}.cls-72{fill:#5b6462;}.cls-73{fill:#5b6463;}.cls-74{fill:#5c6563;}.cls-75{fill:#5c6664;}.cls-76{fill:#5d6765;}.cls-77{fill:#5e6866;}.cls-78{fill:#5e6967;}.cls-79{fill:#5f6967;}.cls-80{fill:#5f6a68;}.cls-81{fill:#606b69;}.cls-82{fill:#616c6a;}.cls-83{fill:#616d6a;}.cls-84{fill:#626d6b;}.cls-85{fill:#626e6c;}.cls-86{fill:#636f6c;}.cls-87{fill:#636f6d;}.cls-88{fill:#64706d;}.cls-89{fill:#64716e;}.cls-90{fill:#65716e;}.cls-91{fill:#65726f;}.cls-92{fill:#667370;}.cls-93{fill:#677471;}.cls-94{fill:#677571;}.cls-95{fill:#687572;}.cls-96{fill:#687672;}.cls-97{fill:#697673;}.cls-98{fill:#697774;}.cls-99{fill:#697874;}.cls-100{fill:#6a7875;}.cls-101{fill:#6a7975;}.cls-102{fill:#6b7a76;}.cls-103{fill:#6c7b77;}.cls-104{fill:#6c7c78;}.cls-105{fill:#6d7d78;}.cls-106{fill:#6d7d79;}.cls-107{fill:#6e7e7a;}.cls-108{fill:#6e7f7a;}.cls-109{fill:#6f7f7b;}.cls-110{fill:#6f807b;}.cls-111{fill:#6f807c;}.cls-112{fill:#70817c;}.cls-113{fill:#70827d;}.cls-114{fill:#71827d;}.cls-115{fill:#71837e;}.cls-116{fill:#72847f;}.cls-117{fill:#72857f;}.cls-118{fill:#738580;}.cls-119{fill:#738680;}.cls-120{fill:#738781;}.cls-121{fill:#748781;}.cls-122{fill:#748882;}.cls-123{fill:#758883;}.cls-124{fill:#758983;}.cls-125{fill:#758a84;}.cls-126{fill:#768a84;}.cls-127{fill:#768b85;}.cls-128{fill:#778b85;}.cls-129{fill:#778c86;}.cls-130{fill:#778d86;}.cls-131{fill:#788d87;}.cls-132{fill:#788e87;}.cls-133{fill:#788e88;}.cls-134{fill:#798f88;}.cls-135{fill:#799089;}.cls-136{fill:#7a9089;}.cls-137{fill:#7a918a;}.cls-138{fill:#7a928a;}.cls-139{fill:#7b928b;}.cls-140{fill:#7b938b;}.cls-141{fill:#7b938c;}.cls-142{fill:#7c948c;}.cls-143{fill:#7c958d;}.cls-144{fill:#7d958d;}.cls-145{fill:#7d968e;}.cls-146{fill:#7e978f;}.cls-147{fill:#7e988f;}.cls-148{fill:#7e9890;}.cls-149{fill:#7f9990;}.cls-150{fill:#7f9991;}.cls-151{fill:#7f9a91;}.cls-152{fill:#809b92;}.cls-153{fill:#809c93;}.cls-154{fill:#819d93;}.cls-155{fill:#819d94;}.cls-156{fill:#819e94;}.cls-157{fill:#829e95;}.cls-158{fill:#829f95;}.cls-159{fill:#82a096;}.cls-160{fill:#83a096;}.cls-161{fill:#83a197;}.cls-162{fill:#84a298;}.cls-163{fill:#84a398;}.cls-164{fill:#84a399;}.cls-165{fill:#85a499;}.cls-166{fill:#85a49a;}.cls-167{fill:#85a59a;}.cls-168{fill:#86a69b;}.cls-169{fill:#86a79c;}.cls-170{fill:#87a79c;}.cls-171{fill:#87a89d;}.cls-172{fill:#87a99d;}.cls-173{fill:#87a99e;}.cls-174{fill:#88aa9e;}.cls-175{fill:#88ab9f;}.cls-176{fill:#89ac9f;}.cls-177{fill:#89aca0;}.cls-178{fill:#89ada0;}.cls-179{fill:#89ada1;}.cls-180{fill:#8aaea1;}.cls-181{fill:#8aaea2;}.cls-182{fill:#8aafa2;}.cls-183{fill:#8ab0a3;}.cls-184{fill:#8bb0a3;}.cls-185{fill:#8bb1a3;}.cls-186{fill:#8bb1a4;}.cls-187{fill:#8bb2a4;}.cls-188{fill:#8cb2a5;}.cls-189{fill:#8cb3a5;}.cls-190{fill:#8cb4a6;}.cls-191{fill:#8db5a6;}.cls-192{fill:#8db5a7;}.cls-193{fill:#8db6a7;}.cls-194{fill:#8db7a8;}.cls-195{fill:#8eb7a8;}.cls-196{fill:#8eb8a9;}.cls-197{fill:#8eb9a9;}.cls-198{fill:#8eb9aa;}.cls-199{fill:#8ebaaa;}.cls-200{fill:#8fbaab;}.cls-201{fill:#8fbbab;}.cls-202{fill:#8fbcab;}.cls-203{fill:#8fbcac;}.cls-204{fill:#8fbdac;}.cls-205{fill:#90bead;}.cls-206{fill:#90bfae;}.cls-207{fill:#90c0ae;}.cls-208{fill:#90c0af;}.cls-209{fill:#91c1af;}.cls-210{fill:#91c2b0;}.cls-211{fill:#91c3b0;}.cls-212{fill:#91c3b1;}.cls-213{fill:#91c4b1;}.cls-214{fill:#92c5b2;}.cls-215{fill:#92c6b2;}.cls-216{fill:#92c6b3;}.cls-217{fill:#92c7b3;}.cls-218{fill:#92c8b4;}.cls-219{fill:#92c9b4;}.cls-220{fill:#92c9b5;}.cls-221{fill:#92cab5;}.cls-222{fill:#93cab5;}.cls-223{fill:#93cbb6;}.cls-224{fill:#93ccb6;}.cls-225{fill:#93ccb7;}.cls-226{fill:#93cdb7;}.cls-227{fill:#93ceb8;}.cls-228{fill:#94cfb8;}.cls-229{fill:#94cfb9;}.cls-230{fill:#94d0ba;}.cls-231{fill:#95d1ba;}</style></defs><title>Recurso 15</title><g id="Capa_2" data-name="Capa 2"><g id="älmera"><circle class="cls-1" cx="77.04" cy="77.04" r="77.04"/><circle class="cls-2" cx="76.75" cy="77.04" r="72.93"/><circle class="cls-3" cx="76.75" cy="77.04" r="72.9"/><circle class="cls-4" cx="76.75" cy="77.03" r="72.87"/><circle class="cls-5" cx="76.76" cy="77.03" r="72.83"/><circle class="cls-6" cx="76.76" cy="77.03" r="72.8"/><circle class="cls-7" cx="76.76" cy="77.03" r="72.76"/><circle class="cls-8" cx="76.76" cy="77.03" r="72.73"/><circle class="cls-9" cx="76.77" cy="77.03" r="72.7"/><circle class="cls-10" cx="76.77" cy="77.02" r="72.66"/><circle class="cls-11" cx="76.77" cy="77.02" r="72.63"/><circle class="cls-12" cx="76.77" cy="77.02" r="72.59"/><circle class="cls-13" cx="76.78" cy="77.02" r="72.56"/><circle class="cls-14" cx="76.78" cy="77.02" r="72.53"/><circle class="cls-15" cx="76.78" cy="77.02" r="72.49"/><circle class="cls-16" cx="76.78" cy="77.01" r="72.46"/><circle class="cls-17" cx="76.79" cy="77.01" r="72.42"/><circle class="cls-18" cx="76.79" cy="77.01" r="72.39"/><circle class="cls-19" cx="76.79" cy="77.01" r="72.36"/><circle class="cls-20" cx="76.79" cy="77.01" r="72.32"/><circle class="cls-21" cx="76.8" cy="77.01" r="72.29"/><circle class="cls-22" cx="76.8" cy="77" r="72.25"/><circle class="cls-23" cx="76.8" cy="77" r="72.22"/><circle class="cls-24" cx="76.81" cy="77" r="72.18"/><circle class="cls-25" cx="76.81" cy="77" r="72.15"/><circle class="cls-26" cx="76.81" cy="77" r="72.12"/><circle class="cls-27" cx="76.81" cy="77" r="72.08"/><circle class="cls-28" cx="76.82" cy="76.99" r="72.05"/><circle class="cls-29" cx="76.82" cy="76.99" r="72.01"/><circle class="cls-30" cx="76.82" cy="76.99" r="71.98"/><circle class="cls-31" cx="76.82" cy="76.99" r="71.95"/><circle class="cls-32" cx="76.83" cy="76.99" r="71.91"/><circle class="cls-33" cx="76.83" cy="76.99" r="71.88"/><circle class="cls-34" cx="76.83" cy="76.98" r="71.84"/><circle class="cls-35" cx="76.83" cy="76.98" r="71.81"/><circle class="cls-36" cx="76.84" cy="76.98" r="71.78"/><circle class="cls-37" cx="76.84" cy="76.98" r="71.74"/><circle class="cls-38" cx="76.84" cy="76.98" r="71.71"/><circle class="cls-39" cx="76.84" cy="76.98" r="71.67"/><circle class="cls-40" cx="76.85" cy="76.97" r="71.64"/><circle class="cls-41" cx="76.85" cy="76.97" r="71.61"/><circle class="cls-42" cx="76.85" cy="76.97" r="71.57"/><circle class="cls-43" cx="76.86" cy="76.97" r="71.54"/><circle class="cls-44" cx="76.86" cy="76.97" r="71.5"/><circle class="cls-45" cx="76.86" cy="76.97" r="71.47"/><circle class="cls-46" cx="76.86" cy="76.96" r="71.44"/><circle class="cls-47" cx="76.87" cy="76.96" r="71.4"/><circle class="cls-48" cx="76.87" cy="76.96" r="71.37"/><circle class="cls-49" cx="76.87" cy="76.96" r="71.33"/><circle class="cls-50" cx="76.87" cy="76.96" r="71.3"/><circle class="cls-51" cx="76.88" cy="76.96" r="71.26"/><circle class="cls-52" cx="76.88" cy="76.95" r="71.23"/><circle class="cls-53" cx="76.88" cy="76.95" r="71.2"/><circle class="cls-54" cx="76.88" cy="76.95" r="71.16"/><circle class="cls-55" cx="76.89" cy="76.95" r="71.13"/><circle class="cls-56" cx="76.89" cy="76.95" r="71.09"/><circle class="cls-57" cx="76.89" cy="76.95" r="71.06"/><circle class="cls-58" cx="76.9" cy="76.94" r="71.03"/><circle class="cls-59" cx="76.9" cy="76.94" r="70.99"/><circle class="cls-60" cx="76.9" cy="76.94" r="70.96"/><circle class="cls-61" cx="76.9" cy="76.94" r="70.92"/><circle class="cls-62" cx="76.91" cy="76.94" r="70.89"/><circle class="cls-63" cx="76.91" cy="76.94" r="70.86"/><circle class="cls-64" cx="76.91" cy="76.93" r="70.82"/><circle class="cls-65" cx="76.91" cy="76.93" r="70.79"/><circle class="cls-66" cx="76.92" cy="76.93" r="70.75"/><circle class="cls-67" cx="76.92" cy="76.93" r="70.72"/><circle class="cls-68" cx="76.92" cy="76.93" r="70.69"/><circle class="cls-69" cx="76.92" cy="76.93" r="70.65"/><circle class="cls-70" cx="76.93" cy="76.92" r="70.62"/><circle class="cls-71" cx="76.93" cy="76.92" r="70.58"/><circle class="cls-72" cx="76.93" cy="76.92" r="70.55"/><circle class="cls-73" cx="76.93" cy="76.92" r="70.52"/><circle class="cls-74" cx="76.94" cy="76.92" r="70.48"/><circle class="cls-75" cx="76.94" cy="76.92" r="70.45"/><circle class="cls-76" cx="76.94" cy="76.91" r="70.41"/><circle class="cls-76" cx="76.95" cy="76.91" r="70.38"/><circle class="cls-77" cx="76.95" cy="76.91" r="70.34"/><circle class="cls-78" cx="76.95" cy="76.91" r="70.31"/><circle class="cls-79" cx="76.95" cy="76.91" r="70.28"/><circle class="cls-80" cx="76.96" cy="76.91" r="70.24"/><circle class="cls-81" cx="76.96" cy="76.9" r="70.21"/><circle class="cls-81" cx="76.96" cy="76.9" r="70.17"/><circle class="cls-82" cx="76.96" cy="76.9" r="70.14"/><circle class="cls-83" cx="76.97" cy="76.9" r="70.11"/><circle class="cls-84" cx="76.97" cy="76.9" r="70.07"/><circle class="cls-85" cx="76.97" cy="76.9" r="70.04"/><circle class="cls-86" cx="76.97" cy="76.9" r="70"/><circle class="cls-87" cx="76.98" cy="76.89" r="69.97"/><circle class="cls-88" cx="76.98" cy="76.89" r="69.94"/><circle class="cls-89" cx="76.98" cy="76.89" r="69.9"/><circle class="cls-90" cx="76.98" cy="76.89" r="69.87"/><circle class="cls-91" cx="76.99" cy="76.89" r="69.83"/><circle class="cls-92" cx="76.99" cy="76.89" r="69.8"/><circle class="cls-92" cx="76.99" cy="76.88" r="69.77"/><circle class="cls-93" cx="77" cy="76.88" r="69.73"/><circle class="cls-94" cx="77" cy="76.88" r="69.7"/><circle class="cls-95" cx="77" cy="76.88" r="69.66"/><circle class="cls-96" cx="77" cy="76.88" r="69.63"/><circle class="cls-97" cx="77.01" cy="76.88" r="69.59"/><circle class="cls-98" cx="77.01" cy="76.87" r="69.56"/><circle class="cls-99" cx="77.01" cy="76.87" r="69.53"/><circle class="cls-100" cx="77.01" cy="76.87" r="69.49"/><circle class="cls-101" cx="77.02" cy="76.87" r="69.46"/><circle class="cls-102" cx="77.02" cy="76.87" r="69.42"/><circle class="cls-102" cx="77.02" cy="76.87" r="69.39"/><circle class="cls-103" cx="77.02" cy="76.86" r="69.36"/><circle class="cls-103" cx="77.03" cy="76.86" r="69.32"/><circle class="cls-104" cx="77.03" cy="76.86" r="69.29"/><circle class="cls-105" cx="77.03" cy="76.86" r="69.25"/><circle class="cls-106" cx="77.04" cy="76.86" r="69.22"/><circle class="cls-107" cx="77.04" cy="76.86" r="69.19"/><circle class="cls-108" cx="77.04" cy="76.85" r="69.15"/><circle class="cls-109" cx="77.04" cy="76.85" r="69.12"/><circle class="cls-110" cx="77.05" cy="76.85" r="69.08"/><circle class="cls-111" cx="77.05" cy="76.85" r="69.05"/><circle class="cls-112" cx="77.05" cy="76.85" r="69.02"/><circle class="cls-113" cx="77.05" cy="76.85" r="68.98"/><circle class="cls-114" cx="77.06" cy="76.84" r="68.95"/><circle class="cls-115" cx="77.06" cy="76.84" r="68.91"/><circle class="cls-115" cx="77.06" cy="76.84" r="68.88"/><circle class="cls-116" cx="77.06" cy="76.84" r="68.85"/><circle class="cls-117" cx="77.07" cy="76.84" r="68.81"/><circle class="cls-118" cx="77.07" cy="76.84" r="68.78"/><circle class="cls-119" cx="77.07" cy="76.83" r="68.74"/><circle class="cls-120" cx="77.07" cy="76.83" r="68.71"/><circle class="cls-121" cx="77.08" cy="76.83" r="68.67"/><circle class="cls-122" cx="77.08" cy="76.83" r="68.64"/><circle class="cls-123" cx="77.08" cy="76.83" r="68.61"/><circle class="cls-124" cx="77.09" cy="76.83" r="68.57"/><circle class="cls-125" cx="77.09" cy="76.82" r="68.54"/><circle class="cls-126" cx="77.09" cy="76.82" r="68.5"/><circle class="cls-127" cx="77.09" cy="76.82" r="68.47"/><circle class="cls-128" cx="77.1" cy="76.82" r="68.44"/><circle class="cls-129" cx="77.1" cy="76.82" r="68.4"/><circle class="cls-130" cx="77.1" cy="76.82" r="68.37"/><circle class="cls-131" cx="77.1" cy="76.81" r="68.33"/><circle class="cls-132" cx="77.11" cy="76.81" r="68.3"/><circle class="cls-133" cx="77.11" cy="76.81" r="68.27"/><circle class="cls-134" cx="77.11" cy="76.81" r="68.23"/><circle class="cls-135" cx="77.11" cy="76.81" r="68.2"/><circle class="cls-136" cx="77.12" cy="76.81" r="68.16"/><circle class="cls-137" cx="77.12" cy="76.8" r="68.13"/><circle class="cls-138" cx="77.12" cy="76.8" r="68.1"/><circle class="cls-139" cx="77.13" cy="76.8" r="68.06"/><circle class="cls-140" cx="77.13" cy="76.8" r="68.03"/><circle class="cls-141" cx="77.13" cy="76.8" r="67.99"/><circle class="cls-142" cx="77.13" cy="76.8" r="67.96"/><circle class="cls-143" cx="77.14" cy="76.79" r="67.93"/><circle class="cls-144" cx="77.14" cy="76.79" r="67.89"/><circle class="cls-145" cx="77.14" cy="76.79" r="67.86"/><circle class="cls-145" cx="77.14" cy="76.79" r="67.82"/><circle class="cls-146" cx="77.15" cy="76.79" r="67.79"/><circle class="cls-147" cx="77.15" cy="76.79" r="67.75"/><circle class="cls-148" cx="77.15" cy="76.78" r="67.72"/><circle class="cls-149" cx="77.15" cy="76.78" r="67.69"/><circle class="cls-150" cx="77.16" cy="76.78" r="67.65"/><circle class="cls-151" cx="77.16" cy="76.78" r="67.62"/><circle class="cls-152" cx="77.16" cy="76.78" r="67.58"/><circle class="cls-152" cx="77.16" cy="76.78" r="67.55"/><circle class="cls-153" cx="77.17" cy="76.77" r="67.52"/><circle class="cls-154" cx="77.17" cy="76.77" r="67.48"/><circle class="cls-155" cx="77.17" cy="76.77" r="67.45"/><circle class="cls-156" cx="77.18" cy="76.77" r="67.41"/><circle class="cls-157" cx="77.18" cy="76.77" r="67.38"/><circle class="cls-158" cx="77.18" cy="76.77" r="67.35"/><circle class="cls-159" cx="77.18" cy="76.76" r="67.31"/><circle class="cls-160" cx="77.19" cy="76.76" r="67.28"/><circle class="cls-161" cx="77.19" cy="76.76" r="67.24"/><circle class="cls-161" cx="77.19" cy="76.76" r="67.21"/><circle class="cls-162" cx="77.19" cy="76.76" r="67.18"/><circle class="cls-163" cx="77.2" cy="76.76" r="67.14"/><circle class="cls-164" cx="77.2" cy="76.75" r="67.11"/><circle class="cls-165" cx="77.2" cy="76.75" r="67.07"/><circle class="cls-166" cx="77.2" cy="76.75" r="67.04"/><circle class="cls-167" cx="77.21" cy="76.75" r="67"/><circle class="cls-168" cx="77.21" cy="76.75" r="66.97"/><circle class="cls-168" cx="77.21" cy="76.75" r="66.94"/><circle class="cls-169" cx="77.21" cy="76.74" r="66.9"/><circle class="cls-170" cx="77.22" cy="76.74" r="66.87"/><circle class="cls-171" cx="77.22" cy="76.74" r="66.83"/><circle class="cls-172" cx="77.22" cy="76.74" r="66.8"/><circle class="cls-173" cx="77.23" cy="76.74" r="66.77"/><circle class="cls-174" cx="77.23" cy="76.74" r="66.73"/><circle class="cls-174" cx="77.23" cy="76.73" r="66.7"/><circle class="cls-175" cx="77.23" cy="76.73" r="66.66"/><circle class="cls-176" cx="77.24" cy="76.73" r="66.63"/><circle class="cls-177" cx="77.24" cy="76.73" r="66.6"/><circle class="cls-178" cx="77.24" cy="76.73" r="66.56"/><circle class="cls-179" cx="77.24" cy="76.73" r="66.53"/><circle class="cls-180" cx="77.25" cy="76.72" r="66.49"/><circle class="cls-181" cx="77.25" cy="76.72" r="66.46"/><circle class="cls-182" cx="77.25" cy="76.72" r="66.43"/><circle class="cls-183" cx="77.25" cy="76.72" r="66.39"/><circle class="cls-184" cx="77.26" cy="76.72" r="66.36"/><circle class="cls-185" cx="77.26" cy="76.72" r="66.32"/><circle class="cls-186" cx="77.26" cy="76.71" r="66.29"/><circle class="cls-187" cx="77.27" cy="76.71" r="66.26"/><circle class="cls-188" cx="77.27" cy="76.71" r="66.22"/><circle class="cls-189" cx="77.27" cy="76.71" r="66.19"/><circle class="cls-189" cx="77.27" cy="76.71" r="66.15"/><circle class="cls-190" cx="77.28" cy="76.71" r="66.12"/><circle class="cls-191" cx="77.28" cy="76.7" r="66.08"/><circle class="cls-192" cx="77.28" cy="76.7" r="66.05"/><circle class="cls-193" cx="77.28" cy="76.7" r="66.02"/><circle class="cls-193" cx="77.29" cy="76.7" r="65.98"/><circle class="cls-194" cx="77.29" cy="76.7" r="65.95"/><circle class="cls-195" cx="77.29" cy="76.7" r="65.91"/><circle class="cls-196" cx="77.29" cy="76.69" r="65.88"/><circle class="cls-196" cx="77.3" cy="76.69" r="65.85"/><circle class="cls-197" cx="77.3" cy="76.69" r="65.81"/><circle class="cls-198" cx="77.3" cy="76.69" r="65.78"/><circle class="cls-199" cx="77.3" cy="76.69" r="65.74"/><circle class="cls-200" cx="77.31" cy="76.69" r="65.71"/><circle class="cls-201" cx="77.31" cy="76.68" r="65.68"/><circle class="cls-202" cx="77.31" cy="76.68" r="65.64"/><circle class="cls-203" cx="77.32" cy="76.68" r="65.61"/><circle class="cls-204" cx="77.32" cy="76.68" r="65.57"/><circle class="cls-204" cx="77.32" cy="76.68" r="65.54"/><circle class="cls-205" cx="77.32" cy="76.68" r="65.51"/><circle class="cls-205" cx="77.33" cy="76.67" r="65.47"/><circle class="cls-206" cx="77.33" cy="76.67" r="65.44"/><circle class="cls-206" cx="77.33" cy="76.67" r="65.4"/><circle class="cls-207" cx="77.33" cy="76.67" r="65.37"/><circle class="cls-208" cx="77.34" cy="76.67" r="65.34"/><circle class="cls-209" cx="77.34" cy="76.67" r="65.3"/><circle class="cls-209" cx="77.34" cy="76.66" r="65.27"/><circle class="cls-210" cx="77.34" cy="76.66" r="65.23"/><circle class="cls-210" cx="77.35" cy="76.66" r="65.2"/><circle class="cls-211" cx="77.35" cy="76.66" r="65.16"/><circle class="cls-212" cx="77.35" cy="76.66" r="65.13"/><circle class="cls-213" cx="77.36" cy="76.66" r="65.1"/><circle class="cls-213" cx="77.36" cy="76.65" r="65.06"/><circle class="cls-214" cx="77.36" cy="76.65" r="65.03"/><circle class="cls-214" cx="77.36" cy="76.65" r="64.99"/><circle class="cls-215" cx="77.37" cy="76.65" r="64.96"/><circle class="cls-216" cx="77.37" cy="76.65" r="64.93"/><circle class="cls-217" cx="77.37" cy="76.65" r="64.89"/><circle class="cls-217" cx="77.37" cy="76.64" r="64.86"/><circle class="cls-218" cx="77.38" cy="76.64" r="64.82"/><circle class="cls-218" cx="77.38" cy="76.64" r="64.79"/><circle class="cls-219" cx="77.38" cy="76.64" r="64.76"/><circle class="cls-220" cx="77.38" cy="76.64" r="64.72"/><circle class="cls-221" cx="77.39" cy="76.64" r="64.69"/><circle class="cls-222" cx="77.39" cy="76.64" r="64.65"/><circle class="cls-223" cx="77.39" cy="76.63" r="64.62"/><circle class="cls-223" cx="77.39" cy="76.63" r="64.59"/><circle class="cls-224" cx="77.4" cy="76.63" r="64.55"/><circle class="cls-225" cx="77.4" cy="76.63" r="64.52"/><circle class="cls-226" cx="77.4" cy="76.63" r="64.48"/><circle class="cls-226" cx="77.41" cy="76.63" r="64.45"/><circle class="cls-227" cx="77.41" cy="76.62" r="64.41"/><circle class="cls-228" cx="77.41" cy="76.62" r="64.38"/><circle class="cls-229" cx="77.41" cy="76.62" r="64.35"/><circle class="cls-230" cx="77.42" cy="76.62" r="64.31"/><circle class="cls-231" cx="77.42" cy="76.62" r="64.28"/><circle class="cls-1" cx="77.42" cy="76.62" r="64.24"/><path class="cls-2" d="M114.46,50.73c-1.39-1.55-3.47-2.16-5.48-2.88A14.38,14.38,0,0,1,114.16,50l.19-.19-1.75-1.46.71.24,0-.07-1.54-.94,0-.06,1,.35.11-.16c-1.11-.63-2.2-1.28-3.33-1.88s-2-1-1.88-2.14a.93.93,0,0,0-.15-.43c-.25-.48-.51-1-.77-1.44a12.48,12.48,0,0,1,2.29,1.52c.67.58,1.23,1.25,1.84,1.89a9.39,9.39,0,0,0-4.62-4,14.81,14.81,0,0,1,6.08,2.59l.14-.13L108.67,41l.26,0,0-.13a30.13,30.13,0,0,0-3.07-1.07C104,39.3,102,38.91,100,38.55c-1.23-.22-2.49-.32-3.73-.47l0-.2,1.19.06-.56-.18,0-.13,2.72.44,0-.13-2.85-.61,0-.15,4,.66a12,12,0,0,0-5.08-.73,2.55,2.55,0,0,1,.52-.21,13.16,13.16,0,0,1,4.92.37c.56.15,1.15.19,1.91.32a4.53,4.53,0,0,0-2.35-.87l-2.74-.14,0-.24,2.7.36-.34-.25,0-.12,3.62.79.09-.16a14.7,14.7,0,0,0-1.9-.75,16.08,16.08,0,0,0-2.21-.27v-.18c.73,0,1.46,0,2.18.12a11.2,11.2,0,0,0,1.65.33,5.38,5.38,0,0,1,2.2.46.66.66,0,0,0,.21,0l-.28-.29a4.27,4.27,0,0,1,.8.19c.57.13,1.15.24,1.72.35h0l.47.14a10.17,10.17,0,0,0-5.65-1.92c2.39-.22,4.39.71,6.39,1.62l.09-.16-2.89-1.34.09-.14,3.39,1.36-1-.68.09-.11,2,.94.1-.14-2-1.15,0-.06,2,.79c-.35-.79-1.27-.76-1.89-1.15l1.56.44-.29-.47a13.22,13.22,0,0,1,4.66,1.36,10.68,10.68,0,0,0-6.06-1.66v-.19l3.17-.22-9.53-.48v-.1l.47,0-2.18-.11,0-.1,2.07-.3a5.14,5.14,0,0,0-.59-.06c-2.16.1-4.33.18-6.5.32a6.19,6.19,0,0,0-1.82.42,4.46,4.46,0,0,0-1,.79l-.15-.1,1-1-.46-.16h0l-1-1.06,2.73-.67-1.21-.2.67-.27v-.05L93,31.4l0-.16,6-1.54v-.06c-.9.07-2.73.13-2.74.09l2.36-.39-.21-.12,2.61-.46-.37-.18,2.16-.31-1.6-.08V28l2.6-.09v-.08l-2.14,0a12.49,12.49,0,0,1,4.72-.16,12.47,12.47,0,0,0-6.64.29l-.08-.13,4.12-2.38-.1-.12-3.21,1.55L102,25.39l-.12-.1L99.49,26.7a11.93,11.93,0,0,1,.85-1c.08-.1,0-.26,0-.39-.16,0-.36,0-.46.06-.81.55-1.59,1.11-2.38,1.67l-.1,0c.48-.56,1-1.12,1.43-1.67l-.2-.13-2,1.8.68-1.25-.17-.08-.79.88-.11-.06.41-.59-.15-.08-1.11,1.13,0-.53L94.34,27.5c0-.26.08-.4.13-.6l-.37.21,0-.22a6.31,6.31,0,0,1-1.1.62,1.3,1.3,0,0,0-.87.85c-.19.42-.43.84-.64,1.25h-.08c.13-.47.26-.94.4-1.41l-.22-.08c-.35.46-.69.93-1.07,1.42,0-.4,0-.76.06-1.12a8.78,8.78,0,0,0-.84,1.75c-.23.6-.45,1.2-.67,1.8l-.14,0,.42-2.8h-.16l-.87,1.41-.16,0-.11-1c-.47,1-.87,1.95-1.28,2.86l-.22-.05c0-.4,0-.81.07-1.32l-1.16,1.81L85.05,32c0,.66-.42,1-1.2,1-.07,0-.14.08-.22.12l-1.18.64-.12-.1,1.15-1-.06,0c-.36.22-.72.44-1.09.65l-.1-.1,1.41-1L83.52,32l-.63.14.74-.69-.11-.13-1,.35-.15-.14L84,30.47l-.1-.1-1.41.92,0-.05,1.64-1.46-.12-.1-1.51,1.07-.14-.11,2.17-1.95-.12-.1L83,29.81l-.23-.16,2-2.55-.5.17c.86-1.94,1.72-3.85,2.58-5.77l-.16-.1c-1.55,1.18-2.67,2.69-4.14,4l1.52-1.92-.29-.09c.55-.81,1.06-1.58,1.6-2.34.18-.25.43-.47.64-.71,0,0,0-.1,0-.16l-.47.26a2,2,0,0,1,.32-.62,1,1,0,0,0,.07-.29,1.35,1.35,0,0,0-.36.07c-.09,0-.14.13-.23.23l0-.53-.2-.11c-.46.66-.92,1.32-1.44,2.05.07-1.26.13-2.42.18-3.58l-.23,0-.36,3c-.14-.48-.35-1.22-.57-2l-.29,0c0,.9.07,1.8.1,2.55-.1-.21-.24-.58-.44-.93s-.44-.63-.66-.94l-.18.07c.07.51.13,1,.2,1.59l-.27-.34-.33.44-.46-.77-.52.31-.08-.06c.22-.34.45-.67.68-1l-.15-.09L78,21.7l-.09-.06,2.21-2.7L80,18.86l-1.24,1.28-.08,0L80.29,18l-.13-.08L78,20.34l-.1-.06,1.57-2.12-.11-.06-1.19,1.28-.1-.05,1.33-2-.12-.06-2.1,2.82-.1-.05c.64-1.54,1.29-3.07,1.93-4.61l-.15,0c-.65,1.36-1.29,2.73-1.94,4.09l-.06,0,.57-5.37-.24,0A22.17,22.17,0,0,0,76.37,20l-1.7-3.64-.16.05c.57,1.32,1.13,2.65,1.74,4.09l-1.73-1.89-.18.08.93,1.52-.12.06-1.86-2.48-.12.07,1.59,2.51-.15.06-.93-.95-.16.09.67,1.1-.66,0,2.35,4.23-.15.07c-.49-.63-1-1.26-1.48-1.92-.35,1.84,1.2,3.23,1.46,4.9l-1.32-2.4-.13,0c.28.81.57,1.62.9,2.55l-.67-.28c.15.4.28.72.39,1l-.61.17.33.46-.21.12-.66-.79c-.41.27-.49,0-.54-.38-.09-.69-.25-1.39-.37-2.08l-.13,0v1.12h-.07c-.17-.7-.35-1.4-.52-2.11H72v.89l-.27,0c-.1-.27-.21-.55-.29-.82-.31-1.06-.61-2.11-.92-3.16l-.17,0a21.05,21.05,0,0,1,.53,3.58h-.17c-.17-1-.33-2-.5-3h-.16c0,.52,0,1,.07,1.66l-1.33-3.44-.21,0c0,.75.11,1.49.16,2.23h0L68,21l-.14,0c.11.64.23,1.29.36,2-.53-1.26-1-2.4-1.51-3.54l-.17,0L67.08,22,67,22c-.4-1-.8-2-1.19-2.94l-.14,0,.49,2,0,0-1.2-2-.16.06c.57,1.13,1.12,2.27,1.71,3.39a17.24,17.24,0,0,0,1.09,1.85c.66.92,1.48,1.78,2.06,2.74,1.22,2,2.34,4.09,3.5,6.13.18.32.33.63-.14.88a2.37,2.37,0,0,0-.35-.42,8.81,8.81,0,0,0-2.47-1.24,2.81,2.81,0,0,1-1.21-.76c-.7-.76-1.24-1.63-2-2.36a49.28,49.28,0,0,0-5.42-4.82,12.65,12.65,0,0,0-4.12-2.19c-.22-.06-.45-.32-.6-.28-.51.14-.75-.16-1.06-.36l-.17-.08,0,.36-.93-.46a13.29,13.29,0,0,0,1.53,1.15c.51.35,1,.71,1.49,1.09s.9.77,1.36,1.16a13.85,13.85,0,0,0-6.79-1.44l4.48.74,0,.1-2.38.21v.16a6.88,6.88,0,0,1,4.84.62l-2.28.38,0,0,2.95,0v.18a4.75,4.75,0,0,0-3.57.81l2.42-.7.05.12-1.06.48,2.82-.37,0,.11L58.28,27l.08.18,1.12-.2-.19.22,2.47-.31,0,.1-2.22.41.06.18a4.31,4.31,0,0,1,2.28-.26l-2.12.54.06.17c1.27-.07,2.56-.62,3.81.12a4,4,0,0,0-3.43.39l3.19-.31v.09l-2.15.51,0,.15,1.61-.08c-.09.14-.15.21-.23.32l1.76,0-1.37.34,0,.16a3.18,3.18,0,0,1,3.24.52,3.89,3.89,0,0,0-2.8-.21c.31,0,.62,0,.93-.06s.55,0,.82,0l0,.09-.73.19.06.12,2.08.24,0,.19a8.89,8.89,0,0,1-1.8-.11A16,16,0,0,0,59.63,30a5.78,5.78,0,0,0-.57.12,12.58,12.58,0,0,1-1.47.26c-.73,0-1.46,0-2.18,0a4.66,4.66,0,0,0-1,.24l0,.16,3.36.17-2.11.66.06.19a5,5,0,0,1,3.63-.32l-.46.44c.3,0,.66,0,1,.06s.52.15.53.24c0,.47.48.46.89.54l-.27.6a5.16,5.16,0,0,1,1.09-.45,2.42,2.42,0,0,1,.79.2c-.28.3.1.22.24.27s.39.14.66.23h-.71l2.6.77,0,.14-1.12-.29-.07.15,1.34.53-.63.18,1.51.67-1,.1,0,.2h.7c.38.66,1.28.59,1.82,1l-.35.07,1.58.45-.07.21-2.38-.53,3.59,2c-.74-.24-1.66.13-2.25-.51a1.81,1.81,0,0,0-.47-.4c-.79-.47-1.57-1-2.4-1.38-1.75-.89-3.46-1.86-5.3-2.58a28.4,28.4,0,0,0-8.35-1.88c-2.4-.18-4.82-.12-7.23-.13a8.4,8.4,0,0,0-1.39.23l0,.14.9-.09,0,.08-1.6.54.07.16,2-.66,0,.08-.37.34a10,10,0,0,0,1.4-.24c.41-.07.85-.07,1.45-.11l-.47.44c.48,0,.86,0,1.22-.07s.79-.16,1.26-.27l-.8.55,2.71-.29,0,.15-.68.39,2.78-.68,0,.07-.91.44c1.2.59,2.37-.47,3.7,0-1.47.23-1.47.23-1.35.65.89-.29,1.44-.24,1.6.12l1-.23,0,.1-.23.14.5.1-1,.45c2.55-.32,3-.32,3.37,0l-1.79.31,0,.21a2.41,2.41,0,0,0,.63.15c.87,0,1.74,0,2.61-.07-1.49.51-1.49.51-1.56.69l2.91,0a1,1,0,0,1-.47.34c-.34.14-.69.26-1,.39h0c-.81.08-1.63.17-2.44.23a2.43,2.43,0,0,1-.62-.15,2.05,2.05,0,0,0-.48-.1c-.78,0-1.55.08-2.32.06a17.81,17.81,0,0,0-7.31,1.21,12.23,12.23,0,0,0-4.22,2.55l4.52-2.24.24.22a2.57,2.57,0,0,1-.5.54,5.77,5.77,0,0,0-2.47,3.4,9.93,9.93,0,0,1,2.79-3.32c-.08.33-.18.6-.22.88s0,.55,0,1c.58-1.05.41-2.3,2-2.73A2.44,2.44,0,0,0,50.57,41a8.59,8.59,0,0,1-.19-1.37,7.1,7.1,0,0,1,.2-1.18l.21,0c0,.47,0,1-.08,1.43h.1c.16-.62.33-1.23.49-1.85l.18,0A3,3,0,0,0,52,40.6a9.51,9.51,0,0,0-.08-1.19,2.13,2.13,0,0,1,0-.83,1.13,1.13,0,0,1,.58-.51c.06,0,.4.23.5.39a5.74,5.74,0,0,1,.34.9l.13,0c0-.17,0-.34,0-.66l.56.67-.12-1,.22-.08.72,1,.1,0c-.06-.34-.13-.69-.2-1l.1,0,.46.87h.14l0-1,.68,1.16.16,0c0-.28,0-.56,0-.79.58-.32.82,0,1,.36l.61-.13-.49-.13c.05-.13.06-.34.15-.37a2.29,2.29,0,0,1,.64.07c.36-.34.63-.33.87.11l-1.19.33a9.19,9.19,0,0,0,1.48,0,10.45,10.45,0,0,1,5,.46L61.6,39A13.63,13.63,0,0,1,67,40.14a15.94,15.94,0,0,0-6.07-.5l1.3.06-.81.29a4.94,4.94,0,0,1-.8.32c-.77.19-1.55.35-2.33.52a19.31,19.31,0,0,1,4-.08L59,41.07l0,.18,2.35-.07a5.6,5.6,0,0,1-1.26.24c-1,.13-2.09.25-3.13.39a13,13,0,0,0-2.57.45c-1.68.65-3.29,1.43-4.91,2.18a7.84,7.84,0,0,0-1,.68l.08.08.86-.49,0,.06-1.28,1.36c.89-.3,1.64-.73,2.46-1.05s1.74-.52,2.61-.78l.1.2c-.35.11-.7.21-1,.33-1.11.43-2.23.84-3.32,1.31a4.88,4.88,0,0,0-2.12,2.17,14.6,14.6,0,0,1-1,1.28L47,49a13.78,13.78,0,0,0-3.27,5.29c1.2-1.8,2.22-2.85,3.24-3.24a6.22,6.22,0,0,0-1.77,5.32c.08-.5.07-1,.15-1.51a7.82,7.82,0,0,1,.4-1.47,12.6,12.6,0,0,1,.67-1.32l.14,0-.08.24L47.31,51a3.85,3.85,0,0,0,.51,3c-.11-1.06-.54-2,0-2.89A4,4,0,0,0,48.57,54c-.26-.8-.69-1.58-.31-2.38l.67,1.3.13-.07c0-1,.1-2.09.16-3.26l.26.31.1-.28h.07c-.19,2.34-.19,2.34.12,2.53,0-.85.09-1.71.13-2.56H50c.17.5.34,1,.5,1.5A2.74,2.74,0,0,0,50.45,50a4.93,4.93,0,0,1-.09-1,4.9,4.9,0,0,1,.26-.94l1.18,2.29L52,50.3l-.46-.87.09,0,.52.54-.59-1.87.22,0c.2.35.39.7.61,1s.45.61.67.92l.17-.08-.45-1.48.17-.06.4.4.12-.51.62.92,0-.55.4.22c-.07-.27-.16-.54-.24-.82l.2,0,.41.43a2.75,2.75,0,0,1,.47-.86,1.3,1.3,0,0,0,.49-.74c.06-.23.28-.41.62-.2,0,.23.09.45.15.72,1.12-1.41,1.12-1.41,1.63-1.24l-.39.57C60,45,61.06,44.45,62.06,44.51l-1.71.74.09.14,1-.42,0,.07-.82.56.08.06.2,0-1.4,2.18.17.09.38-.42c.63-.76,1.24-1.54,1.9-2.28a2.94,2.94,0,0,1,.8-.49c.12,1,.25,1.8.33,2.65,0,.16-.08.45-.21.49a6.09,6.09,0,0,0-2.47,1.4,6.77,6.77,0,0,1-.69.44c2-.86,4.07-1.72,6.5-1.54a8.42,8.42,0,0,1-1.86.6c-.56.12-1.16.13-1.73.24a14.33,14.33,0,0,0-4.14,1.7c-.4.21-1.07.31-.94.92,0,0-.11.11-.18.15-.84.5-1.73,1-2.52,1.52a17.59,17.59,0,0,0-3.78,3.56c-.68.89-1.25,1.84-1.85,2.77-.32.5-.6,1-.9,1.53l.12,0,.39-.43-.2,1.5.17-.18L49,63.17a5.49,5.49,0,0,1,.62-3.09c0,.16.05.32.07.49h.11c0-.32,0-.63,0-1H50L50.78,62l.12,0-.58-2.58.22,0L51.18,61l0,0-.33-2.35H51l1,2.5.21-.06a5.42,5.42,0,0,1-.83-3.17c.27.91.55,1.82.82,2.73.2-.16.28-.3.26-.44,0-.46-.18-.93-.22-1.39S52.23,57.6,52.2,57h.19l.84,2.56.2,0c-.12-.54-.28-1.06-.35-1.6a5.52,5.52,0,0,1,0-1.57,7.44,7.44,0,0,1,.54-1.47l.17,0,0,.54.7-1.41.17.06-.13.89.11,0,.24-.41a8.72,8.72,0,0,0,.06,1.17,1.69,1.69,0,0,1-.62,1.9s0,.06,0,.09l1-.39.11.12L53.72,60l.13.11,1.39-1.25.16.12-1.75,1.72.29.24L54.7,60l.14.13c-.38.57-.77,1.13-1.15,1.69l.05,0,3.08-3L57,59a7.08,7.08,0,0,0-1.44,4.46,11.62,11.62,0,0,1,1.68-4.28c.13.9.27,1.83.39,2.75a1.24,1.24,0,0,1-.11.6c-.2.42-.46.81-.66,1.22a14.78,14.78,0,0,0-1.18,2.61,17.08,17.08,0,0,0-.29,3.2,6.18,6.18,0,0,0,.16,1.19h.08L55.52,68h.18c.09.27.15.54.26.8a6.23,6.23,0,0,0,.41.71l.47.69c-.23-1.26-1.33-2.37-.84-3.73l1.06,2,.17-.06-.36-.81.51.31c-.15-1-1-2-.79-3.09.39,1.43,1.23,2.58,2,2.77L58,66.31l.11,0,.87.83a4,4,0,0,0-.48-.83,22.59,22.59,0,0,1-1.23-2.19.77.77,0,0,1,.17-1c.32.77.64,1.55,1,2.32l.18,0A13.43,13.43,0,0,1,58,63.93a10.84,10.84,0,0,1-.28-1.4l.16,0c.12.53.23,1.07.35,1.61l.24,0a4.78,4.78,0,0,1-.33-.83,5,5,0,0,1-.06-.86,6.42,6.42,0,0,0,2.55,3.37A5.68,5.68,0,0,1,59,62.45l1.79,2.47.15-.08c-.49-.77-1-1.54-1.44-2.34a3.42,3.42,0,0,1-.2-2.25,5.47,5.47,0,0,0,2.25,3.49,5.88,5.88,0,0,1-1.42-4c.77.84.39,2.15,1.56,2.78l-.84-2.82.23,0c.24.69.49,1.39.73,2.09l.08,0c0-.24.06-.47.09-.82.41.55.74,1,1.06,1.42l.12-.05c-.17-.52-.34-1-.52-1.57l.13,0,.43.56a10.14,10.14,0,0,0-.32-2.17,3.64,3.64,0,0,1,0-2.14c.15.55.2,1.11.34,1.65s.36,1.06.55,1.59l.2,0c-.16-.67-.33-1.35-.49-2l.13,0,.56,1.39.07,0-.06-1.68.15,0,.54,1.34A6.1,6.1,0,0,1,65,55.83l.5,2.37.12,0-.2-3.13h.34c0,.72-.08,1.44-.11,2.16h.16l.12-.67.57,1.53.09,0c-.09-.6-.19-1.2-.28-1.81h.07l.15.35c.09-.28.15-.49.22-.72l.6,1.22c0-1.25-.28-2.47.39-3.62,0,.47-.09.92-.08,1.37a7.77,7.77,0,0,0,.28,1.32l.18,0c0-.6.07-1.2.09-1.8,0-.78,0-1.56,1.31-1.63l0,.31.38-.6.17.06c-.35,1.35-.71,2.71-1.07,4.07l.2,0c.38-1,.76-2,1.15-2.95.44,1.5.44,1.5,0,1.76v-.57H70.1c0,.62,0,1.25-.1,1.87,0,.4.23.77,0,1.19a2.2,2.2,0,0,0-.06.93h0c-.34.55-.91,1.08-1,1.65a2.69,2.69,0,0,1-.45,1.38c-.08.12-.14.24-.22.36l.16.1c.87-.94,1.51-2,2.84-2.65-1,1.2-2.4,2.22-2.94,3.71L69,62.7c-.38.92-.7,1.7-1.07,2.58l1.41-1.39.09.06c-.31.45-.61.9-.91,1.36l.13.06.4-.47a4.06,4.06,0,0,1-.35,1.28c-.4.92-.87,1.83-1.25,2.77-.5,1.19-1,2.4-1.39,3.61-.29.84-.48,1.7-.71,2.56l.23,0a2.27,2.27,0,0,1,1.22-2.26c-.55,1.65-1.6,3.19-1.56,4.84.6-1.5,1.24-3.13,1.89-4.75l.24,0c0,1.15-.11,2.3-.17,3.44l.22,0c0-.69.07-1.38.11-2.08h.15c.38.82.76,1.64,1.13,2.46,0-1.43-1.24-2.64-.9-4.12.57,1.16,1.15,2.32,1.72,3.47l.17,0c-.2-.55-.37-1.12-.61-1.66s-.65-1.21-1-1.82a5.07,5.07,0,0,1-.22-.76l.16,0,1.89,3.29.17-.06-.74-1.8.12,0c.44.63.87,1.26,1.31,1.88a.21.21,0,0,0,0-.28c-.8-1.35-1.63-2.7-2.41-4.06a2,2,0,0,1-.1-.79l.25,0,2.41,4.41a4.31,4.31,0,0,0-.37-1.65c-.57-1.11-1.23-2.19-1.84-3.29a1.63,1.63,0,0,1-.09-.45H69l3,4.35.11,0c-.49-1.18-1-2.35-1.48-3.53l.12,0,1.78,2.86.17-.06L71,69.43l.2-.06,1.27,2.4-.06-.67.58.47.07,0c-.51-1-1-1.89-1.54-2.83l.14,0,1.23,2,.21-.08c-.62-1.18-1.23-2.37-1.87-3.6,1.12.75,1.22,2,2.29,2.69L71.46,65a1.29,1.29,0,0,1,0-.48h.13l2.29,3.52L74,68l-.51-1.37.11,0,.92,1.11.12-.08-.47-1,.12-.05.49.38.08,0-1.28-2.06A11.69,11.69,0,0,1,75,66.23a.64.64,0,0,1,.1.43c-.06,2-.1,3.91-.21,5.86-.43,8.12,1.09,15.54.61,23.66-.44,7.3-.1,17.92-.54,25.23-.24,4.12-.63,6.66-1,9.6.24.35.48.71.74,1.06a6,6,0,0,1,2.3-1.64,58.1,58.1,0,0,0,.63-7.43c0-4.08.28-8.81.5-12.89.15-2.7.22-7.74.36-10.44.4-7.71-.51-18.58-.18-26.29.21-4.72-.62-3.62-.44-8.34.1-2.73.25-5.45.43-8.17A2.66,2.66,0,0,1,79.53,55a5.3,5.3,0,0,0-1.08,4.11c.22-1.2.17-2.46,1.16-3.57l.21.58h.08l0-.9a1.31,1.31,0,0,1-.23,1.71,3.66,3.66,0,0,0-1,3.31,5.15,5.15,0,0,1,1.66-3.68c.29.61.22.57-.11,1a6.35,6.35,0,0,0-1.15,2A27.11,27.11,0,0,0,78.65,63l.59-.22c-.08-.12-.25-.25-.23-.35a6.77,6.77,0,0,1,1.77-3.55c.57.82-.08,1.29-.6,1.84A5.86,5.86,0,0,0,79.43,62L81,60.11l.26.11c-.8,1.51-2.37,2.75-2.24,4.56a5.55,5.55,0,0,1,2.29-3.46c0,.44.07,1-.23,1.25a5.49,5.49,0,0,0-1.78,4.85,6.87,6.87,0,0,1,2.19-3.65c.21,1.23,0,1.43-1.1,2.41a2.26,2.26,0,0,0-.66,1.91,5.84,5.84,0,0,1,1.81-2.24c.38.52,0,.8-.28,1.11a6.58,6.58,0,0,0-1.69,3s0,0,.08.09l.3-.2L79.72,71c.75-1.5,1.25-2.91,2.52-4,.49.38.59.71.09,1.11a4.7,4.7,0,0,0-.63.77l.12.07,1.23-1,.72,1.4a7.13,7.13,0,0,0-.38-1.37,1.27,1.27,0,0,1,0-.47h.24l.56,1,.1,0c-.17-.44-.34-.88-.52-1.32l.1,0,.5.76c.24-.44-.52-.87,0-1.38.14.22.25.37.35.52-.34-1,.6-1.56,1.16-2.25,0,.42.1.84.16,1.25l.12-.18.21.14-.89,1.24.1,0,.78-.61c.28.57.3.59-.07,1-.57.57-1.19,1.12-1.77,1.68s-1.32,1.35-2,2l.17.12c.61-.54,1.2-1.1,1.83-1.62s1.23-1,1.85-1.45l.21.18-4.39,4.18a11.81,11.81,0,0,0,1.72-1.17c.49-.4.93-.85,1.44-1.24s1-.61,1.44-.91c0,0,.14,0,.45-.1a9.76,9.76,0,0,1-1.07,2.12c-1,1.2-2.22,2.3-3.35,3.44l.23.16,4.24-4.09c.31.64,0,1.07-.6,1.5-1.33,1-2.6,2-3.89,3a18.94,18.94,0,0,0,4.66-3.27,1.2,1.2,0,0,1-.28.83c-.62.65-1.32,1.25-2,1.9S83.94,76.33,83.29,77l.14.09,4.13-3.73c0,2-2.17,2.89-3.14,4.39l.19.12c1-1.06,2.07-2.13,3-3.1a16.46,16.46,0,0,1,.2,1.66,11.06,11.06,0,0,1-.08,1.91,17.51,17.51,0,0,1-.4,1.74,3.74,3.74,0,0,0,.54-1.49c.1-.91.08-1.82.15-2.73a3,3,0,0,1,.29-.76c.5-1.24-.47-2.45-.23-3.74a1.39,1.39,0,0,1,.66-1.85,8.79,8.79,0,0,0,1.37-1.36c-.07,1.1-1,1.75-1.58,2.54-.16.22-.3.45-.45.67.76-.78,1.53-1.56,2.35-2.38-.27,1.79-.53,3.61-.81,5.53a9.85,9.85,0,0,0,.87-3.45,2.63,2.63,0,0,1,.27-.77l.23,0c0,.47.06.94.1,1.41h.16a9.58,9.58,0,0,0,.06-1.31c-.06-.72-.15-1.45-.28-2.17-.19-1.07-.42-2.14-.66-3.2,0-.18-.2-.34-.25-.52-.2-.61-.38-1.22-.61-1.95l.63.28-1.37-1.73.11-.07.7.42.09-.09-1.35-1.09.07-.09L91,61.48,91,61.4l-3.88-2.48.51-.39,3.12,1.83.08-.07L89.24,59l.06-.07,1.25.5.11-.16c-1-.52-2.08-1.08-3.16-1.55-.79-.34-1.57-.6-1.59-1.66l4.19,1.82-.51-.56.89.18-.31-.38,2.32-2.2.13.08-1.85,2,.17.11,2.46-2.25a.72.72,0,0,1-.08.66c-.46.54-1,1.06-1.49,1.58s-1,1-1.49,1.42l.24.17c1.06-1,2.12-2,3.23-3,0,1.55-1.5,2.47-2.26,3.68a6.11,6.11,0,0,0,2.37-3c0,1.75-.86,3.09-1.59,4.47a5.55,5.55,0,0,0,1.76-3.49,11.68,11.68,0,0,1,.23,5.72c1-1.95.64-3.8.11-5.67l.25,0c.74,1.55,1.47,3.1,2.13,4.5,0-.21,0-.6-.07-1.06l.35.37a1.1,1.1,0,0,0-.07-.68c-.37-.85-.77-1.69-1.15-2.54a2.16,2.16,0,0,1-.08-.56l.16,0,.85,1.4c.43-.9-.54-1.41-.6-2.14.47.62.93,1.25,1.35,1.82-.08-1.26-.17-2.56-.25-3.83.67.37.73.43.64,1.05s-.22,1.42-.37,2.3c.24-.32.38-.5.51-.69l.14,0-.42,1.38.13,0,.84-2,.22,0c-.24,1.06-.49,2.13-.73,3.24l1.22-1.66.29.12-1.11,2.58,0,0,1-1.41.09,0-1,2.91c.64-.48,1.31-1,2-1.47l.11.07-1.07,1.54.1.06.69-.6.08,0-.6,1.2.16.08,2-2.49h.08l-1.38,3.23.34.13,2-2.95c.15,1.8-.84,3.22-2,4.6l1.51-1.3.06,0L102,66l.22.11,1.83-2.45a9.51,9.51,0,0,0-1.52-5l.29-.12,2.37,2.72c0-.13-.12-.32-.21-.5-.29-.62-.6-1.23-.86-1.85-.12-.28-.06-.61-.22-.86a13.69,13.69,0,0,0-1.32-1.76c-.72-.8-1.61-1.49-2.25-2.33A7.82,7.82,0,0,0,97.92,52a17.58,17.58,0,0,1-2.41-1.38,5.69,5.69,0,0,0-2.3-1.09C91,49,88.83,48.44,86.66,47.88a17.75,17.75,0,0,1-1.87-.7,2.23,2.23,0,0,1,2.15-.46c.75.12,1.48.34,2.22.52l.06-.13-1.42-.77c2-.1,3.62.62,5.44,1A6.25,6.25,0,0,0,90,46c2.13-.08,3.82,1,5.85,1.64l-.41-.73c.83.56,2.26.46,2.46,1.6l.09-.72.17-.07L99,48.84l.23-.85c.86.36.39,1,.68,1.52.08-.41.16-.83.26-1.33l.8,1.66.07-1.36c.76.42.52,1.13.64,1.76l.19-.23.15.35h.1l.1-.78.34.45.19-.12-.69-.78.1-.06.87.71a.13.13,0,0,1,.12,0,1.06,1.06,0,0,1,.28.15,2.39,2.39,0,0,1,.52,2.25c-.06.53-.13,1.06-.19,1.58a3.57,3.57,0,0,0,.92-2.46c.59,1.2-.2,2.16-.78,3.17a3.17,3.17,0,0,0,1.27-2.71c.5.82,0,1.61,0,2.4l.23,0c.13-.59.27-1.17.43-1.87.67,1.36-.15,2.42-.65,3.51a3.14,3.14,0,0,0,1.1-2.78,3.68,3.68,0,0,1-.35,3l.24.05c.23-.7.47-1.41.71-2.13,1.89.9,2.17,2.6,3,4a2.43,2.43,0,0,0-.18-.88c-.38-.81-.81-1.6-1.18-2.41a8.41,8.41,0,0,0-3.11-3.78c-.28-.17-.38-.53-.56-.8h0l.58-1.34c0,.14,0,.27,0,.4a3.11,3.11,0,0,0,0,.32,3.87,3.87,0,0,0-.21-3.59l.23-.08c.3.49.61,1,.92,1.46l.22-.3a4.49,4.49,0,0,1-.07,3.54L107,50c0,.37,0,.62,0,.87a5.83,5.83,0,0,0,.7-3.68c.22.18.48.37.51.59a13.5,13.5,0,0,1,.2,2.45,16.07,16.07,0,0,1-.47,2.25,4.88,4.88,0,0,0,.52-4.77c2.19,1.62,2.43,3.58,2.34,5.65a5,5,0,0,0,0-3.23,11.34,11.34,0,0,1,2.13,4.32A8,8,0,0,0,110.26,49a15.55,15.55,0,0,1,4.93,3.2l.13-.1-1.75-1.78Zm-8.15-14.9,2.29,1.09L106.18,36ZM63,31.39l-.44.29-3.59-1,0-.17,4.46.55v.17h-.85v.06Zm1.6.84L63.18,32c.34-.6.86-.27,1.21-.14l.35.19Zm-5.21,6c.12-.45.65-.49,1.54-.13Zm2-1c0-.06,0-.2.06-.34a14,14,0,0,1,1.45-.18,13.46,13.46,0,0,1,1.35.06ZM52.26,44.2,52.2,44l2.4-.55C54,44.24,53,43.76,52.26,44.2Zm4.65-1.09c.11-.19.37-.31.56-.46l.11.11c-.13.31-.27.62-.41.92l-.26,0C56.9,43.5,56.82,43.27,56.91,43.11ZM56.5,46.6c-.14-.73.66-.93,1.08-1.35C57.86,45.61,57.13,46.51,56.5,46.6Zm7,1.12-.18-.1c0-.71.07-1.43.1-2.14l.15,0a17.28,17.28,0,0,1,.5,1.84C64.13,47.42,63.74,47.58,63.54,47.72Zm1.05-.38c0-.51-.07-1-.1-1.52C65.13,47.24,65.13,47.24,64.59,47.34Zm-9.22,7.89-.24-.06.43-1.6.28.07C55.68,54.17,55.52,54.7,55.37,55.23Zm2.39,6.39c0-1-.07-2-.1-3.08h.25L58,61.62Zm-1.17-3.29-.16-.18,1.44-.79.13.14ZM69.85,70,69,68.61l.27-.09L70,70Zm.33-.58c-.19-.63-1.11-1.09-.62-2l.81,2Zm-.93-6-.2-.13,1.18-1.14.17.12Zm5.54-11.68.19.26-2.06,1-.17-.22ZM72.61,46l.7.92c-.67.32-1.08-.17-1.67-.43Zm-1.12,2.37-.69-1c.72-.31.83.32,1.37.57Zm-.68,6.43c.11-.76.21-1.39.3-2h.25C71.69,54.21,71.68,54.25,70.81,54.82Zm.08-9.3,1.15,0C71.64,46,71.27,46.09,70.89,45.52Zm-3-11.39.09-.19,2,.81-.05.1Zm1.28,1,.11-.2,2,.95-.1.15Zm.47,9.65.66.34s0,0,0-.09a1.88,1.88,0,0,0,0-.23l1,.26c-1.13.42-1.18.42-1.76-.15Zm1.11,1.53-.72.27,1-.07c-.48.42-.65.44-1.73.24l.18-.16-2.33.27c.09-.37.15-.62.24-1l.3.4A5.91,5.91,0,0,1,70.74,46.34Zm-1.86,2.45-.16.11-1-1C68.2,47.7,68.51,47.94,68.88,48.79ZM66.1,38.27l.09-.14,1.44.66-.14.21ZM67.19,49c-.71.18-.59-.43-.89-.62C67,48.25,67,48.66,67.19,49ZM65.6,47.11c0-.52.05-1,.08-1.47h.14L66.27,47ZM59,57.27l.53,2.22C59.11,58.79,58.6,58.11,59,57.27ZM58.76,51a10.91,10.91,0,0,1,5.33-1.61Zm2.35,6.81-.93-2.27.16,0c.25.77.86,1.46,1.07,2.25Zm1.1-.91c-.29-.76-.55-1.41-.86-2.22C62.17,55.31,62.57,56.29,62.21,56.85Zm.79-.67c-.15-.78-.29-1.48-.42-2.17l.16,0,.91,1.67Zm1.15-1c-.63-.34-.31-.93-.45-1.39.22.44.44.88.67,1.32Zm.62-.39c-.27-.51-.54-1-.81-1.5C65.28,54.53,65.28,54.53,64.77,54.82Zm.63-.46-.66-1.9C65.76,53.32,66,54.05,65.4,54.36Zm0-5.25.51-.71.41.89Zm1,4.74c-.13-.8-.24-1.51-.35-2.22l.21-.05c.28.59.57,1.18.89,1.84Zm1-.51c-.24-.68-.44-1.25-.61-1.75l1.53,1Zm1.3-.7a1,1,0,0,1-.35,0c0-.32.07-.64.12-1l.28.42,0-.62.49.22-.44-.91.13,0,.41.61.09,0-.39-1.34.14,0,.4.86c.08-.45.13-.74.21-1.17.17.38.43.69.39,1A2.19,2.19,0,0,1,68.76,52.64Zm1.4-4.24a7.24,7.24,0,0,0-.63-1c.77-.16,1,0,1.61,1.28C70.7,48.85,70.36,48.88,70.16,48.4Zm4.3,4.75c-.11.12-.19.31-.34.36a7.4,7.4,0,0,0-4,3.14A6.26,6.26,0,0,1,74.46,53.15Zm-.5.9c-.1.73-.88.62-1.28.91a14,14,0,0,1-1.35.85A5.29,5.29,0,0,1,74,54.05ZM70,58.8a5,5,0,0,1,.33-.75A7.8,7.8,0,0,1,73,55.38a1.47,1.47,0,0,1,.28-.14,4.21,4.21,0,0,1,.43-.1c-.82.65-1,1.47-2,1.94A8.22,8.22,0,0,0,70,58.8Zm4.18,2c-.73-.44-1.19-1.12-1-1.52Zm-3.2,5c-.57-.6-.52-.77.4-1.27Zm.28-7.68L71.1,58l1.56-1,.12.14Zm2.06,7.61c-.39-.91-1.73-1.45-1.49-2.74l1.72,2.66Zm1.79.15c-.64-.72-1.3-1.43-1.9-2.17a13.44,13.44,0,0,1-1.09-1.54c-.1-.17,0-.4,0-.6l.21-.12a11.25,11.25,0,0,1,.85.84c.61.76,1.21,1.51,1.74,2.3a5.38,5.38,0,0,1,.46,1.21Zm.29-6.65-1.51-1.84.26-.14,1.44,1.89Zm.05-1.72c-.19-.51-1-.76-.75-1.46l1,1.37Zm4.16-4.22-.47-1.19C79.83,52.59,79.86,52.67,79.56,53.27Zm-2-29.73-.14-.09,2.41-2.62.24.17C79.24,21.85,78.4,22.7,77.56,23.54ZM90.13,66.87c-.08.43,0,.81-.21,1-.63.71-1.35,1.37-2,2l-.29-.09a1.42,1.42,0,0,1,.2-.41C88.52,68.63,89.26,67.83,90.13,66.87Zm-.49-1.67-1,1.36-.19-.1,1-1.39Zm-1,.3c-.41.45-.79.93-1.21,1.41a1.42,1.42,0,0,1,.94-2.1l.66-1.05C89.73,64.58,89.11,65,88.66,65.5Zm-.22-2.91c.86.61.85.77-.12,1.49C87.78,63.52,87.57,63,88.44,62.59ZM87,64l.57-.52c.19.32.55.64.47.83a3.73,3.73,0,0,1-.91,1,.77.77,0,0,1-.4-.18C86.44,64.74,86.64,64.37,87,64Zm15.8-4.19-.31.08c-.2-.55-.4-1.11-.61-1.66l.24-.06ZM101,56.35l1.49.84-.15.17-1.48-.85Zm-.1,2.19a4.08,4.08,0,0,1-1.29,3.08ZM99,54.88c.74.31.73.89.83,1.5C99.19,56,98.82,55.52,99,54.88Zm-3-.45-.61-.93C96.22,53.67,96.36,53.87,96,54.43Zm1.15-1c.72.27.78.37.78,1.28C97.21,54.46,97,54,97.19,53.43ZM95,52c.91.27,1.27.7,1.23,1.56C95.11,53.13,95,53,95,52Zm.73,5.24-.3.13-.73-1,.28-.14Zm-1.22-4.78-.65-1.09C94.84,51.69,94.94,51.87,94.55,52.47Zm13.13-7.71c-.54-.18-1-.31-1.47-.49a.4.4,0,0,1-.23-.34,3.55,3.55,0,0,0-.74-2.83C106.54,41.52,107.37,43.12,107.68,44.76Zm-4.31-4.88,2,.27,0,.09c-.52,0-1,0-1.55-.08a1.66,1.66,0,0,1-.43-.14ZM104.44,41a4.05,4.05,0,0,1,.75,2.76c-.49-.05-.71-.16-.65-.67A13.3,13.3,0,0,0,104.44,41Zm-1.22,1.53-.49,0c-.11-.88-.21-1.71-.32-2.58A4.79,4.79,0,0,1,103.22,42.54Zm.32.14c-.1-.81-.21-1.64-.31-2.46.69.16,1.24,1.94.93,3.26L102.32,43v-.21ZM101.93,42c-.12-.8-.23-1.56-.34-2.28C102.19,39.82,102.54,41.35,101.93,42ZM100,39.3c.26.59.53,1.17.79,1.76l-.23.13c-.12-.13-.33-.24-.37-.39-.13-.48-.21-1-.31-1.46Zm.85,2.6-.77,0c0-.41.06-.67.71-.56Zm-2.08-.45.82-.08.05.47h-1Zm-.54-.71-.54-1.28C98.29,39.49,98.48,39.83,98.24,40.74Zm-1-.2c-.47.1-.76,0-.81-.45a6.5,6.5,0,0,0-.27-.91C96.94,39.17,97.26,39.55,97.24,40.54Zm-1-.06-.79,0c-.06-.33-.11-.64-.16-.94l.16-.08Zm5.06-6.21c-.58.27-.58.27-3.3-.17ZM90,34.3,89,34.24l0-.09,2.23-.33-.37-.2.5-.22-.64-.16,1.75-.37v0l-1.34.08a2,2,0,0,1,2.15-.17c.32.17.62.37.93.56,0,.09,0,.22-.11.28-.38.26-.8.49-1.15.77s-.78.72-1.12,1l.17-.64-.35.08.28-.39-.13-.1c-.24.19-.47.4-.73.57a1.22,1.22,0,0,1-.41.06l-.19-.31-.82.75-1-.31,1-.29,0-.11-1,.12,0-.07Zm-4.34,6.37c-.14.16-.25.36-.44.45a8.58,8.58,0,0,1-1.15.37L84,41.34ZM82.78,51.93l.74.15-.33.76-.48-.75Zm-1.35,4.34h.22l.21.76-.2,0-.55-.34ZM80.31,59A19.09,19.09,0,0,0,79,60.9a4.85,4.85,0,0,1,1.55-3.32C81,58.17,80.7,58.54,80.31,59Zm.37-2.33c-.08-.26-.16-.53-.26-.88C81.21,56.11,81.21,56.11,80.68,56.66Zm.25,1.66.2-.19,1.1.71-.17.18Zm.17,5.52a23.32,23.32,0,0,0-1.6,1.75,7.5,7.5,0,0,1,1.89-3A1.07,1.07,0,0,1,81.1,63.84ZM81.35,60,81.09,59l.7.33-.23.59Zm.26,2.61,1.2,1-.16.1C82.36,63.32,81.52,63.37,81.61,62.58ZM83,67.33c-.08-.3-.89-.41-.24-.85C83,66.71,83.44,66.9,83,67.33Zm.32-4.25c-.53-.71-2-.79-1.66-2a7.65,7.65,0,0,0,.79.82c.24.21.62.3.84.51A.68.68,0,0,1,83.27,63.08Zm.54-10.23c.78.77.82,1.07.19,1.46C83.14,53.39,83.14,53.39,83.81,52.85ZM84.72,56l-1,.89-.25-.07A5.14,5.14,0,0,1,83.7,56a5.14,5.14,0,0,1,.48-.67Zm-.09-2.4a11.71,11.71,0,0,1,4.32,1l-.4.46c-1.11-.21-2.19-.45-3.27-.61C84.62,54.34,84.8,53.94,84.63,53.59Zm-.7,12.77c-.61-.71-.61-.71-.3-1C83.87,65.63,84.32,65.89,83.93,66.36Zm.28-7.65c-.21-.62.62-1.6,1.54-1.74C85.19,57.59,84.73,58.12,84.21,58.71Zm.36,1.38,1.09-2C86,58.81,85.9,59,84.57,60.09Zm1.05,2.12-.19,0c.12-.39.25-.78.37-1.16l.54-.18ZM86.23,60l-.45,1h0l-.68.58C84.74,61.2,84.74,61.2,86.23,60Zm-.38-4.39a1.72,1.72,0,0,1-.72-.54,6,6,0,0,1,2.94.58,13.1,13.1,0,0,1,1.64.8c.15.08.19.28.25.39C88.53,56.44,87.18,56.05,85.85,55.63Zm4.82.41-.45-.26,2.1-2C92.43,54.29,92.43,54.29,90.67,56ZM92,52.87c.21.9-.84,1.08-1.1,1.7l-.58-.31ZM90.7,54.73l-.84.9-1.14-.45A1.65,1.65,0,0,1,90.7,54.73Zm-.92-.91a1.26,1.26,0,0,1-.49.08,14.16,14.16,0,0,0-4.59-.76c-.2,0-.4-.19-.61-.29l.12-.29,5.57,1Zm-.93-4.11c0,.62-.27.8-1,.67Zm-2.29,2.11,1.71.6.27-.12.09.09-.43.5,1-.34c0,.57-.13.63-.73.45a13.19,13.19,0,0,0-4-.58,2.67,2.67,0,0,1-.88-.34l-.09-.36c1.47-.21,2.6,0,3.11.61Zm-1-7.1c-.68,0-1.36-.06-2-.1v-.15l.69-.11-.29-.11a1.63,1.63,0,0,1,2-.19c.1-.37-.12-.83.6-.73l-.82-.15.78-.37a3.68,3.68,0,0,1,.3.5C87.17,44.25,86.75,44.73,85.55,44.72Zm.2-4.09.46-.39-.06-.1L85,40.56l-.09-.15,3-1.23-1.48.14-.07-.13,3.13-1.14-.17-.17,2.08-.39-.62-.21L91.84,37l-1.09,0,0-.13,2.64-.4v-.12l-1.74.09,0-.12L95.23,36l-1.3-.29,1.77-.17-.24-.32c.44,0,1.19.17,1.39,0,.45-.48,1-.07,1.51-.32l-1.77-.09v-.09l3.16-.1,0,.18c-1,.24-1.91.46-2.86.73-.42.12-.81.32-1.23.47a2,2,0,0,1-.44.06,3.45,3.45,0,0,1-.63.45,31.42,31.42,0,0,1-3.12,1.28,12.27,12.27,0,0,0-3.35,1.87A4.35,4.35,0,0,1,85.75,40.63ZM95,40.42a2.25,2.25,0,0,1-.58,0,.46.46,0,0,1-.3-.22c0-.07.1-.21.2-.25C94.75,39.76,94.85,39.83,95,40.42Zm-5.34,3-.33,0c0-.43,0-.85,0-1.28h.15C89.54,42.6,89.61,43,89.68,43.44Zm-1.23.44c-.09-.54-.16-.92-.23-1.31l.2,0L88,42.29l0-.13,1,0C88.67,42.68,89.33,43.32,88.45,43.88Zm-.81.13-.21-1.21C88.07,43.37,88.12,43.79,87.64,44Zm1.12,1.07L87.38,45l0-.22.64-.18h0l.78.38Zm1.3.21-1.18-.4L88,44.61c.56-.37,1.08,0,1.59.13a1.89,1.89,0,0,1,.55.4Zm.61-2-.09-1.32h.18l.22,1.3Zm.72-.51c-.1-.29-.17-.58-.28-.93l.83,0c0,.36,0,.62,0,.88,0,.1-.16.18-.25.27C91.56,42.9,91.43,42.83,91.39,42.73Zm.39,1.3.4,1C91.48,45.08,91.42,44.93,91.78,44ZM91,40.17c.94-.42,1.42-.31,1.64.28C92,40.79,91.67,40.23,91,40.17Zm1.43,1.44,2-.48.06.17-2,.46Zm4.33,4.64L96.68,45l.19,0L97,46.23Zm-1.53-4A7.77,7.77,0,0,1,93.49,42v-.22l5-.48,0,.48C97.41,41.92,96.34,42.15,95.24,42.24Zm4,4.37a7.32,7.32,0,0,0-.54-1.91c0-.12-.08-.24-.12-.36l.18-.05,1.4,3.06C99.41,47.31,99.22,47.15,99.21,46.61Zm1.18.58c-.15-.64-.39-1.27-.6-1.91.45.2.45.2.93,2.13l.12-.83H101l.28,1.25A.8.8,0,0,1,100.39,47.19Zm.34-7.64c.66.2.85.78.66,2.26C101.17,41.06,100.94,40.28,100.73,39.55Zm.7,7.54.23.35L102,47c.08.53.14.92.21,1.32C101.19,48.2,101.41,47.66,101.43,47.09Zm.13-2.39c1,.64.74,1.61,1,2.45Zm.77,3.69c-.12-.1,0-.39,0-.63l1,.92h.18c-.11-1.13-.22-2.25-.32-3.24.6.46,1,2.72.54,4A12.75,12.75,0,0,1,102.33,48.39Zm2.51,1.67-.91-.47a3.63,3.63,0,0,0-.11-4.11c.47,0,.75.12.84.64.15,1,.21,1.93.27,2.9A6.18,6.18,0,0,1,104.84,50.06Zm.09-5.38c-.64,0-1.29,0-1.94-.06,1.31-.08,3-.23,4,.3C106.26,44.84,105.59,44.72,104.93,44.68Zm.78,1.13,0-.17,3,.36,0,.16Zm.92.6.05-.24,2.08.36,0,.18Zm.87.56.08-.24,3.61.92,0,.11Z"/><path class="cls-2" d="M61.2,84.35s-1.59,2.61,2,2.39,28.12,0,28.12,0,2.5.23,2.61-1.2-2.39-1.89-2.39-1.89H67S62.11,83.66,61.2,84.35Z"/><path class="cls-2" d="M129.15,45.53s0-.08,0-.1.08,0,.11,0,.09.11.14.17l.23.37c.14.25.28.51.41.77.25.52.49,1,.71,1.59.44,1.07.82,2.17,1.19,3.27a67.47,67.47,0,0,1,1.78,6.74,74.24,74.24,0,0,1,1.56,13.89,69.79,69.79,0,0,1-1.14,14,65.9,65.9,0,0,1-4.12,13.54,59.87,59.87,0,0,1-17,22.41,71.81,71.81,0,0,1-24.48,13A100.61,100.61,0,0,0,111,119.92a67.94,67.94,0,0,0,8.81-10.08,60.67,60.67,0,0,0,6.56-11.58,66,66,0,0,0,4.08-12.7,80.24,80.24,0,0,0,1.73-13.33,91.79,91.79,0,0,0-.38-13.56c-.2-2.26-.53-4.51-.92-6.76-.2-1.13-.43-2.24-.69-3.36-.13-.55-.27-1.11-.42-1.66-.08-.27-.17-.55-.27-.82s-.1-.26-.16-.39a1,1,0,0,0-.1-.18C129.23,45.42,129.16,45.44,129.15,45.53Z"/></g></g></svg>