<svg xmlns="http://www.w3.org/2000/svg" viewBox="0 0 288.72 124.97"><defs><style>.cls-1{fill:#231f20;}</style></defs><title>Recurso 18</title><g id="Capa_2" data-name="Capa 2"><g id="älmera"><path class="cls-1" d="M24,34.73a74,74,0,0,1,6-7.88c1.81-2.24,3.42-3.44,4.82-3.62a11.64,11.64,0,0,1,4.26.28q2.16.54,1.08,3.5L34.56,54.57c-.38,3.5-1,5.2-2,5.12q-4,.21-3.84-2t4.52-30.92a17.91,17.91,0,0,0-5,4.72Q26.6,34,24.84,36.65a36.34,36.34,0,0,0-1.6,3.56Q21,51.42,20.46,53a2.61,2.61,0,0,1-2.18,1.82c-2.16-.37-3.12-1.4-2.86-3.08s1.3-9.25,3.14-22.72a21,21,0,0,0-5.4,5.14q-2.09,2.91-3,4.54a48.49,48.49,0,0,0-2.26,4.72L5.64,54C5.26,56,4.41,57,3.08,57a11.87,11.87,0,0,1-2.74-.34q-.75-.24.14-4.44Q3.75,32.1,4.18,28.89C4.46,26.76,5.74,25.8,8,26q3.84-.84,1.8,4.8c-.48,2.72-1,5.46-1.52,8.2a57.81,57.81,0,0,1,7-9.92c1.81-2.24,3.42-3.44,4.82-3.62a11.64,11.64,0,0,1,4.26.28q2.16.54,1.08,3.5Q24.67,32,24,34.73Z"/><path class="cls-1" d="M64.36,46.77,60,52.21q-4.32,4-7.12,5a8.18,8.18,0,0,1-5.84-.12q-3-1.14-4-5a18,18,0,0,1-.32-7.66,32.08,32.08,0,0,1,2.1-7.18,24.33,24.33,0,0,1,3.62-6,25.32,25.32,0,0,1,5-4.64,13.59,13.59,0,0,1,14-1,5.59,5.59,0,0,1,4.5-.88c1.5.38,1.9,1.58,1.18,3.6q-2.73,13.2-3.66,20.3c-.63,4.74-1,7.86-1.08,9.38s-.62,2.24-1.58,2.16q-4-.2-3.64-3.1c.24-1.93.45-3.59.64-5S64.22,49,64.36,46.77Zm-.86-20q-3.7.06-7.48,3.8A33.94,33.94,0,0,0,50.18,38a28.52,28.52,0,0,0-3,8.2,13.87,13.87,0,0,0,.2,7.62q1.14,3.12,4.14,1.34a24.64,24.64,0,0,0,5.18-4,50.45,50.45,0,0,0,4.66-5.7q2.47-3.45,4.32-11.1Q67.19,26.74,63.5,26.79Z"/><path class="cls-1" d="M99.34,39.41q1.89-15,3.58-15.24a10.81,10.81,0,0,1,3.84.34q2.16.54,1.08,3.5a125.3,125.3,0,0,0-3.26,14.84q-1.14,7.32-1.46,10.68c-.38,4.56-1,6.8-2,6.72q-4-.2-3.84-3T99.34,39.41Zm5.86-23.22a10.2,10.2,0,0,1,3.88.34q2,.57,1,3.4c-.67,1.9-1.52,2.78-2.56,2.66l-3.24-.36q-1.68-.18-1.32-3C103.2,17.35,103.94,16.34,105.2,16.19Z"/><path class="cls-1" d="M117.88,53.07a10.2,10.2,0,0,1,3.88.34q2,.57,1,3.4c-.67,1.9-1.52,2.78-2.56,2.66L117,59.11q-1.68-.18-1.32-3C115.88,54.23,116.62,53.22,117.88,53.07Z"/><path class="cls-1" d="M135.19,33.69,136.67,35a44.43,44.43,0,0,1,5.42,4.1,13.73,13.73,0,0,1,3,3.62,11,11,0,0,1,.68,5.2l-.88,3.44q-3.24,6.57-7.52,8a8.06,8.06,0,0,1-11.12-7q2.25-1.8,2.8,1.4c1.28,3.36,2.9,4.58,4.84,3.64a11.94,11.94,0,0,0,4.86-4.34,11.63,11.63,0,0,0,1.7-7.26,6.52,6.52,0,0,0-1.88-3.7,31.72,31.72,0,0,0-4.84-3.66q-4.4-2.55-4.06-6.32A8.48,8.48,0,0,1,133,26.09a7.82,7.82,0,0,1,6.1-1.86,10.11,10.11,0,0,1,5.54,2.66q-1.16,2.45-3.32,1.44-4-2.28-6.12,0T135.19,33.69Z"/><path class="cls-1" d="M170.43,46.77l-4.32,5.44q-4.32,4-7.12,5a8.18,8.18,0,0,1-5.84-.12q-3-1.14-4-5a18.2,18.2,0,0,1-.32-7.66,32.08,32.08,0,0,1,2.1-7.18,24.64,24.64,0,0,1,3.62-6,25.89,25.89,0,0,1,5-4.64,13.59,13.59,0,0,1,14-1,5.61,5.61,0,0,1,4.5-.88q2.26.57,1.18,3.6-2.72,13.2-3.66,20.3c-.62,4.74-1,7.86-1.08,9.38s-.62,2.24-1.58,2.16c-2.66-.13-3.88-1.16-3.64-3.1s.46-3.59.64-5S170.3,49,170.43,46.77Zm-.86-20c-2.46,0-5,1.31-7.48,3.8A34.24,34.24,0,0,0,156.25,38a29.13,29.13,0,0,0-3,8.2,14,14,0,0,0,.2,7.62q1.14,3.12,4.14,1.34a24.38,24.38,0,0,0,5.18-4,48.37,48.37,0,0,0,4.66-5.7q2.49-3.45,4.32-11.1Q173.28,26.74,169.57,26.79Z"/><path class="cls-1" d="M198.73,40.59c.08.71.17,1.36.27,2l.28-.26c.92-.8,1.87-1.56,2.73-2.43a4.1,4.1,0,0,1,.56-.47q-.48-4.59-.7-7.63-.27-3.91-2.24-4.5t-5.88,5L195,27.61q1.08-3-1.08-3.5a10.81,10.81,0,0,0-3.84-.34Q188.39,24,186.49,39t-2.06,17.84q-.15,2.81,3.84,3,1.44.12,2-6.72,1.65-12,4.58-16.74T198.73,40.59Z"/><path class="cls-1" d="M213.79,7.37q1.49-7.2,2.36-7.32A10.81,10.81,0,0,1,220,.39q2.16.54,1.08,3.5l-.64,3.72q12.24-.39,12.74.34a2.36,2.36,0,0,1,.36,1.74c-.09.67-1.18.92-3.26.76q-4.23.17-10.28.16L212.07,58q-.56,2.85-3,2.32-3,.6-2.58-2.64t6.82-47.4l-9.44.16q-3.24-.07-3.36-.72c-.34-1.2,0-1.85,1.06-2s3.08-.2,6.06-.28Z"/><path class="cls-1" d="M237.51,24.21a9.15,9.15,0,0,1,6.58,2.26,16.21,16.21,0,0,1,4,7,20.12,20.12,0,0,1,.32,10.36A23.75,23.75,0,0,1,244,53.63a15.87,15.87,0,0,1-6.88,5.5,10.86,10.86,0,0,1-1,.4,8.3,8.3,0,0,1-8-.32,12.2,12.2,0,0,1-5.88-7.48,21.56,21.56,0,0,1-.44-10.82,23.22,23.22,0,0,1,4.36-9.76,19.11,19.11,0,0,1,6.8-5.78A16.32,16.32,0,0,1,237.51,24.21Zm1.14,3.26a7.48,7.48,0,0,0-4.08,1.26,13.68,13.68,0,0,0-4.88,5.38,23.41,23.41,0,0,0-2.9,8.18,21.8,21.8,0,0,0,.1,7.76A10.56,10.56,0,0,0,230,55.77c1.56,1.47,3.3,1.47,5.2,0s3.23-4.69,4-9.68q4.28-1.8,3.44,2.48l.32-1.48a22.17,22.17,0,0,0,.92-4.58,20,20,0,0,0-.1-7.48,15.06,15.06,0,0,0-2.18-5.32A4.58,4.58,0,0,0,238.65,27.47Z"/><path class="cls-1" d="M277.65,39.41q1.91-15,3.58-15.24a10.81,10.81,0,0,1,3.84.34q2.16.54,1.08,3.5a127.32,127.32,0,0,0-3.26,14.84q-1.14,7.32-1.46,10.68-.56,6.84-2,6.72-4-.2-3.84-3T277.65,39.41Zm5.86-23.22a10.18,10.18,0,0,1,3.88.34c1.33.38,1.67,1.51,1,3.4s-1.52,2.78-2.56,2.66l-3.24-.36q-1.68-.18-1.32-3C281.51,17.35,282.26,16.34,283.51,16.19Z"/><path class="cls-1" d="M268.14,40.59c.07.71.16,1.36.26,2l.28-.26c.92-.8,1.87-1.56,2.73-2.43a4.81,4.81,0,0,1,.56-.47q-.48-4.59-.7-7.63-.27-3.91-2.24-4.5t-5.88,5l1.24-4.64q1.08-3-1.08-3.5a10.75,10.75,0,0,0-3.83-.34Q257.79,24,255.89,39t-2.06,17.84q-.15,2.81,3.85,3c1,.08,1.62-2.16,2-6.72q1.63-12,4.57-16.74T268.14,40.59Z"/><path class="cls-1" d="M70.07,7.81s-1.6,2.62,2.05,2.39,28.11,0,28.11,0,2.51.23,2.62-1.2-2.39-1.88-2.39-1.88H75.87S71,7.13,70.07,7.81Z"/><text></text><text></text><text></text><path class="cls-1" d="M82.76,7.4c1-4.8,1.77-7.24,2.36-7.32A10.58,10.58,0,0,1,89,.42c1.44.36,1.8,1.52,1.08,3.5L89.4,7.64q12.24-.4,12.74.34a2.43,2.43,0,0,1,.36,1.74c-.09.66-1.18.92-3.26.76-2.83.1-6.25.16-10.28.16L81,58q-.56,2.84-3,2.32-3,.6-2.58-2.64t6.82-47.4l-9.44.16q-3.24-.09-3.36-.72c-.35-1.2,0-1.86,1.06-2s3.07-.2,6.06-.28Z"/></g></g></svg>