<svg xmlns="http://www.w3.org/2000/svg" viewBox="0 0 288.72 206.65"><defs><style>.cls-1{fill:#231f20;}</style></defs><title>Recurso 4</title><g id="Capa_2" data-name="Capa 2"><g id="älmera"><path class="cls-1" d="M24,116.41a74,74,0,0,1,6-7.88c1.81-2.24,3.42-3.44,4.82-3.62a11.64,11.64,0,0,1,4.26.28q2.16.54,1.08,3.5l-5.56,27.56c-.38,3.5-1,5.2-2,5.12q-4,.21-3.84-2t4.52-30.92a17.91,17.91,0,0,0-5,4.72q-1.67,2.49-3.42,5.16a36.34,36.34,0,0,0-1.6,3.56Q21,133.1,20.46,134.67a2.61,2.61,0,0,1-2.18,1.82c-2.16-.37-3.12-1.4-2.86-3.08s1.3-9.25,3.14-22.72a21,21,0,0,0-5.4,5.14q-2.09,2.91-3,4.54a48.49,48.49,0,0,0-2.26,4.72l-2.24,10.6c-.38,2-1.23,3-2.56,2.94a11.87,11.87,0,0,1-2.74-.34q-.75-.24.14-4.44,3.27-20.07,3.7-23.28c.28-2.13,1.56-3.09,3.86-2.88q3.84-.84,1.8,4.8c-.48,2.72-1,5.46-1.52,8.2a57.81,57.81,0,0,1,7-9.92c1.81-2.24,3.42-3.44,4.82-3.62a11.64,11.64,0,0,1,4.26.28q2.16.54,1.08,3.5Q24.67,113.69,24,116.41Z"/><path class="cls-1" d="M64.36,128.45,60,133.89q-4.32,4-7.12,5a8.18,8.18,0,0,1-5.84-.12q-3-1.14-4-5a18,18,0,0,1-.32-7.66,32.08,32.08,0,0,1,2.1-7.18,24.33,24.33,0,0,1,3.62-6,25.32,25.32,0,0,1,5-4.64,13.59,13.59,0,0,1,14-1,5.59,5.59,0,0,1,4.5-.88c1.5.38,1.9,1.58,1.18,3.6q-2.73,13.2-3.66,20.3c-.63,4.74-1,7.86-1.08,9.38s-.62,2.24-1.58,2.16q-4-.19-3.64-3.1c.24-1.93.45-3.59.64-5S64.22,130.64,64.36,128.45Zm-.86-20q-3.7.06-7.48,3.8a33.94,33.94,0,0,0-5.84,7.44,28.52,28.52,0,0,0-3,8.2,13.87,13.87,0,0,0,.2,7.62q1.14,3.12,4.14,1.34a24.64,24.64,0,0,0,5.18-4,50.45,50.45,0,0,0,4.66-5.7q2.47-3.45,4.32-11.1Q67.19,108.42,63.5,108.47Z"/><path class="cls-1" d="M99.34,121.09q1.89-15,3.58-15.24a10.81,10.81,0,0,1,3.84.34q2.16.54,1.08,3.5a125.3,125.3,0,0,0-3.26,14.84q-1.14,7.32-1.46,10.68c-.38,4.56-1,6.8-2,6.72q-4-.19-3.84-3T99.34,121.09Zm5.86-23.22a10.2,10.2,0,0,1,3.88.34q2,.57,1,3.4c-.67,1.9-1.52,2.78-2.56,2.66l-3.24-.36q-1.68-.18-1.32-3C103.2,99,103.94,98,105.2,97.87Z"/><path class="cls-1" d="M117.88,134.75a10.2,10.2,0,0,1,3.88.34q2,.57,1,3.4c-.67,1.9-1.52,2.78-2.56,2.66l-3.24-.36q-1.68-.18-1.32-3C115.88,135.91,116.62,134.9,117.88,134.75Z"/><path class="cls-1" d="M135.19,115.37l1.48,1.32a44.43,44.43,0,0,1,5.42,4.1,13.73,13.73,0,0,1,3,3.62,11,11,0,0,1,.68,5.2l-.88,3.44q-3.24,6.57-7.52,8a8.06,8.06,0,0,1-11.12-7q2.25-1.8,2.8,1.4c1.28,3.36,2.9,4.58,4.84,3.64a11.94,11.94,0,0,0,4.86-4.34,11.63,11.63,0,0,0,1.7-7.26,6.52,6.52,0,0,0-1.88-3.7,31.72,31.72,0,0,0-4.84-3.66q-4.4-2.55-4.06-6.32a8.48,8.48,0,0,1,3.26-6.08,7.82,7.82,0,0,1,6.1-1.86,10.11,10.11,0,0,1,5.54,2.66q-1.16,2.45-3.32,1.44-4-2.28-6.12,0T135.19,115.37Z"/><path class="cls-1" d="M170.43,128.45l-4.32,5.44q-4.32,4-7.12,5a8.18,8.18,0,0,1-5.84-.12q-3-1.14-4-5a18.2,18.2,0,0,1-.32-7.66,32.08,32.08,0,0,1,2.1-7.18,24.64,24.64,0,0,1,3.62-6,25.89,25.89,0,0,1,5-4.64,13.59,13.59,0,0,1,14-1,5.61,5.61,0,0,1,4.5-.88q2.26.57,1.18,3.6-2.72,13.2-3.66,20.3c-.62,4.74-1,7.86-1.08,9.38s-.62,2.24-1.58,2.16c-2.66-.13-3.88-1.16-3.64-3.1s.46-3.59.64-5S170.3,130.64,170.43,128.45Zm-.86-20c-2.46,0-5,1.31-7.48,3.8a34.24,34.24,0,0,0-5.84,7.44,29.13,29.13,0,0,0-3,8.2,14,14,0,0,0,.2,7.62q1.14,3.12,4.14,1.34a24.38,24.38,0,0,0,5.18-4,48.37,48.37,0,0,0,4.66-5.7q2.49-3.45,4.32-11.1Q173.28,108.42,169.57,108.47Z"/><path class="cls-1" d="M192.85,118.07q-2.94,4.79-4.58,16.74-.56,6.84-2,6.72-4-.19-3.84-3t2.06-17.84q1.9-15,3.58-15.24a10.81,10.81,0,0,1,3.84.34q2.16.54,1.08,3.5l-1.24,4.64q3.93-5.55,5.88-5t2.24,4.5c.19,2.62.52,6.08,1,10.4q1.13,3.84,4.6-.44,0,5-3.92,6.44t-4.82-7.58Q195.8,113.3,192.85,118.07Z"/><path class="cls-1" d="M213.79,89.05q1.49-7.2,2.36-7.32a10.81,10.81,0,0,1,3.84.34q2.16.54,1.08,3.5l-.64,3.72q12.24-.39,12.74.34a2.36,2.36,0,0,1,.36,1.74c-.09.67-1.18.92-3.26.76q-4.23.16-10.28.16l-7.92,47.4q-.56,2.85-3,2.32-3,.6-2.58-2.64T213.35,92l-9.44.16q-3.24-.07-3.36-.72c-.34-1.2,0-1.85,1.06-2s3.08-.2,6.06-.28Z"/><path class="cls-1" d="M237.51,105.89a9.15,9.15,0,0,1,6.58,2.26,16.21,16.21,0,0,1,4,7,20.12,20.12,0,0,1,.32,10.36,23.75,23.75,0,0,1-4.38,9.78,15.87,15.87,0,0,1-6.88,5.5,10.86,10.86,0,0,1-1,.4,8.3,8.3,0,0,1-8-.32,12.2,12.2,0,0,1-5.88-7.48,21.56,21.56,0,0,1-.44-10.82,23.22,23.22,0,0,1,4.36-9.76,19.11,19.11,0,0,1,6.8-5.78A16.32,16.32,0,0,1,237.51,105.89Zm1.14,3.26a7.48,7.48,0,0,0-4.08,1.26,13.68,13.68,0,0,0-4.88,5.38,23.41,23.41,0,0,0-2.9,8.18,21.8,21.8,0,0,0,.1,7.76,10.56,10.56,0,0,0,3.08,5.72c1.56,1.47,3.3,1.47,5.2,0s3.23-4.69,4-9.68q4.28-1.8,3.44,2.48l.32-1.48a22.17,22.17,0,0,0,.92-4.58,20,20,0,0,0-.1-7.48,15.06,15.06,0,0,0-2.18-5.32A4.58,4.58,0,0,0,238.65,109.15Z"/><path class="cls-1" d="M260.81,118.07q-2.94,4.79-4.58,16.74-.56,6.84-2,6.72-4-.19-3.84-3t2.06-17.84q1.91-15,3.58-15.24a10.81,10.81,0,0,1,3.84.34q2.16.54,1.08,3.5l-1.24,4.64q3.92-5.55,5.88-5c1.31.39,2.05,1.89,2.24,4.5s.52,6.08,1,10.4q1.13,3.84,4.6-.44c0,3.36-1.33,5.51-3.92,6.44s-4.19-1.59-4.82-7.58S262.77,114.89,260.81,118.07Z"/><path class="cls-1" d="M277.65,121.09q1.91-15,3.58-15.24a10.81,10.81,0,0,1,3.84.34q2.16.54,1.08,3.5a127.32,127.32,0,0,0-3.26,14.84q-1.14,7.32-1.46,10.68-.56,6.84-2,6.72-4-.19-3.84-3T277.65,121.09Zm5.86-23.22a10.18,10.18,0,0,1,3.88.34c1.33.38,1.67,1.51,1,3.4s-1.52,2.78-2.56,2.66l-3.24-.36q-1.68-.18-1.32-3C281.51,99,282.26,98,283.51,97.87Z"/><path class="cls-1" d="M98.08,63.49c-.27,1.43.82,2.78.26,4.16a3.09,3.09,0,0,0-.32.84c-.08,1-.06,2-.17,3a4.18,4.18,0,0,1-.6,1.65,16.14,16.14,0,0,0,.44-1.92,13.63,13.63,0,0,0,.1-2.12c0-.66-.16-1.33-.23-1.84l-3.33,3.44L94,70.58c1.08-1.66,3.44-2.68,3.49-4.86l-4.58,4.13-.16-.09c.72-.77,1.41-1.56,2.15-2.31s1.48-1.38,2.17-2.1a1.46,1.46,0,0,0,.31-.92,21.12,21.12,0,0,1-5.18,3.63c1.44-1.13,2.85-2.28,4.32-3.39.62-.47,1-1,.67-1.66l-4.71,4.53-.25-.17c1.25-1.27,2.57-2.49,3.71-3.81a10.32,10.32,0,0,0,1.19-2.35,2.83,2.83,0,0,0-.5.1,17.23,17.23,0,0,0-1.59,1c-.57.43-1,.93-1.6,1.37A12,12,0,0,1,91.54,65l4.87-4.63-.23-.19c-.69.53-1.4,1-2.06,1.6s-1.35,1.19-2,1.79l-.19-.13c.74-.74,1.46-1.49,2.21-2.23s1.32-1.23,2-1.86c.41-.41.39-.43.07-1.06l-.86.68-.11-.06,1-1.37-.24-.15-.14.19-.17-1.38C95,57,94,57.55,94.33,58.68L94,58.1c-.52.57.32,1,0,1.54l-.55-.85-.11,0,.58,1.47-.11,0-.63-1.17h-.26a1.34,1.34,0,0,0,0,.52,7.84,7.84,0,0,1,.41,1.53l-.79-1.56-1.37,1.14L91,60.7a5.12,5.12,0,0,1,.7-.84c.55-.45.45-.82-.1-1.24-1.41,1.19-2,2.76-2.8,4.41l.2-1.29-.33.23s-.09-.07-.08-.1a7.3,7.3,0,0,1,1.86-3.26c.29-.35.73-.67.32-1.23a6.38,6.38,0,0,0-2,2.47,2.52,2.52,0,0,1,.73-2.12c1.28-1.08,1.46-1.3,1.22-2.67a7.7,7.7,0,0,0-2.43,4,6.1,6.1,0,0,1,2-5.37c.33-.31.26-.9.26-1.39A6.11,6.11,0,0,0,88,56.19c-.14-2,1.59-3.39,2.47-5L90.17,51l-1.68,2.12a6.16,6.16,0,0,1,.82-1.46c.58-.61,1.3-1.12.67-2a7.57,7.57,0,0,0-2,3.93c0,.11.17.26.26.39l-.66.24a28.9,28.9,0,0,1,.47-3.82,7,7,0,0,1,1.27-2.19c.36-.5.45-.45.12-1.12a5.72,5.72,0,0,0-1.84,4.07,4,4,0,0,1,1.17-3.67,1.45,1.45,0,0,0,.25-1.9l0,1-.1,0-.23-.65c-1.09,1.24-1,2.64-1.28,4a5.84,5.84,0,0,1,1.2-4.56,3.06,3.06,0,0,0-1.33,2.08c-.2,3-.35,6-.47,9-.2,5.23.72,4,.49,9.25-.36,8.54.64,20.59.2,29.13-.15,3-.24,8.58-.4,11.58-.24,4.51-.52,9.75-.56,14.28-.07,6.65-1.5,12.08-2.06,18.72-.28,3.24-1.34,7.61-1.47,10.86-.09,2.35-.73,4.42-.66,6.77,0,.72-.33,1-1.12,1.1a5.33,5.33,0,0,1-2.81-.31c-.24-.1.62-4,.63-4.22.43-6.4,2.4-10.82,2.79-17.23.45-7.31,1.3-10.15,1.74-17.45.48-8.1.11-19.87.59-28,.53-9-1.15-17.22-.67-26.22.12-2.16.16-4.33.23-6.49a.68.68,0,0,0-.11-.47,12.23,12.23,0,0,0-1.67-1.52l1.42,2.28-.09,0-.53-.42-.14,0,.52,1.17-.13.08-1-1.22-.12,0,.57,1.52-.13,0-2.54-3.9-.14,0a1.62,1.62,0,0,0,0,.54c.76,1.72,1.54,3.44,2.3,5.12-1.19-.7-1.3-2.15-2.54-3l2.07,4-.23.08-1.36-2.2-.15.06,1.69,3.13-.08.06-.63-.52.06.74-1.41-2.66-.21.07c.58,1.17,1.17,2.35,1.76,3.52l-.19.07-2-3.16-.13,0,1.63,3.92-.12,0c-1.09-1.61-2.18-3.21-3.26-4.82h-.12a1.71,1.71,0,0,0,.1.51c.68,1.22,1.41,2.41,2,3.65a5,5,0,0,1,.41,1.83L76.64,62l-.27,0a2.27,2.27,0,0,0,.1.87c.87,1.51,1.78,3,2.68,4.5a.25.25,0,0,1,0,.32l-1.45-2.09-.14,0,.82,2-.19.07-2.09-3.64-.18,0a4.78,4.78,0,0,0,.25.84c.33.68.74,1.33,1.05,2s.45,1.23.67,1.84l-.18.06-1.91-3.84c-.37,1.63,1,3,1,4.56l-1.25-2.73h-.17l-.12,2.3H75l.19-3.82-.27,0-2.1,5.26c0-1.83,1.12-3.53,1.73-5.37a2.52,2.52,0,0,0-1.35,2.51l-.26-.06c.26-.94.47-1.9.8-2.83.46-1.35,1-2.68,1.53-4,.42-1,.94-2,1.39-3.06A4.61,4.61,0,0,0,77,56.32l-.45.52-.15-.07,1-1.51-.1-.06-1.55,1.54L77,53.88l-.73.72c.59-1.65,2.1-2.78,3.26-4.11-1.47.67-2.18,1.9-3.15,2.93l-.17-.1a3.81,3.81,0,0,1,.23-.4,2.91,2.91,0,0,0,.5-1.54c.06-.63.69-1.22,1.07-1.82a9.08,9.08,0,0,1,2-1.91c1-.52,1.27-1.43,2.17-2.15l-.47.11-.31.15a8.83,8.83,0,0,0-3,3,6.12,6.12,0,0,0-.36.83c0-.35-.1-.74.06-1,.25-.47-.06-.88,0-1.32.09-.69.08-1.39.12-2.08h.26v.64c.52-.29.52-.29,0-2l-1.27,3.27-.22,0,1.19-4.52-.2-.07-.41.67,0-.34c-1.43.07-1.43.94-1.46,1.81,0,.66-.06,1.33-.09,2l-.2,0a8.45,8.45,0,0,1-.31-1.46c0-.5.13-1,.09-1.52-.75,1.28-.41,2.63-.44,4l-.66-1.35-.24.79L74,46.71h-.08l.32,2-.11,0-.63-1.7-.13.75H73.2l.12-2.39H73l.22,3.47-.13,0-.56-2.62a6.7,6.7,0,0,0-.19,3.62l-.59-1.48h-.18l.07,1.87-.07,0-.62-1.54-.15,0L71.3,51l-.23.05c-.21-.59-.45-1.17-.61-1.77s-.21-1.22-.37-1.83a4,4,0,0,0,0,2.37,10.54,10.54,0,0,1,.35,2.41L70,51.65l-.14,0,.58,1.75-.14,0-1.17-1.57-.1.9-.09,0-.82-2.32-.24.06.92,3.12c-1.29-.7-.87-2.15-1.72-3.08A6.5,6.5,0,0,0,68.66,55a6.11,6.11,0,0,1-2.5-3.88,4,4,0,0,0,.22,2.5c.47.89,1.06,1.73,1.6,2.6l-.17.08-2-2.74a6.27,6.27,0,0,0,1.78,3.67c-1-.45-2.31-2.24-2.83-3.74a6,6,0,0,0,.06.95,5.63,5.63,0,0,0,.37.93l-.27,0-.38-1.78-.17,0a10.47,10.47,0,0,0,.3,1.56,16.47,16.47,0,0,0,.69,1.56l-.21,0L64.1,54.29a.87.87,0,0,0-.19,1.13,27.54,27.54,0,0,0,1.37,2.41,4.24,4.24,0,0,1,.53.93l-1-.93-.13.05.67,1.43c-.86-.21-1.79-1.48-2.21-3.07-.26,1.27.7,2.26.87,3.42l-.56-.33.39.89-.19.07L62.52,58c-.54,1.52.67,2.74.93,4.14l-.52-.76a7,7,0,0,1-.45-.79,7.11,7.11,0,0,1-.29-.89l-.2,0,.14,3h-.08a6.78,6.78,0,0,1-.19-1.32,18.88,18.88,0,0,1,.33-3.54A15.6,15.6,0,0,1,63.5,55c.22-.45.51-.89.72-1.35a1.2,1.2,0,0,0,.12-.66c-.12-1-.28-2.06-.43-3a12.66,12.66,0,0,0-1.85,4.74,7.84,7.84,0,0,1,1.59-4.94l-.23-.13L60,53l-.06,0,1.28-1.87-.16-.15-.85,1-.32-.27,1.94-1.91-.17-.14L60.13,51,60,50.9l1.88-2.73L61.75,48l-1.12.43s-.05-.08,0-.09a1.87,1.87,0,0,0,.69-2.11,9.11,9.11,0,0,1-.07-1.3l-.26.46-.13,0,.15-1-.19-.06L60,45.9l0-.6-.19,0a9,9,0,0,0-.6,1.63,5.72,5.72,0,0,0,0,1.75c.07.59.25,1.18.38,1.77l-.22,0-.93-2.85h-.21c0,.64,0,1.27.08,1.91s.19,1,.26,1.55a.61.61,0,0,1-.29.48l-.92-3A6.05,6.05,0,0,0,58.36,52l-.23.06L57,49.31h-.1l.37,2.6-.06,0-.71-1.79-.25,0,.64,2.87-.12,0-.87-2.62h-.12l0,1.05h-.13L55.5,51a6,6,0,0,0-.7,3.42l-.23-1.21-.18.21.21-1.67-.42.48L54,52.15c.33-.57.65-1.14,1-1.7.67-1,1.29-2.08,2.05-3.06a19.74,19.74,0,0,1,4.19-4c.87-.62,1.86-1.13,2.79-1.69.08,0,.21-.11.2-.16-.14-.68.6-.78,1-1a15.81,15.81,0,0,1,4.59-1.89c.63-.11,1.3-.13,1.92-.26a9.53,9.53,0,0,0,2.06-.66c-2.7-.2-4.94.75-7.21,1.7a6.71,6.71,0,0,0,.77-.49,6.72,6.72,0,0,1,2.74-1.55c.14,0,.25-.36.23-.54-.09-.94-.23-1.87-.37-2.94a4.2,4.2,0,0,0-.89.54c-.73.83-1.4,1.69-2.1,2.53-.13.16-.28.32-.42.47l-.19-.1L68,35l-.22,0-.09-.08.91-.61-.06-.07-1.09.45-.1-.14,1.9-.83c-1.11-.06-2.27.56-4.64,2.38l.44-.63c-.57-.19-.57-.19-1.81,1.38-.07-.31-.12-.56-.17-.81.69-.08,1.53-1.09,1.21-1.5-.47.47-1.37.69-1.19,1.52-.39-.26-.64,0-.7.22a1.5,1.5,0,0,1-.54.81,3,3,0,0,0-.53,1l-.45-.49-.22,0,.26.91-.44-.25,0,.61-.69-1-.14.61.09,0L59.16,38l-.19.07.5,1.63-.18.09c-.25-.34-.52-.66-.75-1s-.45-.77-.67-1.16l-.25,0,.65,2.08-.57-.6-.1,0,.51,1-.24.08-1.32-2.53a6.2,6.2,0,0,0-.28,1,4.72,4.72,0,0,0,.1,1.12A3,3,0,0,1,56.45,41l-.56-1.66h-.13l-.14,2.84c-.35-.21-.35-.21-.14-2.81h-.07c0,.1-.07.19-.11.32L55,39.36,54.83,43l-.15.07-.74-1.44c-.42.89.06,1.76.34,2.64A4.45,4.45,0,0,1,53.44,41c-.59,1-.11,2,0,3.21a4.28,4.28,0,0,1-.58-3.3l-1,1.55h0l.1-.33-.15,0a14.29,14.29,0,0,0-.74,1.46,7.82,7.82,0,0,0-.45,1.64c-.09.55-.07,1.11-.16,1.66a6.89,6.89,0,0,1,2-5.89c-1.13.43-2.26,1.6-3.59,3.59.56-2.18,2-4,3.63-5.86l-1.31.65a15.89,15.89,0,0,0,1.13-1.42,5.39,5.39,0,0,1,2.35-2.4c1.2-.52,2.45-1,3.68-1.45.37-.14.76-.24,1.15-.36l-.11-.23c-1,.28-2,.51-2.89.87s-1.74.82-2.73,1.16L55.23,34l0-.07-1,.55-.09-.1a9.33,9.33,0,0,1,1.17-.75c1.79-.83,3.57-1.69,5.44-2.41a13.48,13.48,0,0,1,2.84-.5c1.16-.16,2.32-.29,3.48-.43A6.8,6.8,0,0,0,68.47,30l-2.6.07,0-.2,3.6-.36c-1.48-.31-2.9.11-4.38.1.87-.19,1.74-.37,2.59-.58a7.46,7.46,0,0,0,.89-.35l.9-.33L68,28.32a18,18,0,0,1,6.73.55c-1.85-1-3.92-1.07-6-1.26l3.1.05a11.54,11.54,0,0,0-5.59-.51,11.12,11.12,0,0,1-1.63,0l1.31-.37c-.27-.49-.56-.5-1-.12a2.14,2.14,0,0,0-.71-.07c-.1,0-.12.26-.17.4l.55.14-.68.15c-.2-.43-.47-.75-1.11-.4l-.05.87-.17.05-.76-1.29-.06,1.16h-.14l-.51-1-.11,0,.22,1.14-.11,0-.8-1.08-.25.08.14,1.1-.63-.74.06.73-.14,0a5.73,5.73,0,0,0-.38-1c-.11-.19-.49-.46-.55-.43a1.29,1.29,0,0,0-.65.55,2.26,2.26,0,0,0,0,.93,9.6,9.6,0,0,1,.08,1.31,3.31,3.31,0,0,1-.56-2.82l-.2,0-.54,2h-.11L56.74,27l-.22,0a7.5,7.5,0,0,0-.23,1.31,9.63,9.63,0,0,0,.21,1.52A2.73,2.73,0,0,1,56.22,27c-1.71.48-1.52,1.87-2.17,3a9.78,9.78,0,0,1,.06-1.08c0-.3.15-.6.25-1a11,11,0,0,0-3.1,3.68A6.38,6.38,0,0,1,54,27.88a3.08,3.08,0,0,0,.55-.59L54.29,27l-5,2.48A13.14,13.14,0,0,1,54,26.7a19.48,19.48,0,0,1,8.09-1.35c.86,0,1.71-.05,2.57-.06a1.73,1.73,0,0,1,.54.11,2.48,2.48,0,0,0,.68.16c.91-.06,1.81-.16,2.71-.25,0,.16,0,.32-.06.39l3.16-.52c-.58,0-1-.09-1.5-.06s-1.08.13-1.62.2c.39-.15.79-.28,1.17-.44a1.15,1.15,0,0,0,.52-.38l-3.23,0c.08-.2.08-.2,1.74-.76-1,0-1.93.07-2.89.08a2.94,2.94,0,0,1-.71-.17l0-.23,2-.34c-.46-.3-.91-.31-3.74.05l1.06-.5-.56-.11.25-.15,0-.12-1.15.26c-.18-.4-.79-.45-1.78-.13-.13-.47-.13-.47,1.5-.73-1.47-.57-2.77.61-4.1-.05l1-.48,0-.08-3.09.75.76-.44,0-.16-3,.32.89-.6c-.52.11-1,.23-1.4.29a12.58,12.58,0,0,1-1.35.08l.52-.49c-.66.05-1.15,0-1.61.12a10.28,10.28,0,0,1-1.54.27l.4-.38,0-.08-2.24.72-.08-.18,1.78-.59,0-.09-1,.1,0-.16a10.29,10.29,0,0,1,1.54-.25c2.67,0,5.36-.05,8,.14a31.5,31.5,0,0,1,9.26,2.09c2,.8,3.93,1.87,5.87,2.85.92.47,1.79,1,2.66,1.53a2.25,2.25,0,0,1,.52.45c.66.71,1.68.3,2.49.57l-4-2.19,2.64.59.09-.23-1.76-.5.38-.08c-.59-.45-1.59-.37-2-1.11h-.78l0-.23,1.1-.11-1.68-.74.7-.21-1.48-.58.07-.16,1.25.31,0-.15-2.88-.85h.78c-.29-.1-.52-.17-.73-.26s-.57,0-.26-.3a2.48,2.48,0,0,0-.87-.22,6.29,6.29,0,0,0-1.22.5l.31-.66c-.46-.09-1-.08-1-.61,0-.09-.37-.23-.59-.26a11,11,0,0,0-1.11-.07l.51-.48a5.43,5.43,0,0,0-4,.35l-.08-.21,2.34-.73-3.73-.19-.05-.18a5.89,5.89,0,0,1,1.14-.27c.8,0,1.62.05,2.42,0a12.91,12.91,0,0,0,1.63-.28,4.7,4.7,0,0,1,.63-.13,17.5,17.5,0,0,1,5.81.71,10,10,0,0,0,2,.12l0-.22L72.06,18,72,17.91l.8-.22,0-.09c-.3,0-.6-.05-.9,0s-.69.08-1,.07a4.29,4.29,0,0,1,3.1.23,3.52,3.52,0,0,0-3.59-.57l0-.18,1.51-.38L70,16.78l.25-.36-1.78.09-.06-.16,2.38-.57v-.1L67.2,16a4.44,4.44,0,0,1,3.8-.43c-1.39-.82-2.81-.21-4.22-.13l-.07-.19,2.34-.6a4.71,4.71,0,0,0-2.52.29l-.06-.2,2.45-.45,0-.11-2.73.34.2-.25-1.23.23-.09-.21,2.48-.75,0-.12-3.13.41,1.18-.53-.06-.13L62.82,14a5.3,5.3,0,0,1,4-.9l0-.19-3.26.05,0,0L66,12.46a7.6,7.6,0,0,0-5.36-.69v-.18l2.63-.24,0-.11-5-.82A15.49,15.49,0,0,1,65.84,12c-.5-.43-1-.87-1.51-1.28s-1.08-.83-1.64-1.22A13.12,13.12,0,0,1,61,8.26l1,.5,0-.39a1.11,1.11,0,0,1,.19.09c.34.22.61.54,1.17.4.17,0,.43.23.68.3a14.39,14.39,0,0,1,4.56,2.43,54,54,0,0,1,6,5.34c.83.81,1.42,1.77,2.2,2.62a3,3,0,0,0,1.34.84,9.6,9.6,0,0,1,2.73,1.38,1.94,1.94,0,0,1,.39.46c.53-.28.36-.62.16-1-1.29-2.27-2.52-4.56-3.88-6.8-.65-1.06-1.55-2-2.28-3a17.64,17.64,0,0,1-1.21-2c-.65-1.25-1.27-2.51-1.89-3.76l.17-.07L73.7,7.73l.06,0-.54-2.17.15,0,1.31,3.27.12,0L74.15,6l.19,0L76,9.9l-.4-2.26.15,0,.84,2.67h0L76.46,7.8l.23,0,1.48,3.81-.08-1.84h.17l.57,3.34H79a22.41,22.41,0,0,0-.59-4l.19,0,1,3.5c.09.31.21.61.32.92l.3,0v-1h.11l.58,2.34H81V13.55l.15,0c.14.77.31,1.54.41,2.31.05.46.15.71.6.42l.73.87.24-.13-.38-.52.68-.18L83,15.19l.74.31-1-2.82.15,0,1.46,2.67c-.29-1.86-2-3.4-1.62-5.43L84.38,12l.17-.07L82,7.22l.73,0L81.93,6l.18-.11,1,1.06.16-.07L81.55,4.14l.13-.07,2.06,2.74.13-.06-1-1.68L83,5,85,7.06,83,2.53l.18,0,1.88,4A24.39,24.39,0,0,1,86,0l.26,0-.63,6,.07,0L87.8,1.46l.17.06L85.82,6.63l.12,0,2.32-3.13.14.07-1.47,2.2.1.06,1.32-1.43.13.07L86.74,6.87l.11.06L89.29,4.2l.15.08-1.8,2.39.09,0,1.38-1.42.15.09-2.45,3,.1.07L89.52,6l.17.11-.77,1.11.1.07L89.59,7l.51.85.37-.49.3.38-.22-1.77.19-.07a12.32,12.32,0,0,1,.73,1c.22.38.38.79.49,1l-.1-2.82.32,0,.63,2.16.4-3.36.26,0-.21,4,1.6-2.28.22.13,0,.59c.1-.11.16-.22.25-.26A1.29,1.29,0,0,1,95.7,6a1.5,1.5,0,0,1-.08.32,2.24,2.24,0,0,0-.35.69l.52-.29c0,.07,0,.14,0,.18a10.4,10.4,0,0,0-.7.79c-.6.84-1.16,1.69-1.77,2.58l.31.11-1.67,2.13c1.62-1.4,2.86-3.07,4.58-4.38l.18.11-2.86,6.39.56-.18-2.2,2.82.26.18L94,16.08l.13.11-2.4,2.16.15.12,1.68-1.19.13.11L91.85,19l.05.05,1.57-1,.11.1-1.88,1.2.16.15L93,19.12l.12.15-.82.77.7-.16.13.12-1.57,1.14.12.12,1.21-.73.06.06-1.28,1.12.14.11,1.31-.71c.09,0,.16-.13.25-.13.85,0,1.28-.39,1.32-1.12l.4.86,1.29-2-.08,1.46.24.06L98,17.06l.12,1.15.18,0,1-1.56h.17L99,19.78l.17,0c.24-.67.48-1.34.73-2a10.19,10.19,0,0,1,.94-1.94l-.07,1.25,1.18-1.58.25.08-.45,1.56.09,0c.24-.46.5-.92.72-1.39a1.45,1.45,0,0,1,1-.94,6.45,6.45,0,0,0,1.22-.69l0,.25.41-.24-.14.67,1.19-1.2.06.58L107.49,13l.16.09-.45.65.11.07.88-1,.18.08-.74,1.39,2.18-2,.22.14-1.58,1.85.11,0c.87-.62,1.74-1.24,2.63-1.85.11-.08.34-.05.52-.07,0,.15,0,.33,0,.43a12.66,12.66,0,0,0-.94,1.12l2.63-1.55.13.1-1.76,1.71,3.56-1.71.11.13-4.56,2.63.09.15c2.41-.59,4.83-1.07,7.35-.33a14.09,14.09,0,0,0-5.22.18l2.37,0v.09l-2.88.1v.17l1.78.09-2.39.35.41.19-2.9.52.24.13-2.62.43a29.79,29.79,0,0,0,3-.1v.07L103.46,19l.06.17L106,18.8v.06l-.75.3,1.35.22-3,.75,1.18,1.17c-.35-.21-.68-.43-1-.62a2.15,2.15,0,0,0-2.38.18l1.48-.09v.05l-1.94.41.7.18-.55.25.41.22L99,22.24l.06.1,1.18.06-1.78.5,0,.09,1.14-.14,0,.13-1.11.31,1.16.35.91-.84.21.34a1.09,1.09,0,0,0,.46-.06c.29-.19.54-.42.81-.63l.14.12-.31.43.38-.09-.18.71c.38-.36.78-.78,1.24-1.15s.86-.57,1.27-.86c.09-.07.09-.21.13-.31l.5.18-1.11,1.1.17.12a4.54,4.54,0,0,1,1.12-.88,6.71,6.71,0,0,1,2-.47c2.4-.15,4.81-.24,7.21-.35a5.09,5.09,0,0,1,.65.07L113,21.4l0,.11,2.41.12-.52,0v.1l10.56.54-3.52.23v.22a11.89,11.89,0,0,1,6.72,1.84,14.39,14.39,0,0,0-5.16-1.5l.32.51-1.73-.48c.69.43,1.71.4,2.1,1.27l-2.16-.88,0,.07,2.18,1.27-.1.16-2.2-1-.1.12,1.14.75-3.76-1.51-.09.16L122.3,25l-.1.18c-2.22-1-4.44-2-7.09-1.8a11.42,11.42,0,0,1,6.27,2.12l-.53-.15-2.58-1.23-.14.24,2.73,1c-.65-.13-1.29-.25-1.93-.4a4.33,4.33,0,0,0-.89-.2l.31.32a1.66,1.66,0,0,1-.24,0,6.11,6.11,0,0,0-2.43-.51,12.57,12.57,0,0,1-1.83-.36c-.79-.1-1.61-.1-2.41-.14v.2a19.36,19.36,0,0,1,2.44.3,14.72,14.72,0,0,1,2.11.84l-.1.18-4-.88,0,.13.37.28-3-.4,0,.26,3,.16a5.16,5.16,0,0,1,2.61,1c-.84-.14-1.5-.18-2.12-.35a14.32,14.32,0,0,0-5.45-.41,2.7,2.7,0,0,0-.58.23,13.26,13.26,0,0,1,5.64.81l-4.44-.73-.05.17,3.16.67,0,.14-3-.48,0,.14.62.21-1.32-.07,0,.22c1.38.17,2.77.27,4.13.52,2.19.39,4.38.83,6.53,1.35a35.25,35.25,0,0,1,3.41,1.18l0,.14h-.29l4.28,3.06L125,33a16.37,16.37,0,0,0-6.74-2.87,10.49,10.49,0,0,1,5.12,4.41c-.68-.7-1.3-1.45-2.05-2.1a13.9,13.9,0,0,0-2.53-1.68c.28.53.57,1.06.85,1.6a.89.89,0,0,1,.16.48c-.14,1.29,1,1.79,2.08,2.37,1.26.66,2.47,1.38,3.7,2.08l-.12.18-1.08-.39,0,.07,1.7,1,0,.07-.79-.26,1.93,1.61-.2.21a15.78,15.78,0,0,0-5.75-2.38c2.23.79,4.54,1.46,6.08,3.19l-1-.52,1.94,2-.14.12a17,17,0,0,0-5.47-3.54,8.84,8.84,0,0,1,2.9,6.11A12.39,12.39,0,0,0,123.2,40a5.56,5.56,0,0,1,0,3.58c.1-2.29-.16-4.47-2.6-6.26a5.39,5.39,0,0,1-.57,5.29,16.83,16.83,0,0,0,.52-2.5,13.93,13.93,0,0,0-.22-2.72c0-.23-.32-.45-.57-.64A6.41,6.41,0,0,1,119,40.8l0-1-.55.51a5,5,0,0,0,.08-3.93l-.24.33-1-1.61-.25.09a4.29,4.29,0,0,1,.23,4c0-.12,0-.24,0-.36a3.31,3.31,0,0,1,0-.44c-.22.51-.44,1-.65,1.51a8,8,0,0,0,.11-1.18c-.07-1.07-.14-2.15-.31-3.21-.09-.58-.4-.74-.92-.71a4,4,0,0,1,.12,4.55l1,.53c.2.3.31.7.61.89A9.24,9.24,0,0,1,120.72,45c.42.9.9,1.77,1.31,2.67a2.9,2.9,0,0,1,.2,1c-.94-1.57-1.25-3.45-3.35-4.45l-.78,2.36-.27-.05a4.06,4.06,0,0,0,.39-3.31A3.46,3.46,0,0,1,117,46.24c.56-1.21,1.46-2.37.72-3.88l-.48,2.06-.25,0c.11-.88.61-1.75.05-2.65a3.47,3.47,0,0,1-1.4,3c.64-1.11,1.51-2.17.86-3.51a4,4,0,0,1-1,2.73c.07-.58.15-1.16.21-1.75a2.64,2.64,0,0,0-.57-2.49,1.17,1.17,0,0,0-.31-.17.12.12,0,0,0-.13,0l-1-.78-.11.06.76.86-.21.14-.37-.5-.11.86h-.12l-.16-.38-.21.25c-.14-.7.13-1.48-.71-2l-.08,1.51-.89-1.84-.28,1.48c-.33-.55.19-1.29-.76-1.69l-.25.94-1-1.24-.18.08-.11.79c-.22-1.26-1.81-1.15-2.73-1.77l.46.81c-2.25-.68-4.12-1.9-6.48-1.81a6.88,6.88,0,0,1,3.61,1.53c-2-.48-3.85-1.27-6-1.16l1.58.85-.07.15c-.82-.2-1.63-.44-2.46-.58a2.47,2.47,0,0,0-2.38.51,20,20,0,0,0,2.06.77c2.42.63,4.85,1.19,7.26,1.8a6.27,6.27,0,0,1,2.55,1.21A19.27,19.27,0,0,0,109,42a8.83,8.83,0,0,1,2.68,2.15c.7.93,1.7,1.7,2.49,2.58a14.52,14.52,0,0,1,1.47,2c.17.27.11.64.24.94.29.69.64,1.37,1,2.05.1.21.18.42.24.56l-2.63-3-.33.13a10.52,10.52,0,0,1,1.69,5.54l-2,2.72-.24-.12.78-1.23-.06,0-1.68,1.44c1.34-1.53,2.44-3.1,2.27-5.1l-2.17,3.27-.37-.14,1.52-3.58-.08,0-2.17,2.76-.18-.09.66-1.32-.08,0-.77.67-.11-.06,1.19-1.72-.13-.08-2.21,1.64,1.17-3.23-.1,0-1.13,1.56-.06,0L111,49.22l-.33-.13-1.35,1.84c.27-1.22.54-2.41.81-3.59l-.24-.06L109,49.5l-.15,0,.47-1.53-.15,0-.57.76c.16-1,.31-1.76.41-2.55s0-.75-.71-1.17l.27,4.25-1.48-2c.06.81,1.13,1.38.65,2.37L106.79,48l-.18,0a2.51,2.51,0,0,0,.1.62c.41.94.86,1.88,1.27,2.82a1.26,1.26,0,0,1,.08.75l-.39-.41.08,1.18-2.36-5-.28.06c.59,2.07,1,4.13-.13,6.28a13,13,0,0,0-.25-6.34,6.08,6.08,0,0,1-2,3.87c.81-1.53,1.79-3,1.76-5a6.7,6.7,0,0,1-2.62,3.3c.84-1.35,2.49-2.36,2.5-4.08l-3.58,3.35-.26-.18c.55-.53,1.11-1,1.65-1.58s1.14-1.14,1.65-1.75a.78.78,0,0,0,.08-.72l-2.72,2.49-.19-.13,2-2.22-.14-.09-2.57,2.44.34.42-1-.2.56.61-4.64-2c0,1.18.89,1.47,1.76,1.84,1.2.52,2.33,1.14,3.5,1.72l-.12.18-1.38-.56-.07.07,1.78,1.44-.09.08-3.45-2-.58.43,4.31,2.74-.06.1-2.85-1.35-.07.09,1.49,1.21-.09.11L99,52.12l-.12.08,1.52,1.91-.7-.3c.25.8.45,1.48.67,2.15.06.2.24.38.29.58.25,1.18.51,2.36.72,3.55a21.75,21.75,0,0,1,.31,2.41,11.64,11.64,0,0,1-.06,1.44h-.18l-.12-1.56-.25,0a2.52,2.52,0,0,0-.29.85,11.33,11.33,0,0,1-1,3.82l.89-6.13-2.6,2.64c.17-.25.32-.5.5-.74.68-.87,1.67-1.6,1.75-2.82a9.84,9.84,0,0,1-1.52,1.51A1.53,1.53,0,0,0,98.08,63.49Zm-.14-29.67,1,.33,1.31.44.07-.17c-.2-.15-.37-.38-.61-.44-.57-.16-1.14-.56-1.77-.14l-.71.2,0,.24,1.52.08,0-.1ZM95.55,52l-.42,1.3.22.05.79-1.53-.62.2.5-1.1c-1.65,1.31-1.65,1.31-1.25,1.74ZM78.05,36.05l.8-.3a6.48,6.48,0,0,0-3.33,0l-.33-.45-.27,1.07,2.58-.3-.2.18c1.2.22,1.39.2,1.92-.26Zm-1.8,6.67a1.14,1.14,0,0,0,.41,0,2.44,2.44,0,0,0,1.68-2.33c0-.3-.25-.64-.44-1l-.23,1.29-.45-1-.15,0,.43,1.49-.1,0L77,40.55l-.14.06.48,1-.54-.24,0,.68-.31-.46c-.05.43-.09.79-.13,1.16l-1.73-1.18.67,1.93ZM93,42.1a3.11,3.11,0,0,0,1,.38,15.12,15.12,0,0,1,4.45.65c.66.21.75.13.81-.49L98.21,43l.47-.55-.1-.11-.3.14-1.89-.67v.57c-.57-.68-1.83-.91-3.45-.68,0,.13.07.27.1.41l-.84-.18-.08.19.54.82Zm13-17.85-4,.44,0,.13,1.92-.1v.13L101,25.3l0,.14,1.21-.05-1.19.32.69.23-2.31.44.19.18-3.46,1.26.07.14,1.64-.14-3.35,1.36.1.16,1.31-.46L96,29l-.52.46-1.91.76.1.17A9.93,9.93,0,0,0,94.93,30c.23-.11.35-.35.52-.54a4.75,4.75,0,0,0,2.69-1.15,13.89,13.89,0,0,1,3.7-2.08,32.56,32.56,0,0,0,3.46-1.41,3.5,3.5,0,0,0,.71-.5,2.63,2.63,0,0,0,.49-.07c.46-.16.89-.39,1.36-.52,1-.29,2.11-.54,3.16-.8l0-.2-3.49.11v.1l2,.1c-.55.27-1.17-.18-1.67.35-.22.22-1.05,0-1.54,0l.26.36-2,.19ZM80.51,52.47l-.23.14c0,.22-.06.48,0,.66A15.07,15.07,0,0,0,81.53,55c.67.82,1.4,1.6,2.11,2.4l.26-.08A5.7,5.7,0,0,0,83.39,56c-.59-.88-1.26-1.72-1.93-2.56A12,12,0,0,0,80.51,52.47ZM119.8,34c-.35-1.82-1.27-3.6-2.71-4.05a3.91,3.91,0,0,1,.82,3.13.46.46,0,0,0,.26.38C118.67,33.65,119.19,33.8,119.8,34ZM99,44.89a13,13,0,0,0-4.79-1.11c.19.39,0,.83.72.94,1.2.17,2.39.44,3.62.67ZM95.69,33.23a1.8,1.8,0,0,0-2.25.2l.32.12-.77.12,0,.18c.75,0,1.5.1,2.26.11,1.33,0,1.79-.53,1.37-1.57a3.48,3.48,0,0,0-.33-.55l-.87.41.91.16C95.56,32.31,95.8,32.81,95.69,33.23Zm13.94-3.11-5.58.54v.24a8.39,8.39,0,0,0,2,.3c1.21-.09,2.4-.35,3.65-.55Zm-9.47,17.29c-.08-.12-.12-.35-.28-.44a13.9,13.9,0,0,0-1.82-.88,6.52,6.52,0,0,0-3.25-.64,1.86,1.86,0,0,0,.79.6C97.07,46.51,98.57,46.94,100.16,47.41Zm15.73-14.83c.34-1.46-.26-3.43-1-3.61l.34,2.73-1.35.08V32ZM99.14,55.06l-.72,1.16a1.57,1.57,0,0,0-1,2.33c.45-.54.88-1.07,1.34-1.57S99.9,56,99.14,55.06Zm16.31-15.94c.52-1.36.07-3.86-.6-4.38.11,1.1.24,2.34.36,3.59H115l-1.14-1c0,.26-.14.59,0,.7A17.58,17.58,0,0,0,115.45,39.12ZM93.79,42.64l-.14.32c.23.12.45.33.67.33a16.22,16.22,0,0,1,5.1.83c.14.05.36,0,.54-.08v-.27ZM69.87,19.08V19h.95v-.18l-4.94-.61,0,.18,4,1.11.49-.32ZM89.68,48.21A5.37,5.37,0,0,0,88,51.89a20.08,20.08,0,0,1,1.49-2.13C89.89,49.27,90.2,48.86,89.68,48.21Zm7.86,13.61.32.09c.76-.75,1.56-1.48,2.25-2.27.21-.25.15-.66.23-1.14-1,1.06-1.78,2-2.58,2.86A1.5,1.5,0,0,0,97.54,61.82ZM78.18,47.17a8.23,8.23,0,0,1,4.42-3.48c.17,0,.25-.26.38-.39A6.93,6.93,0,0,0,78.18,47.17Zm19.33,7.62-.64.57c-.4.37-.62.78-.3,1.27a.8.8,0,0,0,.45.19,4.25,4.25,0,0,0,1-1.12C98.12,55.5,97.72,55.14,97.51,54.79Zm13.92-17.92-1.56-3.4-.2.06c0,.13.1.27.14.4a8.12,8.12,0,0,1,.59,2.12C110.41,36.65,110.63,36.82,111.43,36.87ZM88.56,57.09a24.78,24.78,0,0,1,1.78-2,1.19,1.19,0,0,0,.32-1.37A8.39,8.39,0,0,0,88.56,57.09Zm2.35-5c-.35,1.32,1.25,1.42,1.83,2.2.09-.27.13-.57,0-.72s-.66-.35-.94-.57A10.53,10.53,0,0,1,90.91,52.1Zm-19.43-13a12,12,0,0,0-5.9,1.79Zm44.72-9.22a12.69,12.69,0,0,1,.11,2.31c-.07.56.18.69.72.74A4.5,4.5,0,0,0,116.2,29.85ZM112.36,36h-.14l-.14.92c-.53-2.13-.53-2.13-1-2.35.23.71.49,1.4.67,2.11.11.45.36.68,1,.71ZM100,46.05l.94-1a1.82,1.82,0,0,0-2.2.49Zm2.73-2-2.33,2.19.5.29C102.89,44.56,102.89,44.56,102.77,44Zm4.38-.26c0-.95-.35-1.43-1.36-1.72C105.75,43.12,105.86,43.27,107.15,43.76ZM98.34,55.41c1.07-.8,1.08-1,.13-1.65C97.51,54.22,97.73,54.79,98.34,55.41ZM77.51,37a8.47,8.47,0,0,1,.7,1.07c.23.53.6.5,1.09.34C78.58,36.94,78.37,36.78,77.51,37Zm-6.84.21.21.11c.22-.15.65-.33.63-.46a18.88,18.88,0,0,0-.56-2l-.16,0Zm3.23,4.39-.24.06.39,2.46.83-.49Zm7.75,15.66.26-.09-1.9-3C79.74,55.61,81.23,56.21,81.65,57.22Zm11.9-12.64c.7-.43.66-.76-.21-1.62C92.6,43.56,92.6,43.56,93.55,44.58Zm20.41-16,.34,2.86.55.06A5.36,5.36,0,0,0,114,28.62ZM98.44,31.55l-.21,0L98.48,33c1-.62.25-1.33.57-2L98,31.11l0,.15Zm2.75,13.32c.28-.69,1.45-.88,1.21-1.89l-1.85,1.55ZM71,46.05l-1-1.86-.18.06.46,2.41Zm36-18.23a6.54,6.54,0,0,1,.3,1c.06.52.38.62.9.5C108.24,28.23,107.89,27.8,107,27.82Zm3.8,24.87a4.54,4.54,0,0,0,1.44-3.42ZM82.42,44.3a5.81,5.81,0,0,0-2.91,1.94A16.43,16.43,0,0,0,81,45.3C81.45,45,82.32,45.1,82.42,44.3Zm-2.88-1.38-.28,0-.33,2.25C79.89,44.52,79.9,44.47,79.54,42.92Zm14.21,2.81a5.38,5.38,0,0,0-.53.75,5.11,5.11,0,0,0-.25.87l.26.08,1.12-1Zm0,3.73,1.71-1.93C94.47,47.68,93.55,48.77,93.78,49.46ZM113.42,31c.67-.75.29-2.44-.38-2.54ZM94.18,51c1.48-1.18,1.61-1.42,1.21-2.22Zm14.93-28.8c3,.49,3,.49,3.66.18ZM80.93,35.39l-1.08.55c.65.29,1.11.83,1.85.47ZM109,45c0-1-.08-1.12-.87-1.43C107.93,44.27,108.18,44.75,109,45Zm-6.69-14.26-.92-.05c.12.39.19.71.31,1,0,.11.19.19.28.29.09-.1.25-.19.27-.31A8.33,8.33,0,0,0,102.35,30.77ZM89.2,7.67l-.27-.19-2.67,2.9.15.11Zm-16.26,37c.69-.35.4-1.16-.74-2.11Zm-4.49.3,1,2.46C69.8,46.77,69.36,45.69,68.45,44.94Zm55.19-7.61,0-.13-4-1-.09.27ZM111.1,46.87c-.11-.67-.1-1.31-.91-1.66C110,45.92,110.39,46.4,111.1,46.87Zm-46.47,2.4h-.27l.11,3.41h.22ZM119,34.18c-1-.59-2.94-.42-4.39-.34.71.07,1.43,0,2.14.07S118.21,34.08,119,34.18ZM83.56,42.1l-.21-.29L81.09,43l.18.24Zm29.31-5.52c0,.64-.26,1.23.83,1.37l-.23-1.47-.35.49ZM78.24,61.38l.21-.06-.91-2.2C77,60.17,78,60.67,78.24,61.38Zm23.08-32.47c.73.07,1.11.69,1.82.31C102.89,28.57,102.36,28.44,101.32,28.91Zm10-1-.13,0c.11.55.2,1.09.35,1.62,0,.16.26.29.41.43l.25-.14ZM79.68,38l.76-.44c-.6-.27-.72-1-1.52-.63ZM65.86,47.86c-.46.93.11,1.69.58,2.46Zm2.33.54.33-.06c-.24-.88-.91-1.64-1.2-2.5l-.17,0Zm44.63-17.67c.22-1.64,0-2.29-.73-2.5ZM73.9,36.48,73.41,35l-.17,0-.08,1.62ZM113,33.93l1.07,2.71C113.83,35.72,114.15,34.64,113,33.93ZM84,50l.21-.11-1.59-2.09-.29.15ZM71.34,43.48l.9,1.66C72.8,44.82,72.8,44.82,71.34,43.48Zm8.14-9.11-1-.29,0,.25c0,.06,0,.12,0,.1l-.72-.37-.11.14C78.17,34.83,78.23,34.83,79.48,34.37ZM61,32.57l-2.66.61.06.19C59.17,32.89,60.31,33.43,61,32.57ZM72.09,20.11,72.2,20l-.39-.21c-.38-.15-1-.52-1.33.15Zm37.24,9.43c.27-1,.06-1.38-.6-1.42ZM72,36.86c.6-.11.6-.11-.11-1.68Zm41.6,12-.26.07.68,1.83.33-.09Zm-37-10.32.19-.13c-.42-.94-.76-1.2-1.34-1Zm29.67-10.51-.18.09.18,1,.88.05ZM117.64,35l0,.19,3.34.39,0-.17Zm-5.47-4.79c-.72-.13-.83.16-.78.61l.84,0ZM79.06,57.29l.45-1.4C78.49,56.44,78.43,56.63,79.06,57.29Zm39.62-21.73-.05.27,2.32.33,0-.2ZM81.51,50.13c-.22.44.29,1.19,1.1,1.68Zm2.51-2,.27-.09-1.1-1.52C82.89,47.27,83.81,47.54,84,48.1ZM61.55,45.53l.27.07.52-1.77L62,43.76Zm44.21-16.34c-.18-.66-.3-.74-.75-.52-.11,0-.24.2-.22.27a.51.51,0,0,0,.32.25A2.83,2.83,0,0,0,105.76,29.19Zm-3.59,4c-.4,1-.33,1.16.44,1.17ZM106.26,48l.34-.14-.84-1.11-.31.15Zm-29-24.84-.13.22,2.2,1,.11-.17Zm33.61,7.1-.91.09-.09.44h1ZM73.93,38c.33.22.2.89,1,.69C74.72,38.32,74.65,37.87,73.93,38Zm25,1.45-1.14.75C98.63,40.38,98.94,40.17,98.93,39.48Zm-35.4-6.66h.28l.46-1-.12-.12c-.22.17-.5.3-.62.51S63.52,32.6,63.53,32.82Zm41.71,9.72c.43-.66.32-.87-.71-1.21ZM113.86,48l.16-.19-1.66-.93-.14.18ZM99.8,56.65l-.23-.14-1.15,1.54.22.11ZM117.17,29l0-.1-2.2-.3,0,.16a2,2,0,0,0,.47.15C116,28.94,116.6,29,117.17,29ZM97.35,31.83l.23,1.33C98.12,32.92,98.05,32.46,97.35,31.83ZM71.05,44c.15.51-.2,1.17.5,1.54l.24-.08Zm9.24-9.14L79,34.84C79.44,35.47,79.85,35.39,80.29,34.9Zm-14-8.11L68,26.65C67,26.25,66.45,26.3,66.32,26.79ZM78,23l.06-.11L75.78,22l-.1.2Zm-.79,37.3-.3.11,1,1.59L78,62ZM73.94,39l-.46-1-.56.78ZM88.1,42.11l.53,1.31C89,42.77,88.93,42.68,88.1,42.11ZM91,47.64l.22,0L91,46.74h-.24l-.36.51Zm-9.84.12L81,47.61l-1.73,1,.12.13ZM93.48,57.94c.42-.53-.07-.81-.34-1.16C92.8,57.15,92.8,57.15,93.48,57.94Zm9.43-27.44.07.17,2.26-.51-.07-.19Zm4,14.22c.35-.63.21-.84-.67-1ZM90.62,50.85h.23l.25-.66-.77-.36ZM75.25,27.61l.16-.22-1.6-.74-.1.16ZM90.37,48.82l-.23.21,1.26.78.19-.2Zm9.25-17.68h-.17l0,1.41.37,0ZM92.06,55l.17-.12L90.9,53.75C90.81,54.62,91.73,54.57,92.06,55Zm-13.58-1.5-.19-.13L77,54.61l.22.15Zm29.33-19.27-.2,0,.09,1.41.26,0Zm-17.93,13c.58-.61.58-.61-.3-1ZM63,48.84l.18.19,1.55-.91L64.59,48Zm38-18-.2,0,.1,1.45.35,0ZM92.12,58.06c-.72.5.18.61.26,1C92.93,58.53,92.45,58.32,92.12,58.06Z"/><path class="cls-1" d="M70.07,89.49s-1.6,2.62,2.05,2.39,28.11,0,28.11,0,2.51.23,2.62-1.2-2.39-1.88-2.39-1.88H75.87S71,88.81,70.07,89.49Z"/><path class="cls-1" d="M35.91,150.11h4.86a27.32,27.32,0,0,1,5.64.37,6.31,6.31,0,0,1,3.42,2.11,6.84,6.84,0,0,1,0,8,6.3,6.3,0,0,1-3.57,2.13,31,31,0,0,1-6.2.4H38.35V174.5H35.91Zm2.44,2.39v8.27l4.13,0a10.86,10.86,0,0,0,3.66-.45A3.7,3.7,0,0,0,48,158.9a4.11,4.11,0,0,0,.66-2.28,4,4,0,0,0-.66-2.24,3.68,3.68,0,0,0-1.75-1.45,10.48,10.48,0,0,0-3.56-.43Z"/><path class="cls-1" d="M55.65,149.5H58v10.2a9.79,9.79,0,0,1,3.1-2.78,7.56,7.56,0,0,1,3.66-.92,6.35,6.35,0,0,1,3.59,1,6,6,0,0,1,2.31,2.76,14.53,14.53,0,0,1,.75,5.43v9.28H69.06v-8.6a21.52,21.52,0,0,0-.25-4.16,4.74,4.74,0,0,0-1.57-2.7,4.63,4.63,0,0,0-3-.9,5.69,5.69,0,0,0-3.77,1.39A6.47,6.47,0,0,0,58.3,163a23.93,23.93,0,0,0-.33,4.91v6.61H55.65Z"/><path class="cls-1" d="M84.89,156a9,9,0,0,1,6.92,3,9.67,9.67,0,0,1-.15,13.12,9.52,9.52,0,0,1-13.55,0A9.67,9.67,0,0,1,78,159,8.93,8.93,0,0,1,84.89,156Zm0,2.27a6.7,6.7,0,0,0-5,2.14,7.14,7.14,0,0,0-2.08,5.17,7.36,7.36,0,0,0,1,3.65,6.69,6.69,0,0,0,2.56,2.61,7.29,7.29,0,0,0,7.09,0A6.63,6.63,0,0,0,91,169.23a7.26,7.26,0,0,0,1-3.65,7.11,7.11,0,0,0-2.09-5.17A6.67,6.67,0,0,0,84.89,158.27Z"/><path class="cls-1" d="M100.61,149.76h2.33v6.7h3.68v2h-3.68v16h-2.33v-16H97.45v-2h3.16Z"/><path class="cls-1" d="M118.64,156a9,9,0,0,1,6.91,3,9.69,9.69,0,0,1-.14,13.12,9.54,9.54,0,0,1-13.56,0,9.67,9.67,0,0,1-.14-13.11A9,9,0,0,1,118.64,156Zm0,2.27a6.7,6.7,0,0,0-5,2.14,7.18,7.18,0,0,0-2.08,5.17,7.36,7.36,0,0,0,1,3.65,6.72,6.72,0,0,0,2.57,2.61,7.27,7.27,0,0,0,7.08,0,6.72,6.72,0,0,0,2.57-2.61,7.36,7.36,0,0,0,1-3.65,7.15,7.15,0,0,0-2.09-5.17A6.71,6.71,0,0,0,118.63,158.27Z"/><path class="cls-1" d="M147.89,156.46h2.32v14.38a17,17,0,0,1-.66,5.55,7.28,7.28,0,0,1-3.17,3.84,10.45,10.45,0,0,1-5.42,1.34,12.33,12.33,0,0,1-4.17-.66,8.24,8.24,0,0,1-3-1.76,10.4,10.4,0,0,1-2.14-3.24h2.52a6.65,6.65,0,0,0,2.65,2.66,8.63,8.63,0,0,0,4,.86,8.34,8.34,0,0,0,4-.89,5.35,5.35,0,0,0,2.33-2.22,9.8,9.8,0,0,0,.7-4.32v-.93a8.74,8.74,0,0,1-3.21,2.55,9.54,9.54,0,0,1-8.69-.35,8.75,8.75,0,0,1-3.39-3.33,9,9,0,0,1-1.19-4.59,9.39,9.39,0,0,1,9.32-9.35,8.64,8.64,0,0,1,3.78.84,10.5,10.5,0,0,1,3.38,2.76ZM141,158.24a7.34,7.34,0,0,0-3.66.95,7,7,0,0,0-2.66,2.64,7.2,7.2,0,0,0-1,3.64,6.56,6.56,0,0,0,2,4.91,7.83,7.83,0,0,0,10.31,0,6.82,6.82,0,0,0,1.94-5.06,7.26,7.26,0,0,0-.89-3.63,6.5,6.5,0,0,0-2.54-2.53A7,7,0,0,0,141,158.24Z"/><path class="cls-1" d="M154.31,156.46h2.37v2.64a8.21,8.21,0,0,1,2.23-2.33,4.48,4.48,0,0,1,2.46-.77,4.2,4.2,0,0,1,2,.61l-1.21,2a3.2,3.2,0,0,0-1.22-.32,3.34,3.34,0,0,0-2.24,1,5.94,5.94,0,0,0-1.64,3,28.19,28.19,0,0,0-.43,6.23v6.1h-2.37Z"/><path class="cls-1" d="M183.37,156.46v18h-2.29v-3.1a9.74,9.74,0,0,1-3.27,2.67,9.13,9.13,0,0,1-10.51-1.88,9.29,9.29,0,0,1-2.71-6.76,9.14,9.14,0,0,1,2.73-6.66A8.9,8.9,0,0,1,173.9,156a8.52,8.52,0,0,1,4,.94,9.17,9.17,0,0,1,3.15,2.84v-3.32Zm-9.27,1.78a7,7,0,0,0-3.58.95,6.93,6.93,0,0,0-2.61,2.68,7.25,7.25,0,0,0-1,3.64,7.34,7.34,0,0,0,1,3.64,7.11,7.11,0,0,0,2.62,2.71,6.84,6.84,0,0,0,3.54,1,7.26,7.26,0,0,0,3.61-1,6.68,6.68,0,0,0,2.62-2.6,7.35,7.35,0,0,0,.92-3.69,7.16,7.16,0,0,0-2.06-5.24A6.83,6.83,0,0,0,174.1,158.24Z"/><path class="cls-1" d="M188.63,156.46H191v3.32a9.38,9.38,0,0,1,3.16-2.84,8.46,8.46,0,0,1,4-.94,8.88,8.88,0,0,1,6.57,2.77,9.14,9.14,0,0,1,2.73,6.66,9.33,9.33,0,0,1-2.7,6.76,9.11,9.11,0,0,1-10.5,1.88A9.81,9.81,0,0,1,191,171.4v9.7h-2.32Zm9.28,1.78a6.84,6.84,0,0,0-5.07,2.1,7.2,7.2,0,0,0-2.06,5.24,7.46,7.46,0,0,0,.92,3.69,6.71,6.71,0,0,0,2.63,2.6,7.29,7.29,0,0,0,3.62,1,6.78,6.78,0,0,0,3.51-1,7.11,7.11,0,0,0,2.62-2.71,7.34,7.34,0,0,0,1-3.64,7.25,7.25,0,0,0-1-3.64,7,7,0,0,0-2.6-2.68A7.08,7.08,0,0,0,197.91,158.24Z"/><path class="cls-1" d="M211.76,149.5h2.32v10.2a9.79,9.79,0,0,1,3.1-2.78,7.6,7.6,0,0,1,3.67-.92,6.39,6.39,0,0,1,3.59,1,6.11,6.11,0,0,1,2.31,2.76,14.53,14.53,0,0,1,.75,5.43v9.28h-2.33v-8.6a22.7,22.7,0,0,0-.24-4.16,4.74,4.74,0,0,0-1.57-2.7,4.66,4.66,0,0,0-3-.9,5.71,5.71,0,0,0-3.77,1.39,6.59,6.59,0,0,0-2.2,3.45,23.93,23.93,0,0,0-.33,4.91v6.61h-2.32Z"/><path class="cls-1" d="M230.53,156.46H233l6.2,13.9,6-13.9h2.48L236.91,181.1h-2.45l3.47-8Z"/><text></text><text></text></g></g></svg>